<?xml version="1.0" standalone="no"?>
<!DOCTYPE svg PUBLIC "-//W3C//DTD SVG 1.1//EN" "http://www.w3.org/Graphics/SVG/1.1/DTD/svg11.dtd" >
<svg>
<metadata>
Created by FontForge 20090914 at Sun Aug  7 19:22:17 2022
 By www-data
Copyright (c) Milos Mitrovic, 2016. All rights reserved.
</metadata>
<defs>
<font id="NoirPro-LightItalic" horiz-adv-x="496" >
  <font-face 
    font-family="Noir Pro Light Italic"
    font-weight="300"
    font-style="italic"
    font-stretch="normal"
    units-per-em="1000"
    panose-1="0 0 4 0 0 0 0 0 0 0"
    ascent="800"
    descent="-200"
    x-height="480"
    cap-height="672"
    bbox="-185 -304 1073 1088"
    underline-thickness="50"
    underline-position="-50"
    unicode-range="U+0020-U+25CA"
  />
<missing-glyph horiz-adv-x="528" 
d="M433 800v-1056h-335v1056h335zM352 729h-175v-35h69v-39h-70v-35h176v35h-70v39h70v35zM282 593h-106v-110h176v36h-70v74zM246 557v-38h-35v38h35zM352 455h-176v-35h70v-39h-70v-35h106v74h70v35zM352 391h-35v-69h-141v-36h176v105zM352 262h-106v-59h36v25h35v-50
h-106v84h-35v-119h176v119zM352 80h-176v-120h176v120zM317 45v-50h-106v50h106zM352 -64h-176v-35h74l-74 -49v-35h176v35h-108l74 49h34v35z" />
    <glyph glyph-name=".notdef" horiz-adv-x="528" 
d="M433 800v-1056h-335v1056h335zM352 729h-175v-35h69v-39h-70v-35h176v35h-70v39h70v35zM282 593h-106v-110h176v36h-70v74zM246 557v-38h-35v38h35zM352 455h-176v-35h70v-39h-70v-35h106v74h70v35zM352 391h-35v-69h-141v-36h176v105zM352 262h-106v-59h36v25h35v-50
h-106v84h-35v-119h176v119zM352 80h-176v-120h176v120zM317 45v-50h-106v50h106zM352 -64h-176v-35h74l-74 -49v-35h176v35h-108l74 49h34v35z" />
    <glyph glyph-name="space" unicode=" " horiz-adv-x="320" 
 />
    <glyph glyph-name="exclam" unicode="!" horiz-adv-x="272" 
d="M94 192l35 480h96l-83 -480h-48zM94 -8c-18 0 -32.499 6.16699 -43.499 18.5s-15.167 27.5 -12.5 45.5c2 18 9.83301 33.167 23.5 45.5s29.5 18.5 47.5 18.5s32.5 -6.16699 43.5 -18.5s15.5 -27.5 13.5 -45.5c-2.66699 -18 -10.834 -33.167 -24.501 -45.5
s-29.5 -18.5 -47.5 -18.5z" />
    <glyph glyph-name="quotedbl" unicode="&#x22;" horiz-adv-x="400" 
d="M148 496h-56l5 176h88zM348 496h-56l5 176h88z" />
    <glyph glyph-name="numbersign" unicode="#" horiz-adv-x="688" 
d="M644 432h-120l-61 -208h115l-6 -48h-123l-50 -176h-56l51 176h-190l-51 -176h-56l50 176h-111l6 48h119l61 208h-114l6 48h122l55 192h56l-55 -192h190l55 192h56l-55 -192h112zM407 224l61 208h-190l-61 -208h190z" />
    <glyph glyph-name="dollar" unicode="$" horiz-adv-x="560" 
d="M501 181c-6 -48 -31.168 -90.166 -75.501 -126.499s-97.5 -56.833 -159.5 -61.5l-9 -73h-40l9 72c-33.333 1.33301 -63.833 6.83301 -91.5 16.5s-50 21.334 -67 35.001s-29.5 24.834 -37.5 33.501s-14.333 16.667 -19 24l39 57c19.333 -30 46 -54.5 80 -73.5
s74 -28.5 120 -28.5c47.333 0 89.333 12.5 126 37.5s57 55.5 61 91.5c4 33.333 -5.16699 60.666 -27.5 81.999s-63.833 37.666 -124.5 48.999c-83.333 15.333 -139.166 37.833 -167.499 67.5s-39.5 68.834 -33.5 117.501c6 48 29.667 88.833 71 122.5s93 52.167 155 55.5
l9 73h40l-9 -73c71.333 -3.33301 128 -29.666 170 -78.999l-36 -55c-38 47.333 -92.333 71 -163 71c-45.333 0 -84.166 -9.83301 -116.499 -29.5s-50.833 -46.834 -55.5 -81.501c-4.66699 -34 4.83301 -60.333 28.5 -79s64.167 -34 121.5 -46
c80.667 -16.667 136.167 -39.834 166.5 -69.501s42.166 -72.834 35.499 -129.501z" />
    <glyph glyph-name="percent" unicode="%" horiz-adv-x="752" 
d="M202 408c-38.667 0 -69.5 13.167 -92.5 39.5s-32.167 58.5 -27.5 96.5s21.667 70.167 51 96.5s63.333 39.5 102 39.5c37.333 0 67.666 -13.167 90.999 -39.5s32.666 -58.5 27.999 -96.5c-5.33301 -38 -22.666 -70.167 -51.999 -96.5s-62.666 -39.5 -99.999 -39.5zM125 0
h-48l550 672h48zM207 456c23.333 0 44.8359 8.83301 64.5029 26.5s31.167 38.167 34.5 61.5c2.66699 23.333 -3.83301 43.833 -19.5 61.5s-35.167 26.5 -58.5 26.5s-44.833 -8.83301 -64.5 -26.5s-30.834 -38.167 -33.501 -61.5s3.66602 -43.833 18.999 -61.5
s34.666 -26.5 57.999 -26.5zM519.003 -8c-38.667 0 -69.668 13.167 -93.001 39.5s-32.666 58.5 -27.999 96.5c5.33301 38 22.666 70.167 51.999 96.5s63.333 39.5 102 39.5c37.333 0 67.5 -13.167 90.5 -39.5s32.167 -58.5 27.5 -96.5s-21.667 -70.167 -51 -96.5
s-62.666 -39.5 -99.999 -39.5zM524.002 40c23.333 0 44.8301 8.83301 64.4971 26.5s30.834 38.167 33.501 61.5s-3.66602 43.833 -18.999 61.5s-34.666 26.5 -57.999 26.5s-44.833 -8.83301 -64.5 -26.5s-31.167 -38.167 -34.5 -61.5
c-2.66699 -23.333 3.83301 -43.833 19.5 -61.5s35.167 -26.5 58.5 -26.5z" />
    <glyph glyph-name="ampersand" unicode="&#x26;" horiz-adv-x="721" 
d="M662 320l-174.997 -172.999l137 -147h-93l-92 99c-78 -71.333 -154 -107 -228 -107c-57.333 0 -102.333 17.833 -135 53.5s-46 79.167 -40 130.5c10 81.333 65 141.666 165 180.999c-60.667 60.667 -88.334 113.667 -83.001 159c6 47.333 27.833 86.5 65.5 117.5
s86.167 46.5 145.5 46.5c55.333 0 98 -16 128 -48s42.333 -71.667 37 -119c-2.66699 -20 -9.33398 -39 -20.001 -57s-21.834 -32.5 -33.501 -43.5s-27.5 -22.167 -47.5 -33.5s-34.833 -19 -44.5 -23l-41.5 -17l139 -149l132 130h84zM266.003 383.001
c25.333 10 42.002 16.835 50.002 20.502s21.167 10.167 39.5 19.5s31.166 17.666 38.499 24.999s14.666 16.833 21.999 28.5s12 24.5 14 38.5c3.33301 29.333 -5 53.5 -25 72.5s-48 28.5 -84 28.5c-40.667 0 -73 -8.83301 -97 -26.5s-37.667 -40.834 -41 -69.501
c-1.33301 -8 -0.666016 -16.667 2.00098 -26s5.5 -17.333 8.5 -24s8.66699 -15.167 17 -25.5l17.5 -21.5c3.33301 -4 10.166 -11.333 20.499 -22zM221.005 56.0029c56 0 115 29.3311 177 87.998l-156 169c-34.667 -13.333 -66 -31.166 -94 -53.499
s-43.667 -49.166 -47 -80.499c-4 -32 5.5 -60.5 28.5 -85.5s53.5 -37.5 91.5 -37.5z" />
    <glyph glyph-name="quotesingle" unicode="'" horiz-adv-x="200" 
d="M148 496h-56l5 176h88z" />
    <glyph glyph-name="parenleft" unicode="(" horiz-adv-x="280" 
d="M290 740c-95.333 -126.667 -153.334 -272 -174.001 -436c-20.667 -162.667 1.66602 -308 66.999 -436l-60 -28c-31.333 60 -53.666 130.667 -66.999 212s-14.666 165.333 -3.99902 252s32.667 170.667 66 252s73 152 119 212z" />
    <glyph glyph-name="parenright" unicode=")" horiz-adv-x="280" 
d="M90 740l59.001 28.001c31.333 -60 53.666 -130.667 66.999 -212s14.666 -165.333 3.99902 -252s-32.667 -170.667 -66 -252s-73 -152 -119 -212l-52 28c94.667 127.333 152.334 272.666 173.001 435.999c20 162 -2 307.333 -66 436z" />
    <glyph glyph-name="asterisk" unicode="*" horiz-adv-x="444" 
d="M281 580l120 47l16 -58l-124 -43l66 -100l-56 -37l-62 102l-83 -102l-49 37l88 100l-112 43l30 58l108 -47l13 124h62z" />
    <glyph glyph-name="plus" unicode="+" horiz-adv-x="464" 
d="M407 328l-6 -48h-152l-19 -152h-48l19 152h-152l6 48h152l19 152h48l-19 -152h152z" />
    <glyph glyph-name="comma" unicode="," horiz-adv-x="232" 
d="M-13 -96l64 192h96l-112 -192h-48z" />
    <glyph glyph-name="hyphen" unicode="-" horiz-adv-x="368" 
d="M299 232h-256l8 64h256z" />
    <glyph glyph-name="period" unicode="." horiz-adv-x="240" 
d="M78 -8c-18 0 -32.499 6.16699 -43.499 18.5s-15.167 27.5 -12.5 45.5c2 18 9.83301 33.167 23.5 45.5s29.5 18.5 47.5 18.5s32.5 -6.16699 43.5 -18.5s15.5 -27.5 13.5 -45.5c-2.66699 -18 -10.834 -33.167 -24.501 -45.5s-29.5 -18.5 -47.5 -18.5z" />
    <glyph glyph-name="slash" unicode="/" 
d="M69 -80h-64l422 832h64z" />
    <glyph glyph-name="zero" unicode="0" horiz-adv-x="592" 
d="M338 680c70.667 0 124.5 -32.333 161.5 -97s49.167 -147 36.5 -247c-12.667 -100.667 -45.167 -183.167 -97.5 -247.5s-113.833 -96.5 -184.5 -96.5c-71.333 0 -125.333 32.167 -162 96.5s-48.667 146.833 -36 247.5s45 183.167 97 247.5s113.667 96.5 185 96.5zM262 56
c49.333 0 94.166 26.333 134.499 79s65.5 119.667 75.5 201s1.16699 148.333 -26.5 201s-66.167 79 -115.5 79s-94.166 -26.333 -134.499 -79s-65.5 -119.667 -75.5 -201s-1.16699 -148.333 26.5 -201s66.167 -79 115.5 -79z" />
    <glyph glyph-name="one" unicode="1" horiz-adv-x="336" 
d="M106 616l185 72l-84 -688h-64l73 596l-117 -42z" />
    <glyph glyph-name="two" unicode="2" horiz-adv-x="592" 
d="M89 472c10.667 57.333 37.833 106.334 81.5 147.001s96.834 61 159.501 61s112 -19 148 -57s50.333 -88.333 43 -151c-6 -49.333 -22.167 -92.333 -48.5 -129s-68.833 -80.334 -127.5 -131.001l-172 -148h330l-8 -64h-480l302 266
c85.333 74.667 131.666 141.334 138.999 200.001c5.33301 45.333 -4.33398 81.666 -29.001 108.999s-59.667 41 -105 41c-46 0 -83.667 -14.5 -113 -43.5s-48.666 -66.5 -57.999 -112.5z" />
    <glyph glyph-name="three" unicode="3" horiz-adv-x="576" 
d="M394 354c36 -7.33301 64.3311 -25.6641 84.998 -54.9971s28.667 -63 24 -101c-6.66699 -54.667 -33.167 -102.667 -79.5 -144s-105.5 -62 -177.5 -62c-68 0 -120.167 19.167 -156.5 57.5s-53.166 88.5 -50.499 150.5l63 12c0 -18.667 2.33301 -36.167 7 -52.5
s12.334 -32.833 23.001 -49.5s26.834 -29.834 48.501 -39.501s48.167 -14.5 79.5 -14.5c50.667 0 92 14.167 124 42.5s50 59.5 54 93.5c5.33301 42.667 -9.66699 74 -45 94s-84.333 30 -147 30l7 64c28.667 0.666992 57 4.16699 85 10.5s54.5 18.666 79.5 36.999
s39.167 41.166 42.5 68.499c4.66699 36.667 -5.66602 65.834 -30.999 87.501s-59 32.5 -101 32.5c-31.333 0 -58.5 -4.5 -81.5 -13.5s-40.833 -21.5 -53.5 -37.5s-22.334 -31.333 -29.001 -46s-12.334 -31.667 -17.001 -51l-58 12c11.333 58.667 38 106.667 80 144
s95.667 56 161 56c69.333 0 120.5 -18.5 153.5 -55.5s46.833 -77.167 41.5 -120.5c-4 -32 -17 -61.833 -39 -89.5s-52.667 -47.834 -92 -60.501z" />
    <glyph glyph-name="four" unicode="4" horiz-adv-x="592" 
d="M438 192h80l-8 -64h-80l-15 -128h-64l15 128h-368l501 560zM374 192l40 320l-284 -320h244z" />
    <glyph glyph-name="five" unicode="5" horiz-adv-x="576" 
d="M322 448c58 0 105.331 -19.666 141.998 -58.999s51 -93.333 43 -162c-8 -68 -37.667 -124.167 -89 -168.5s-108.666 -66.5 -171.999 -66.5c-64 0 -115.5 19 -154.5 57s-56.833 85.667 -53.5 143l66 8c-1.33301 -40.667 11.334 -74.834 38.001 -102.501
s64 -41.5 112 -41.5c49.333 0 91.5 15.5 126.5 46.5s55.5 71.5 61.5 121.5c5.33301 46 -4 84.167 -28 114.5s-59 45.5 -105 45.5c-69.333 0 -129.333 -37.333 -180 -112h-66l107 400h327l-8 -64h-278l-62 -232c15.333 18 38 34.5 68 49.5s65 22.5 105 22.5z" />
    <glyph glyph-name="six" unicode="6" horiz-adv-x="592" 
d="M322 464c66 0 118.168 -21.335 156.501 -64.002s53.833 -94.334 46.5 -155.001c-9.33301 -74.667 -39.333 -135.5 -90 -182.5s-111 -70.5 -181 -70.5c-70.667 0 -125.5 23.667 -164.5 71s-53.5 110.333 -43.5 189c10 84 40.667 164.833 92 242.5
s122.333 136.834 213 177.501h138c-6.66699 -1.33301 -15.5 -3.66602 -26.5 -6.99902s-32 -11.666 -63 -24.999s-60 -29 -87 -47s-55.833 -43.833 -86.5 -77.5s-55.334 -70.5 -74.001 -110.5c51.333 39.333 108 59 170 59zM262.001 55.998c51.333 0 95.5 17 132.5 51
s58.5 76 64.5 126s-4.83301 90.333 -32.5 121s-68.5 46 -122.5 46c-50.667 0 -94.667 -15.833 -132 -47.5s-59 -71.5 -65 -119.5c-6 -50 5.5 -92 34.5 -126s69.167 -51 120.5 -51z" />
    <glyph glyph-name="seven" unicode="7" horiz-adv-x="512" 
d="M97 672h448l-378 -672h-72l346 608h-352z" />
    <glyph glyph-name="eight" unicode="8" horiz-adv-x="592" 
d="M434 369c27.333 -12 49.499 -34.166 66.499 -66.499s23.5 -65.5 19.5 -99.5c-8 -63.333 -37.333 -114.333 -88 -153s-110 -58 -178 -58s-122.667 19.333 -164 58s-58 89.667 -50 153c4 34 18.333 67 43 99s52 54.333 82 67c-21.333 13.333 -37.166 32.333 -47.499 57
s-13.833 49.334 -10.5 74.001c6.66699 53.333 32 96.666 76 129.999s95.667 50 155 50c58.667 0 106.167 -16.833 142.5 -50.5s51.166 -76.834 44.499 -129.501c-3.33301 -24.667 -13.166 -49.167 -29.499 -73.5s-36.833 -43.5 -61.5 -57.5zM329.999 616.001
c-40.667 0 -76.165 -10.833 -106.498 -32.5s-47.5 -48.834 -51.5 -81.501c-4 -32 6.66699 -57.333 32 -76s58.666 -28 99.999 -28s76.666 9.33301 105.999 28s46 44 50 76c4 32.667 -6.5 59.834 -31.5 81.501s-57.833 32.5 -98.5 32.5zM262.001 56.001
c48.667 0 91.8311 13.667 129.498 41s58.834 61.666 63.501 102.999c4.66699 40.667 -8.33301 73.834 -39 99.501s-70.667 38.5 -120 38.5s-92.666 -12.833 -129.999 -38.5s-58.333 -58.834 -63 -99.501c-4.66699 -41.333 8.33301 -75.666 39 -102.999s70.667 -41 120 -41z
" />
    <glyph glyph-name="nine" unicode="9" horiz-adv-x="592" 
d="M270 208c-66 0 -118.168 21.335 -156.501 64.002s-53.833 94.334 -46.5 155.001c9.33301 74.667 39.333 135.5 90 182.5s111 70.5 181 70.5c70.667 0 125.5 -23.667 164.5 -71s53.5 -110.333 43.5 -189c-10 -84 -40.667 -164.833 -92 -242.5
s-122.333 -136.834 -213 -177.501h-138c6.66699 1.33301 15.5 3.66602 26.5 6.99902s32 11.666 63 24.999s60 29 87 47s55.833 43.833 86.5 77.5s55.334 70.5 74.001 110.5c-51.333 -39.333 -108 -59 -170 -59zM329.999 616.002c-51.333 0 -95.5 -17 -132.5 -51
s-58.5 -76 -64.5 -126s4.83301 -90.333 32.5 -121s68.5 -46 122.5 -46c50.667 0 94.667 15.833 132 47.5s59 71.5 65 119.5c6 50 -5.5 92 -34.5 126s-69.167 51 -120.5 51z" />
    <glyph glyph-name="colon" unicode=":" horiz-adv-x="240" 
d="M123 360c-18 0 -32.499 6.16699 -43.499 18.5s-15.167 27.5 -12.5 45.5c2 18 10 33.167 24 45.5s30 18.5 48 18.5s32.333 -6.16699 43 -18.5s15 -27.5 13 -45.5c-2.66699 -18 -10.834 -33.167 -24.501 -45.5s-29.5 -18.5 -47.5 -18.5zM78.001 -8
c-18 0 -32.499 6.16699 -43.499 18.5s-15.167 27.5 -12.5 45.5c2 18 9.83301 33.167 23.5 45.5s29.5 18.5 47.5 18.5s32.5 -6.16699 43.5 -18.5s15.5 -27.5 13.5 -45.5c-2.66699 -18 -10.834 -33.167 -24.501 -45.5s-29.5 -18.5 -47.5 -18.5z" />
    <glyph glyph-name="semicolon" unicode=";" horiz-adv-x="248" 
d="M131 360c-18 0 -32.499 6.16699 -43.499 18.5s-15.167 27.5 -12.5 45.5c2 18 10 33.167 24 45.5s30 18.5 48 18.5s32.333 -6.16699 43 -18.5s15 -27.5 13 -45.5c-2.66699 -18 -10.834 -33.167 -24.501 -45.5s-29.5 -18.5 -47.5 -18.5zM-12.999 -96l64 192h96l-112 -192
h-48z" />
    <glyph glyph-name="less" unicode="&#x3c;" horiz-adv-x="512" 
d="M427 96l-378 184l6 48l423 184l-7 -56l-355 -152l317 -152z" />
    <glyph glyph-name="equal" unicode="=" 
d="M64 400h384l-6 -48h-384zM46 256h384l-6 -48h-384z" />
    <glyph glyph-name="greater" unicode="&#x3e;" horiz-adv-x="512" 
d="M27 96l6 56l355 152l-317 152l7 56l377 -184l-6 -48z" />
    <glyph glyph-name="question" unicode="?" horiz-adv-x="512" 
d="M290 680c46 0 84.1699 -10.167 114.503 -30.5s50.5 -44.5 60.5 -72.5s13.333 -57.667 10 -89c-2.66699 -20.667 -8.5 -40 -17.5 -58s-22 -35 -39 -51s-31 -28.333 -42 -37s-26.833 -20 -47.5 -34c-24 -16 -40.167 -32 -48.5 -48s-14.833 -38.667 -19.5 -68h-61
c7.33301 63.333 32 110.666 74 141.999c6.66699 5.33301 18.167 13.333 34.5 24s28.666 19.334 36.999 26.001s18 15.5 29 26.5s19.333 22.833 25 35.5s9.5 26.667 11.5 42c4 36 -5.5 66.333 -28.5 91s-56.167 37 -99.5 37c-36.667 0 -68.334 -8.5 -95.001 -25.5
s-47.334 -37.167 -62.001 -60.5l-41 46c54 69.333 122.333 104 205 104zM221.003 120c18 0 32.501 -6.16699 43.501 -18.5s15.5 -27.5 13.5 -45.5c-2.66699 -18 -10.834 -33.167 -24.501 -45.5s-29.5 -18.5 -47.5 -18.5s-32.5 6.16699 -43.5 18.5s-15.167 27.5 -12.5 45.5
c2 18 9.83301 33.167 23.5 45.5s29.5 18.5 47.5 18.5z" />
    <glyph glyph-name="at" unicode="@" horiz-adv-x="1088" 
d="M1031 330c-9.33301 -75.333 -38.001 -138.503 -86.001 -189.503s-104.333 -76.5 -169 -76.5c-41.333 0 -72.666 9.83301 -93.999 29.5s-34.666 42.834 -39.999 69.501c-45.333 -54 -99 -81 -161 -81c-58.667 0 -102.5 21.167 -131.5 63.5s-37.5 92.833 -25.5 151.5
c12 60.667 39.833 111.334 83.5 152.001s93.834 61 150.501 61c28.667 0 54.667 -6.66699 78 -20s39.666 -30.666 48.999 -51.999l12 58h62l-52 -236c-8.66699 -38.667 -7 -70.334 5 -95.001s37 -37 75 -37c16 0 32.833 3.33301 50.5 10s35.667 17.167 54 31.5
s34.5 35.5 48.5 63.5s23.333 61 28 99c6 52.667 0.166992 103.334 -17.5 152.001s-43.834 90 -78.501 124s-75.834 61.167 -123.501 81.5s-97.167 30.5 -148.5 30.5c-73.333 0 -145.5 -18.833 -216.5 -56.5s-131.167 -90.167 -180.5 -157.5s-79 -140 -89 -218
c-9.33301 -76.667 2.66699 -148.334 36 -215.001s80.833 -119.167 142.5 -157.5s128.834 -58.166 201.501 -59.499c60 -0.666992 113.667 9.33301 161 30l15 -60c-53.333 -22.667 -115 -34 -185 -34c-90 0 -170.333 22.167 -241 66.5s-123.5 104.5 -158.5 180.5
s-46.833 159 -35.5 249c17.333 137.333 80.333 254.333 189 351s231.334 145 368.001 145c62.667 0 122 -12.167 178 -36.5s103.167 -56.833 141.5 -97.5s67.166 -89 86.499 -145s25.333 -114.333 18 -175zM651.999 296.997c2.66699 21.333 2.66699 43 0 65
s-13.167 41.5 -31.5 58.5s-42.5 25.5 -72.5 25.5c-39.333 0 -74 -14.167 -104 -42.5s-49 -63.166 -57 -104.499c-8 -42.667 -3.16699 -78.834 14.5 -108.501s48.167 -44.5 91.5 -44.5c40 0 74.5 14.667 103.5 44s47.5 65 55.5 107z" />
    <glyph glyph-name="A" unicode="A" horiz-adv-x="656" 
d="M535 0l-49 144h-364l-83 -144h-72l404 688l236 -688h-72zM159 208h306l-111 336z" />
    <glyph glyph-name="B" unicode="B" horiz-adv-x="560" 
d="M411 361c32 -6.66699 56.5 -26 73.5 -58s23.5 -65.667 19.5 -101c-8 -59.333 -33.667 -107.833 -77 -145.5s-98 -56.5 -164 -56.5h-232l82 672h177c74 0 130.5 -15.167 169.5 -45.5s55.167 -73.833 48.5 -130.5c-4 -29.333 -15.333 -57 -34 -83s-39.667 -43.333 -63 -52z
M169 608l-27.001 -224h136c100.667 0 156 37.333 166 112c8.66699 74.667 -37.666 112 -138.999 112h-136zM254.999 64c52.667 0 95.167 10.666 127.5 31.999s50.833 53 55.5 95c5.33301 42.667 -5.5 74.834 -32.5 96.501s-66.833 32.5 -119.5 32.5h-152l-31 -256h152z" />
    <glyph glyph-name="C" unicode="C" horiz-adv-x="640" 
d="M350 56c74.667 0 141 24.333 199 73l18 -58c-30 -24.667 -65 -44 -105 -58s-78.667 -21 -116 -21c-96 0 -173.833 33.667 -233.5 101s-83.834 148.333 -72.501 243s55.166 175.667 131.499 243s162.5 101 258.5 101c37.333 0 74.5 -7 111.5 -21s67.5 -33.333 91.5 -58
l-34 -58c-46.667 48.667 -107 73 -181 73c-77.333 0 -146.666 -27.333 -207.999 -82s-96.666 -120.667 -105.999 -198s10 -143.333 58 -198s110.667 -82 188 -82z" />
    <glyph glyph-name="D" unicode="D" horiz-adv-x="640" 
d="M298 672c108 0 188.333 -31.667 241 -95s73 -143.666 61 -240.999c-12 -96.667 -52.5 -176.834 -121.5 -240.501s-156.5 -95.5 -262.5 -95.5h-185l82 672h185zM230 64c83.333 0 152.833 25.333 208.5 76s88.167 116 97.5 196s-7.5 145.333 -50.5 196
s-106.167 76 -189.5 76h-127l-66 -544h127z" />
    <glyph glyph-name="E" unicode="E" 
d="M473 608h-304l-29 -240h256l-8 -64h-256l-29 -240h304l-8 -64h-368l82 672h368z" />
    <glyph glyph-name="F" unicode="F" horiz-adv-x="480" 
d="M31 0l82 672h368l-8 -64h-304l-29 -240h256l-8 -64h-256l-37 -304h-64z" />
    <glyph glyph-name="G" unicode="G" horiz-adv-x="752" 
d="M714 352c-0.666992 -2 -1.16699 -4.66699 -1.5 -8s-0.5 -6 -0.5 -8c-11.333 -96 -52.333 -177.333 -123 -244s-153 -100 -247 -100c-94.667 0 -171.5 33.5 -230.5 100.5s-82.833 148.167 -71.5 243.5c11.333 94.667 54.666 175.667 129.999 243s160.666 101 255.999 101
c66 0 122.667 -16.833 170 -50.5s82 -79.5 104 -137.5l-67 -18c-16.667 43.333 -43.834 77.833 -81.501 103.5s-82.167 38.5 -133.5 38.5c-77.333 0 -146.666 -27.333 -207.999 -82s-96.666 -120.667 -105.999 -198s10 -143.333 58 -198s110.667 -82 188 -82
c68 0 128.333 21.833 181 65.5s88.334 99.167 107.001 166.5h-284l8 64h352z" />
    <glyph glyph-name="H" unicode="H" horiz-adv-x="624" 
d="M529 672h64l-82 -672h-64l37 304h-352l-37 -304h-64l82 672h64l-37 -304h352z" />
    <glyph glyph-name="I" unicode="I" horiz-adv-x="208" 
d="M95 0h-64l82 672h64z" />
    <glyph glyph-name="J" unicode="J" horiz-adv-x="448" 
d="M369 672l63.999 -0.000976562l-51 -416c-21.333 -176 -101.333 -264 -240 -264c-28 0 -55 6.33301 -81 19s-44.667 27 -56 43l47 52c7.33301 -14.667 19.833 -26.667 37.5 -36s37.834 -14 60.501 -14c50.667 0 89.167 16.333 115.5 49s43.5 80.334 51.5 143.001z" />
    <glyph glyph-name="K" unicode="K" horiz-adv-x="528" 
d="M192 339l271 -339h-88l-243 304l-37 -304h-64l82 672h64l-37 -304l301 304h88z" />
    <glyph glyph-name="L" unicode="L" horiz-adv-x="464" 
d="M103 64h288l-8 -64h-352l82 672h64z" />
    <glyph glyph-name="M" unicode="M" horiz-adv-x="832" 
d="M373 -16l-174 494l-134 -478h-66l198 688l193 -564l331 564l30 -688h-66l-18 478z" />
    <glyph glyph-name="N" unicode="N" horiz-adv-x="672" 
d="M557 -16l-398 536l-64 -520h-64l84 688l398 -536l64 520h64z" />
    <glyph glyph-name="O" unicode="O" horiz-adv-x="768" 
d="M426 680c94.667 0 171.5 -33.5 230.5 -100.5s82.833 -148.167 71.5 -243.5c-11.333 -94.667 -54.666 -175.667 -129.999 -243s-160.666 -101 -255.999 -101c-94.667 0 -171.5 33.5 -230.5 100.5s-82.833 148.167 -71.5 243.5c11.333 94.667 54.666 175.667 129.999 243
s160.666 101 255.999 101zM350 56c78 0 147.5 27.167 208.5 81.5s96.167 120.5 105.5 198.5s-9.83398 144.167 -57.501 198.5s-110.5 81.5 -188.5 81.5s-147.5 -27.167 -208.5 -81.5s-96.167 -120.5 -105.5 -198.5s9.83398 -144.167 57.501 -198.5s110.5 -81.5 188.5 -81.5z
" />
    <glyph glyph-name="P" unicode="P" horiz-adv-x="560" 
d="M305 672c85.333 0 147 -18.833 185 -56.5s53 -89.167 45 -154.5c-8 -64.667 -34.5 -117.667 -79.5 -159s-102.167 -62 -171.5 -62h-160l-29 -240h-64l82 672h192zM292 304c47.333 0 87.3311 12.167 119.998 36.5s52.334 62.5 59.001 114.5
c6 52 -5.16699 90.5 -33.5 115.5s-66.166 37.5 -113.499 37.5h-155l-37 -304h160z" />
    <glyph glyph-name="Q" unicode="Q" horiz-adv-x="768" 
d="M728 336c-10.667 -90.667 -51.665 -169.333 -122.998 -236l82 -100h-88l-46 58c-66.667 -44 -137 -66 -211 -66c-94.667 0 -171.5 33.5 -230.5 100.5s-82.833 148.167 -71.5 243.5c11.333 94.667 54.666 175.667 129.999 243s160.666 101 255.999 101
c94.667 0 171.5 -33.5 230.5 -100.5s82.833 -148.167 71.5 -243.5zM350.002 56.001c59.333 0 114.667 16.667 166 50l-118 150h80l90 -110c55.333 54 87.333 117.333 96 190c9.33301 78 -9.83398 144.167 -57.501 198.5s-110.5 81.5 -188.5 81.5
s-147.5 -27.167 -208.5 -81.5s-96.167 -120.5 -105.5 -198.5s9.83398 -144.167 57.501 -198.5s110.5 -81.5 188.5 -81.5z" />
    <glyph glyph-name="R" unicode="R" horiz-adv-x="576" 
d="M495 0h-75.998l-152 240h-143l-29 -240h-64l82 672h192c85.333 0 147 -18.833 185 -56.5s53 -89.167 45 -154.5c-6.66699 -55.333 -27.334 -102.5 -62.001 -141.5s-79.334 -63.833 -134.001 -74.5zM169.002 608l-37.002 -304h160c47.333 0 87.333 12.167 120 36.5
s52.334 62.5 59.001 114.5c6 52 -5.16699 90.5 -33.5 115.5s-66.166 37.5 -113.499 37.5h-155z" />
    <glyph glyph-name="S" unicode="S" horiz-adv-x="560" 
d="M299 380c80.667 -16.667 136.167 -39.8301 166.5 -69.4971s42.166 -72.834 35.499 -129.501c-6 -51.333 -34 -95.666 -84 -132.999s-109 -56 -177 -56c-35.333 0 -67.833 4.66699 -97.5 14s-53.5 21 -71.5 35s-31.5 25.667 -40.5 35s-15.5 17.666 -19.5 24.999l39 57
c19.333 -30 46 -54.5 80 -73.5s74 -28.5 120 -28.5c47.333 0 89.333 12.5 126 37.5s57 55.5 61 91.5c4 33.333 -5.16699 60.666 -27.5 81.999s-63.833 37.666 -124.5 48.999c-83.333 15.333 -139.166 37.833 -167.499 67.5s-39.5 68.834 -33.5 117.501
c6 50.667 31.667 93.167 77 127.5s101.666 51.5 168.999 51.5c80.667 0 144 -26.667 190 -80l-36 -55c-38 47.333 -92.333 71 -163 71c-45.333 0 -84.166 -9.83301 -116.499 -29.5s-50.833 -46.834 -55.5 -81.501c-4.66699 -34 4.83301 -60.333 28.5 -79
s64.167 -34 121.5 -46z" />
    <glyph glyph-name="T" unicode="T" 
d="M81 672h416l-8 -64h-176l-74 -608h-64l74 608h-176z" />
    <glyph glyph-name="U" unicode="U" horiz-adv-x="592" 
d="M513 672l64.001 -0.000976562l-48 -392c-11.333 -92 -41 -163 -89 -213s-110 -75 -186 -75c-78 0 -134.5 24.833 -169.5 74.5s-46.833 120.834 -35.5 213.501l48 392h64l-49 -400c-8.66699 -70.667 0.333008 -124.334 27 -161.001s67.667 -55 123 -55
s100.666 18.333 135.999 55s57.333 90.334 66 161.001z" />
    <glyph glyph-name="V" unicode="V" horiz-adv-x="624" 
d="M269 -16l-220 688h72l166 -536l298 536h72z" />
    <glyph glyph-name="W" unicode="W" horiz-adv-x="960" 
d="M913 672h72l-364 -688l-120 524l-248 -524l-196 688h72l143 -512l251 528l121 -528z" />
    <glyph glyph-name="X" unicode="X" horiz-adv-x="624" 
d="M559 0h-83l-169 292l-241 -292h-83l290 347l-192 325h82l157 -272l223 272h82l-272 -325z" />
    <glyph glyph-name="Y" unicode="Y" horiz-adv-x="560" 
d="M521 672h72l-285 -368l-37 -304h-64l37 304l-195 368h72l162 -308z" />
    <glyph glyph-name="Z" unicode="Z" horiz-adv-x="560" 
d="M463 0h-464l444 608h-354l8 64h464l-444 -608h354z" />
    <glyph glyph-name="bracketleft" unicode="[" horiz-adv-x="304" 
d="M189 768l-112 -912h96l-8 -64h-160l128 1040h160l-8 -64h-96z" />
    <glyph glyph-name="backslash" unicode="\" 
d="M325 -80l-218 832h64l218 -832h-64z" />
    <glyph glyph-name="bracketright" unicode="]" horiz-adv-x="304" 
d="M221 768h-96l8 64h160l-128 -1040h-160l8 64h96z" />
    <glyph glyph-name="asciicircum" unicode="^" horiz-adv-x="512" 
d="M70 448l207 256h48l145 -256h-64l-112 200l-160 -200h-64z" />
    <glyph glyph-name="underscore" unicode="_" horiz-adv-x="544" 
d="M451 -96h-464l8 64h464z" />
    <glyph glyph-name="grave" unicode="`" horiz-adv-x="816" 
d="M521 736h-48l-96 128h80z" />
    <glyph glyph-name="a" unicode="a" horiz-adv-x="608" 
d="M511 0h-63.998c-9.33301 16 -11.333 44 -6 84c-52.667 -61.333 -117.667 -92 -195 -92c-68.667 0 -124.334 24.167 -167.001 72.5s-59.667 106.833 -51 175.5s40.167 127.167 94.5 175.5s115.833 72.5 184.5 72.5c77.333 0 134.666 -31 171.999 -93l11 85h64l-47 -384
c-6 -48 -4.66699 -80 4 -96zM254.002 56c51.333 0 96.9971 18 136.997 54s63 79.333 69 130c6.66699 50.667 -5.66602 94 -36.999 130s-72.666 54 -123.999 54c-50.667 0 -96.167 -17.833 -136.5 -53.5s-63.833 -79.167 -70.5 -130.5
c-6 -51.333 6.83301 -94.833 38.5 -130.5s72.834 -53.5 123.501 -53.5z" />
    <glyph glyph-name="b" unicode="b" horiz-adv-x="608" 
d="M181 704l-37.998 -309.001c53.333 62 118.666 93 195.999 93c68.667 0 124.167 -24.167 166.5 -72.5s59.166 -106.833 50.499 -175.5s-40 -127.167 -94 -175.5s-115.333 -72.5 -184 -72.5c-38 0 -72 8.33301 -102 25s-53.667 39.334 -71 68.001l-10 -85h-64l86 704h64z
M286.002 55.999c51.333 0 96.9971 18 136.997 54s63 79.333 69 130c6.66699 50.667 -5.66602 94 -36.999 130s-72.666 54 -123.999 54c-50.667 0 -96.167 -17.833 -136.5 -53.5s-63.833 -79.167 -70.5 -130.5c-6 -51.333 6.83301 -94.833 38.5 -130.5
s72.834 -53.5 123.501 -53.5z" />
    <glyph glyph-name="c" unicode="c" 
d="M401 104l18.998 -58c-43.333 -36 -97.666 -54 -162.999 -54c-79.333 0 -139.5 23.667 -180.5 71s-57.167 106.333 -48.5 177s39.5 129.667 92.5 177s118.833 71 197.5 71c63.333 0 113.666 -16.667 150.999 -50l-36 -58c-29.333 29.333 -70.666 44 -123.999 44
c-58 0 -107 -17.667 -147 -53s-63.333 -79 -70 -131c-6 -52.667 6.5 -96.5 37.5 -131.5s75.833 -52.5 134.5 -52.5c50.667 0 96.334 16 137.001 48z" />
    <glyph glyph-name="d" unicode="d" horiz-adv-x="608" 
d="M511 0h-63.998c-9.33301 16 -11.333 44 -6 84c-52.667 -61.333 -117.667 -92 -195 -92c-68.667 0 -124.334 24.167 -167.001 72.5s-59.667 106.833 -51 175.5s40.167 127.167 94.5 175.5s115.833 72.5 184.5 72.5c77.333 0 134.666 -31 171.999 -93l38 309h64l-74 -608
c-6 -48 -4.66699 -80 4 -96zM254.002 56c51.333 0 96.9971 18 136.997 54s63 79.333 69 130c6.66699 50.667 -5.66602 94 -36.999 130s-72.666 54 -123.999 54c-50.667 0 -96.167 -17.833 -136.5 -53.5s-63.833 -79.167 -70.5 -130.5
c-6 -51.333 6.83301 -94.833 38.5 -130.5s72.834 -53.5 123.501 -53.5z" />
    <glyph glyph-name="e" unicode="e" horiz-adv-x="544" 
d="M492 242c-1.33301 -13.333 -3.66504 -24.668 -6.99805 -34.001h-395c-0.666992 -45.333 14.666 -82 45.999 -110s72.666 -42 123.999 -42c57.333 0 110.666 17.333 159.999 52l17 -58c-8 -6.66699 -18.5 -13.667 -31.5 -21s-34.333 -15.333 -64 -24
s-60.167 -13 -91.5 -13c-76.667 0 -134.834 23.833 -174.501 71.5s-55.5 106.5 -47.5 176.5c8.66699 71.333 37.834 130.5 87.501 177.5s110.5 70.5 182.5 70.5c65.333 0 116.333 -22.167 153 -66.5s50.334 -104.166 41.001 -179.499zM98.001 271.998h333.001
c2.66699 38.667 -7.83301 73.667 -31.5 105s-61.167 47 -112.5 47c-52.667 0 -95.834 -15.667 -129.501 -47s-53.5 -66.333 -59.5 -105z" />
    <glyph glyph-name="f" unicode="f" horiz-adv-x="336" 
d="M58 480h64l6 50c8 64 22.333 110.333 43 139s51.667 43 93 43c21.333 0 41.333 -4.66699 60 -14l-7 -62c-14.667 8 -31.667 12 -51 12c-21.333 0 -37.5 -6.66699 -48.5 -20s-18.5 -36.333 -22.5 -69l-9 -79h112l-8 -64h-112l-51 -416h-64l51 416h-64z" />
    <glyph glyph-name="g" unicode="g" horiz-adv-x="608" 
d="M490 480l64.0029 -0.000976562l-56 -450c-12 -98 -42.833 -171.5 -92.5 -220.5s-114.834 -73.5 -195.501 -73.5c-86 0 -158.667 26.667 -218 80l39 56c53.333 -48 115.666 -72 186.999 -72c58.667 0 106.834 17.833 144.501 53.5s61.167 89.834 70.5 162.501l8 69
c-53.333 -62 -118.333 -93 -195 -93c-68.667 0 -124.334 24.167 -167.001 72.5s-59.667 106.833 -51 175.5s40.167 127.167 94.5 175.5s115.833 72.5 184.5 72.5c77.333 0 134.666 -31 171.999 -93zM254.003 55.999c51.333 0 96.9971 18 136.997 54s63 79.333 69 130
c6.66699 50.667 -5.66602 94 -36.999 130s-72.666 54 -123.999 54c-50.667 0 -96.167 -17.833 -136.5 -53.5s-63.833 -79.167 -70.5 -130.5c-6 -51.333 6.83301 -94.833 38.5 -130.5s72.834 -53.5 123.501 -53.5z" />
    <glyph glyph-name="h" unicode="h" horiz-adv-x="544" 
d="M459 96c-6 -48 -4.66504 -79.999 4.00195 -95.999h-64c-8.66699 16 -10 48 -4 96l23 188c10.667 93.333 -26.333 140 -111 140c-40 0 -78.333 -13.333 -115 -40s-57.667 -61.334 -63 -104.001l-34 -280h-64l86 704h64l-36 -298c16 21.333 40 40.333 72 57s64 25 96 25
c67.333 0 114.166 -18.5 140.499 -55.5s35.166 -91.833 26.499 -164.5z" />
    <glyph glyph-name="i" unicode="i" horiz-adv-x="208" 
d="M132 560c-15.333 0 -27.833 5.5 -37.5 16.5s-13.834 24.167 -12.501 39.5c2 15.333 9.16699 28.5 21.5 39.5s26.166 16.5 41.499 16.5s27.833 -5.5 37.5 -16.5s13.5 -24.167 11.5 -39.5c-1.33301 -15.333 -8.16602 -28.5 -20.499 -39.5s-26.166 -16.5 -41.499 -16.5z
M154 480l-47 -384c-6 -48 -4.66699 -80 4 -96h-64c-8.66699 16 -10 48 -4 96l47 384h64z" />
    <glyph glyph-name="j" unicode="j" horiz-adv-x="208" 
d="M132 560c-15.333 0 -27.833 5.5 -37.5 16.5s-13.834 24.167 -12.501 39.5c2 15.333 9.16699 28.5 21.5 39.5s26.166 16.5 41.499 16.5s27.833 -5.5 37.5 -16.5s13.5 -24.167 11.5 -39.5c-1.33301 -15.333 -8.16602 -28.5 -20.499 -39.5s-26.166 -16.5 -41.499 -16.5z
M25 -44l64.999 524.001h64l-63 -514c-4.66699 -38.667 -12.167 -72.167 -22.5 -100.5s-20.833 -50 -31.5 -65s-24 -27.5 -40 -37.5s-29.333 -16.5 -40 -19.5s-23.667 -5.5 -39 -7.5l-9 58c35.333 7.33301 61.833 23.166 79.5 47.499s29.834 62.5 36.501 114.5z" />
    <glyph glyph-name="k" unicode="k" horiz-adv-x="480" 
d="M189 248l242 -248h-88l-221 222l-27 -222h-64l86 704h64l-53 -434l258 210h88z" />
    <glyph glyph-name="l" unicode="l" horiz-adv-x="208" 
d="M107 96c-6 -48 -4.66699 -80 4 -96h-64c-8.66699 16 -10 48 -4 96l74 608h64z" />
    <glyph glyph-name="m" unicode="m" horiz-adv-x="800" 
d="M715 96c-6 -48 -4.66699 -80 4 -96h-64c-8.66699 16 -10 48 -4 96l24 196c10.667 88 -20 132 -92 132c-32 0 -63.5 -11.833 -94.5 -35.5s-48.833 -54.5 -53.5 -92.5l-24 -200c-6 -48 -4.66699 -80 4 -96h-64c-8.66699 16 -10 48 -4 96l25 204
c4.66699 38.667 -1.33301 69 -18 91s-41.667 33 -75 33c-32 0 -63.5 -11.833 -94.5 -35.5s-48.833 -54.5 -53.5 -92.5l-36 -296h-64l59 480h64l-8 -64c42 48 89.667 72 143 72c70.667 0 115.667 -28 135 -84c48.667 56 105 84 169 84c55.333 0 95.5 -16 120.5 -48
s33.167 -84 24.5 -156z" />
    <glyph glyph-name="n" unicode="n" horiz-adv-x="544" 
d="M459 96c-6 -48 -4.66504 -79.999 4.00195 -95.999h-64c-8.66699 16 -10 48 -4 96l23 188c10.667 93.333 -26.333 140 -111 140c-40 0 -78.333 -13.333 -115 -40s-57.667 -61.334 -63 -104.001l-34 -280h-64l59 480h64l-9 -74c16 21.333 40 40.333 72 57s64 25 96 25
c67.333 0 114.166 -18.5 140.499 -55.5s35.166 -91.833 26.499 -164.5z" />
    <glyph glyph-name="o" unicode="o" horiz-adv-x="576" 
d="M307 488c68.667 0 124.169 -24.167 166.502 -72.5s59.166 -106.833 50.499 -175.5s-40 -127.167 -94 -175.5s-115.333 -72.5 -184 -72.5s-124.334 24.167 -167.001 72.5s-59.667 106.833 -51 175.5s40.167 127.167 94.5 175.5s115.833 72.5 184.5 72.5zM254.002 56
c50 0 95.333 18.167 136 54.5s64 79.5 70 129.5s-6.83301 93.167 -38.5 129.5s-72.5 54.5 -122.5 54.5s-95.5 -18.167 -136.5 -54.5s-64.5 -79.5 -70.5 -129.5s7 -93.167 39 -129.5s73 -54.5 123 -54.5z" />
    <glyph glyph-name="p" unicode="p" horiz-adv-x="608" 
d="M154 480l-10.998 -85.001c53.333 62 118.666 93 195.999 93c68.667 0 124.167 -24.167 166.5 -72.5s59.166 -106.833 50.499 -175.5s-40 -127.167 -94 -175.5s-115.333 -72.5 -184 -72.5c-38 0 -72 8.33301 -102 25s-53.667 39.334 -71 68.001l-42 -341h-64l91 736h64z
M286.002 55.999c51.333 0 96.9971 18 136.997 54s63 79.333 69 130c6.66699 50.667 -5.66602 94 -36.999 130s-72.666 54 -123.999 54c-50.667 0 -96.167 -17.833 -136.5 -53.5s-63.833 -79.167 -70.5 -130.5c-6 -51.333 6.83301 -94.833 38.5 -130.5
s72.834 -53.5 123.501 -53.5z" />
    <glyph glyph-name="q" unicode="q" horiz-adv-x="608" 
d="M475 -160c-6 -48 -4.66504 -80 4.00195 -96h-64c-8.66699 16 -10 48 -4 96l30 245c-53.333 -62 -118.333 -93 -195 -93c-68.667 0 -124.334 24.167 -167.001 72.5s-59.667 106.833 -51 175.5s40.167 127.167 94.5 175.5s115.833 72.5 184.5 72.5
c77.333 0 134.666 -31 171.999 -93l11 85h64zM254.002 56c51.333 0 96.9971 18 136.997 54s63 79.333 69 130c6.66699 50.667 -5.66602 94 -36.999 130s-72.666 54 -123.999 54c-50.667 0 -96.167 -17.833 -136.5 -53.5s-63.833 -79.167 -70.5 -130.5
c-6 -51.333 6.83301 -94.833 38.5 -130.5s72.834 -53.5 123.501 -53.5z" />
    <glyph glyph-name="r" unicode="r" horiz-adv-x="384" 
d="M141 377c20.667 34 51.334 61 92.001 81s84 30 130 30l-9 -73c-34.667 8 -68.334 6.66699 -101.001 -4c-33.333 -11.333 -61.833 -32.833 -85.5 -64.5s-38.5 -70.5 -44.5 -116.5l-28 -230h-64l59 480h64z" />
    <glyph glyph-name="s" unicode="s" horiz-adv-x="448" 
d="M240 280c59.333 -12.667 99.1689 -30.999 119.502 -54.999s28.166 -54.333 23.499 -91c-4.66699 -38.667 -24.5 -72 -59.5 -100s-79.833 -42 -134.5 -42c-42.667 0 -80.667 7.66699 -114 23s-56.333 30.333 -69 45l35 58c15.333 -18.667 37.333 -33.5 66 -44.5
s58 -16.833 88 -17.5c30.667 -0.666992 58.167 5.5 82.5 18.5s38.166 31.833 41.499 56.5c2.66699 23.333 -5.5 41.666 -24.5 54.999s-44.167 23.333 -75.5 30c-67.333 13.333 -112 30.666 -134 51.999s-31 50.333 -27 87c5.33301 40 25.666 72.167 60.999 96.5
s80 36.5 134 36.5c56 0 106.667 -15.333 152 -46l-31 -58c-10 8.66699 -27.667 17.334 -53 26.001s-50.333 13.334 -75 14.001c-76.667 2 -118 -21.333 -124 -70c-1.33301 -10.667 1.33398 -20.334 8.00098 -29.001s17 -15.834 31 -21.501s26.5 -10.167 37.5 -13.5
s24.833 -6.66602 41.5 -9.99902z" />
    <glyph glyph-name="t" unicode="t" horiz-adv-x="320" 
d="M82 157l32.002 259.001h-64l8 64h64l23 192h64l-23 -192h96l-8 -64h-96l-33 -264c-5.33301 -46 -2.33301 -73.667 9 -83c20 -16 45.667 -16.667 77 -2l-8 -65c-18.667 -6.66699 -37.334 -10 -56.001 -10c-28.667 0 -50.334 7.5 -65.001 22.5s-22.5 34.667 -23.5 59
s0.166992 52.166 3.5 83.499z" />
    <glyph glyph-name="u" unicode="u" horiz-adv-x="544" 
d="M447 0l-63.999 -0.000976562c-8.66699 15.333 -11 39.666 -7 72.999c-16 -21.333 -40.167 -40.166 -72.5 -56.499s-64.166 -24.5 -95.499 -24.5c-67.333 0 -114.333 18.5 -141 55.5s-35.334 91.833 -26.001 164.5l33 268h64l-35 -284c-12 -93.333 25 -140 111 -140
c40 0 78.167 13.333 114.5 40s57.166 61.334 62.499 104.001l35 280h64l-47 -384c-6 -48 -4.66699 -80 4 -96z" />
    <glyph glyph-name="v" unicode="v" horiz-adv-x="480" 
d="M197 -16l-171 496h72l116 -352l204 352h72z" />
    <glyph glyph-name="w" unicode="w" horiz-adv-x="752" 
d="M682 480h72l-277 -496l-101 354l-187 -354l-155 496h72l102 -338l188 354l100 -354z" />
    <glyph glyph-name="x" unicode="x" 
d="M277 255l154 -255h-78l-121 203l-171 -203h-78l216 255l-142 225h78l109 -180l153 180h78z" />
    <glyph glyph-name="y" unicode="y" horiz-adv-x="480" 
d="M415 480h75l-416 -736h-73l163 286l-138 450h75l111 -368z" />
    <glyph glyph-name="z" unicode="z" horiz-adv-x="464" 
d="M367 0h-368l319 416h-252l8 64h368l-321 -416h254z" />
    <glyph glyph-name="braceleft" unicode="{" horiz-adv-x="336" 
d="M168 -58c-1.33301 -16.667 -1.83301 -31.999 -1.5 -45.999s4.83301 -26.5 13.5 -37.5s21.667 -18.5 39 -22.5l-32 -60c-31.333 10.667 -53.833 25 -67.5 43s-20.167 38.333 -19.5 61s2.66699 48.667 6 78l28 234c3.33301 26.667 -4.33398 50.5 -23.001 71.5
s-38.334 34.5 -59.001 40.5c22.667 6 45.834 19.667 69.501 41s37.167 45 40.5 71l29 234c2.66699 21.333 5 37.833 7 49.5s5.66699 25.5 11 41.5s12.166 28.667 20.499 38s19.833 18.833 34.5 28.5s32.334 17.834 53.001 24.501l17 -60c-45.333 -10 -71 -45.333 -77 -106
l-27 -216c-9.33301 -78.667 -37.666 -127.334 -84.999 -146.001c42 -18.667 58.333 -67.334 49 -146.001z" />
    <glyph glyph-name="bar" unicode="|" horiz-adv-x="192" 
d="M47 -256h-48l126 1024h48z" />
    <glyph glyph-name="braceright" unicode="}" horiz-adv-x="336" 
d="M72 -58l26.0049 216c9.33301 78 37.666 126.667 84.999 146c-42 19.333 -58.333 68 -49 146l27 216c1.33301 16.667 1.66602 32 0.999023 46s-5.33398 26.5 -14.001 37.5s-21.334 18.5 -38.001 22.5l31 60c31.333 -10.667 53.833 -25 67.5 -43s20.167 -38.333 19.5 -61
s-2.33398 -48.667 -5.00098 -78l-29 -234c-3.33301 -26.667 4.33398 -50.5 23.001 -71.5s38.334 -34.5 59.001 -40.5c-22.667 -6 -45.834 -19.667 -69.501 -41s-37.167 -45 -40.5 -71l-28 -234c-2.66699 -22 -5 -38.5 -7 -49.5s-5.83301 -24.667 -11.5 -41
s-12.667 -29.166 -21 -38.499s-19.833 -18.833 -34.5 -28.5s-32.334 -17.834 -53.001 -24.501l-16 60c26 6 44.5 18 55.5 36s18.167 41.333 21.5 70z" />
    <glyph glyph-name="asciitilde" unicode="~" horiz-adv-x="488" 
d="M376 336l53 -26.999c-18 -27.333 -36.667 -45.666 -56 -54.999s-41.333 -14 -66 -14c-18 0 -52 10 -102 30c-23.333 9.33301 -43.5 11.833 -60.5 7.5s-31.833 -16.833 -44.5 -37.5l-52 27c18 27.333 36.5 45.666 55.5 54.999s40.833 14 65.5 14
c6.66699 0 15.167 -1.33301 25.5 -4s19.166 -5.16699 26.499 -7.5s16.833 -5.83301 28.5 -10.5s18.834 -7.33398 21.501 -8.00098c23.333 -9.33301 43.5 -11.833 60.5 -7.5s31.833 16.833 44.5 37.5z" />
    <glyph glyph-name="exclamdown" unicode="&#xa1;" horiz-adv-x="272" 
d="M155 488c18 0 32.334 -6.16699 43.001 -18.5s15 -27.5 13 -45.5c-2.66699 -18 -10.834 -33.167 -24.501 -45.5s-29.5 -18.5 -47.5 -18.5s-32.5 6.16699 -43.5 18.5s-15.167 27.5 -12.5 45.5c2 18 10 33.167 24 45.5s30 18.5 48 18.5zM106.001 288h48l-35 -480h-96z" />
    <glyph glyph-name="cent" unicode="&#xa2;" 
d="M401 104l18.998 -57.999c-40.667 -34 -92 -52 -154 -54l-9 -72h-40l9 73c-70 6 -122.5 32.167 -157.5 78.5s-48.5 102.5 -40.5 168.5c8 65.333 35.5 121.166 82.5 167.499s105.833 72.833 176.5 79.5l9 73h40l-9 -72c58.667 -2 106 -18.667 142 -50l-36 -58
c-29.333 29.333 -70.666 44 -123.999 44c-58 0 -107 -17.667 -147 -53s-63.333 -79 -70 -131c-6 -52.667 6.5 -96.5 37.5 -131.5s75.833 -52.5 134.5 -52.5c50.667 0 96.334 16 137.001 48z" />
    <glyph glyph-name="sterling" unicode="&#xa3;" horiz-adv-x="560" 
d="M440 120l49.9971 -31.999c-38 -64 -91 -96 -159 -96c-27.333 0 -57.333 7.66699 -90 23c-23.333 13.333 -53.333 19.666 -90 18.999s-63.334 -12 -80.001 -34l-62 80c3.33301 6.66699 8.5 13.834 15.5 21.501s12 12.667 15 15l24.5 19.5
c20 15.333 34.833 34.833 44.5 58.5s14.167 45 13.5 64s-1 36.833 -1 53.5h-84l6 48h70c-8 51.333 -10 94 -6 128c6.66699 51.333 31.167 96.166 73.5 134.499s94.833 57.5 157.5 57.5c40.667 0 74.334 -6.16699 101.001 -18.5s53.667 -32.833 81 -61.5l-40 -50
c-38.667 44 -85.667 66 -141 66c-41.333 0 -78.333 -10.667 -111 -32s-51.667 -53 -57 -95c-2 -8.66699 -2.66699 -20.834 -2 -36.501s1.5 -27.5 2.5 -35.5l4 -32c1.66699 -13.333 2.83398 -21.666 3.50098 -24.999h184l-6 -48h-170
c7.33301 -100.667 -24.667 -176.667 -96 -228c47.333 12 83 15.833 107 11.5s50.333 -12 79 -23s49.334 -16.5 62.001 -16.5c42.667 0 76.334 21.333 101.001 64z" />
    <glyph glyph-name="currency" unicode="&#xa4;" horiz-adv-x="498" 
d="M383 320c-4 -30 -15.668 -56.334 -35.001 -79.001l72 -81l-35 -33l-73 81c-25.333 -16 -52.333 -24 -81 -24c-30 0 -55.667 8.66699 -77 26l-93 -83l-27 33l91 82c-13.333 24 -18 50 -14 78c4 29.333 15.333 55.333 34 78l-71 84l37 31l70 -82c26 16.667 54 25 84 25
c28.667 0 54.334 -8.66699 77.001 -26l89 83l29 -31l-92 -83c14 -23.333 19 -49.666 15 -78.999zM257.999 407.999c-23.333 0 -44.833 -8.83301 -64.5 -26.5s-31.167 -38.167 -34.5 -61.5c-2.66699 -23.333 3.66602 -43.833 18.999 -61.5s34.666 -26.5 57.999 -26.5
s44.833 8.83301 64.5 26.5s31.167 38.167 34.5 61.5c2.66699 23.333 -3.66602 43.833 -18.999 61.5s-34.666 26.5 -57.999 26.5z" />
    <glyph glyph-name="yen" unicode="&#xa5;" horiz-adv-x="624" 
d="M625 672l-285 -368h112l-5 -40h-112l-9 -72h112l-5 -40h-112l-18 -152h-64l18 152h-112l5 40h112l9 72h-112l5 40h112l-195 368h72l162 -308l238 308h72z" />
    <glyph glyph-name="brokenbar" unicode="&#xa6;" horiz-adv-x="192" 
d="M130 416h-48l43 352h48zM47 -256h-48l44 352h48z" />
    <glyph glyph-name="section" unicode="&#xa7;" horiz-adv-x="592" 
d="M458 154c34 -30.667 47.001 -74.9971 39.001 -132.997c-6 -51.333 -34 -95.666 -84 -132.999s-109 -56 -177 -56c-35.333 0 -67.833 4.66699 -97.5 14s-53.334 20.833 -71.001 34.5s-31.167 25.5 -40.5 35.5s-15.666 18.333 -18.999 25l38 57
c19.333 -30 46 -54.5 80 -73.5s74 -28.5 120 -28.5c47.333 0 89.333 12.5 126 37.5s57.334 55.5 62.001 91.5c4 33.333 -5.33301 60.666 -28 81.999s-64.334 37.666 -125.001 48.999c-83.333 15.333 -139 37.833 -167 67.5s-39 68.834 -33 117.501
c6 51.333 31.667 94 77 128c-37.333 28 -52.666 70.667 -45.999 128c6 50.667 31.667 93.167 77 127.5s101.666 51.5 168.999 51.5c80.667 0 144 -26.667 190 -80l-37 -55c-15.333 20 -37 36.833 -65 50.5s-60.333 20.5 -97 20.5c-45.333 0 -84.333 -9.83301 -117 -29.5
s-51 -46.834 -55 -81.501c-4.66699 -34 4.83301 -60.333 28.5 -79s64.167 -34 121.5 -46c80.667 -16.667 136.167 -39.834 166.5 -69.501s42.166 -72.834 35.499 -129.501c-6 -46 -29.667 -87 -71 -123zM145.001 345.003c-4 -34 5.83496 -60.335 29.502 -79.002
s64.167 -34 121.5 -46c42 -8.66699 77.333 -19 106 -31c38 24.667 59 55.334 63 92.001c4 32.667 -5.33301 59.834 -28 81.501s-64.334 38.167 -125.001 49.5c-34.667 6.66699 -65.667 14.667 -93 24c-44.667 -20 -69.334 -50.333 -74.001 -91z" />
    <glyph glyph-name="dieresis" unicode="&#xa8;" horiz-adv-x="816" 
d="M377 736c-13.333 0 -24 4.66699 -32 14s-11.333 20.666 -10 33.999s7.33301 24.666 18 33.999s22.667 14 36 14s24 -4.66699 32 -14s11.333 -20.666 10 -33.999s-7.33301 -24.666 -18 -33.999s-22.667 -14 -36 -14zM537 736c-13.333 0 -24 4.66699 -32 14
s-11.333 20.666 -10 33.999s7.33301 24.666 18 33.999s22.667 14 36 14s24 -4.66699 32 -14s11.333 -20.666 10 -33.999s-7.33301 -24.666 -18 -33.999s-22.667 -14 -36 -14z" />
    <glyph glyph-name="copyright" unicode="&#xa9;" horiz-adv-x="664" 
d="M311 164c-77.333 0 -139.332 26.832 -185.999 80.499s-65.334 118.834 -56.001 195.501c9.33301 78 43.833 143.5 103.5 196.5s128.5 79.5 206.5 79.5s140.167 -26.5 186.5 -79.5s64.833 -118.5 55.5 -196.5s-43.833 -143.5 -103.5 -196.5s-128.5 -79.5 -206.5 -79.5z
M314.001 191.999c69.333 0 130.999 24.167 184.999 72.5s85.333 106.833 94 175.5s-8.16602 127.167 -50.499 175.5s-98.166 72.5 -167.499 72.5c-68.667 0 -130 -24 -184 -72s-85.333 -106.667 -94 -176s8.16602 -128 50.499 -176s97.833 -72 166.5 -72zM343 315.999
c32.667 0 61.998 11 87.998 33l7 -26c-26.667 -23.333 -59 -35 -97 -35c-42.667 0 -77.167 14.833 -103.5 44.5s-36.833 65.5 -31.5 107.5c4.66699 42 23.834 77.833 57.501 107.5s71.834 44.5 114.501 44.5c38 0 67.667 -11.667 89 -35l-14 -26c-20 22 -46.667 33 -80 33
c-34 0 -64.667 -12.167 -92 -36.5s-43 -53.5 -47 -87.5c-4.66699 -34 3.83301 -63.167 25.5 -87.5s49.5 -36.5 83.5 -36.5z" />
    <glyph glyph-name="ordfeminine" unicode="&#xaa;" horiz-adv-x="360" 
d="M313 672h31.999l-29 -240h-32l5 43c-26 -31.333 -58.667 -47 -98 -47c-34 0 -61.667 12.167 -83 36.5s-29.666 53.5 -24.999 87.5c4 34.667 19.667 64 47 88s58 36 92 36c40 0 68.667 -15.333 86 -46zM194.999 460c25.333 0 48.166 9 68.499 27s32.166 39.667 35.499 65
s-3 47 -19 65s-36.667 27 -62 27s-48.166 -9 -68.499 -27s-31.833 -39.667 -34.5 -65c-3.33301 -25.333 2.83398 -47 18.501 -65s36.167 -27 61.5 -27z" />
    <glyph glyph-name="guillemotleft" unicode="&#xab;" horiz-adv-x="592" 
d="M298 480l-187 -216l134 -216h-64l-134 216l187 216h64zM522 480l-187 -216l134 -216h-64l-134 216l187 216h64z" />
    <glyph glyph-name="logicalnot" unicode="&#xac;" horiz-adv-x="592" 
d="M535 328l-27 -216h-48l21 168h-432l6 48h480z" />
    <glyph glyph-name="registered" unicode="&#xae;" horiz-adv-x="696" 
d="M327 164c-77.333 0 -139.332 26.832 -185.999 80.499s-65.334 118.834 -56.001 195.501c9.33301 78 43.833 143.5 103.5 196.5s128.5 79.5 206.5 79.5s140.167 -26.5 186.5 -79.5s64.833 -118.5 55.5 -196.5s-43.833 -143.5 -103.5 -196.5s-128.5 -79.5 -206.5 -79.5z
M330.001 191.999c69.333 0 130.999 24.167 184.999 72.5s85.333 106.833 94 175.5s-8.16602 127.167 -50.499 175.5s-98.166 72.5 -167.499 72.5c-68.667 0 -130 -24 -184 -72s-85.333 -106.667 -94 -176s8.16602 -128 50.499 -176s97.833 -72 166.5 -72zM456 289.999
l-34.001 0.00195312l-68 107h-64l-13 -107h-29l37 300h86c38 0 65.5 -8.33301 82.5 -25s23.833 -39.667 20.5 -69c-3.33301 -24.667 -12.666 -45.834 -27.999 -63.501s-35 -28.834 -59 -33.501zM310.999 561.001l-17.002 -135h71c48 0 74.667 22.333 80 67
c2.66699 23.333 -2.16602 40.5 -14.499 51.5s-29.166 16.5 -50.499 16.5h-69z" />
    <glyph glyph-name="macron" unicode="&#xaf;" horiz-adv-x="816" 
d="M587 752h-256l6 48h256z" />
    <glyph glyph-name="degree" unicode="&#xb0;" horiz-adv-x="384" 
d="M202 408c-38.667 0 -69.5 13.167 -92.5 39.5s-32.167 58.5 -27.5 96.5s21.667 70.167 51 96.5s63.333 39.5 102 39.5c37.333 0 67.666 -13.167 90.999 -39.5s32.666 -58.5 27.999 -96.5c-5.33301 -38 -22.666 -70.167 -51.999 -96.5s-62.666 -39.5 -99.999 -39.5z
M207 456c23.333 0 44.8359 8.83301 64.5029 26.5s31.167 38.167 34.5 61.5c2.66699 23.333 -3.83301 43.833 -19.5 61.5s-35.167 26.5 -58.5 26.5s-44.833 -8.83301 -64.5 -26.5s-30.834 -38.167 -33.501 -61.5s3.66602 -43.833 18.999 -61.5s34.666 -26.5 57.999 -26.5z
" />
    <glyph glyph-name="plusminus" unicode="&#xb1;" horiz-adv-x="464" 
d="M422 448l-6 -48h-152l-19 -152h-48l19 152h-152l6 48h152l18 152h48l-18 -152h152zM28 104h352l-6 -48h-352z" />
    <glyph glyph-name="uni00B2" unicode="&#xb2;" horiz-adv-x="352" 
d="M103 652c5.33301 28.667 19.001 53.1641 41.001 73.4971s48.667 30.5 80 30.5s56 -9.5 74 -28.5s25 -44.167 21 -75.5c-3.33301 -24.667 -11.5 -46.167 -24.5 -64.5s-34.167 -40.166 -63.5 -65.499l-86 -74h165l-4 -32h-240l151 133c42.667 38 65.667 71.333 69 100
c2.66699 22.667 -2 40.834 -14 54.501s-29.333 20.5 -52 20.5c-23.333 0 -42.333 -7.16699 -57 -21.5s-24.334 -33.166 -29.001 -56.499z" />
    <glyph glyph-name="uni00B3" unicode="&#xb3;" horiz-adv-x="344" 
d="M256 593c18 -3.33301 32.167 -12.333 42.5 -27s14.166 -31.667 11.499 -51c-3.33301 -27.333 -16.666 -51.333 -39.999 -72s-53 -31 -89 -31c-34 0 -60 9.5 -78 28.5s-26.333 44.167 -25 75.5l32 6c0 -52 26 -78 78 -78c25.333 0 46.166 7 62.499 21s25.5 29.667 27.5 47
c2.66699 21.333 -5 37 -23 47s-42.667 15 -74 15l4 32c24 0.666992 46.667 5.66699 68 15s33 23.666 35 42.999c2.66699 18.667 -2.16602 33.334 -14.499 44.001s-29.166 16 -50.499 16c-50.667 0 -80.667 -24.667 -90 -74l-30 6c6 29.333 19.5 53.333 40.5 72
s47.833 28 80.5 28c34.667 0 60.167 -9.16699 76.5 -27.5s23.166 -38.5 20.499 -60.5c-5.33301 -36.667 -27 -61.667 -65 -75z" />
    <glyph glyph-name="acute" unicode="&#xb4;" horiz-adv-x="816" 
d="M393 736l96 128h80l-128 -128h-48z" />
    <glyph glyph-name="paragraph" unicode="&#xb6;" horiz-adv-x="608" 
d="M587 624h-95.999l-104 -852h-48l104 852h-160l-104 -852h-48l73 599c-41.333 0 -73.833 14.667 -97.5 44s-32.834 65.333 -27.501 108c5.33301 41.333 23.333 76.5 54 105.5s66.667 43.5 108 43.5h352z" />
    <glyph glyph-name="periodcentered" unicode="&#xb7;" horiz-adv-x="240" 
d="M112 272c-18 0 -32.333 6.16699 -43 18.5s-15 27.5 -13 45.5s10 33.167 24 45.5s30 18.5 48 18.5s32.333 -6.16699 43 -18.5s15 -27.5 13 -45.5s-10 -33.167 -24 -45.5s-30 -18.5 -48 -18.5z" />
    <glyph glyph-name="cedilla" unicode="&#xb8;" horiz-adv-x="816" 
d="M335 0l63.998 -0.000976562l-53 -51c42 10 76.5 3.83301 103.5 -18.5s38.167 -52.5 33.5 -90.5c-5.33301 -41.333 -23.666 -75.666 -54.999 -102.999s-69.333 -41 -114 -41c-52.667 0 -90.334 21 -113.001 63l49 41c11.333 -32 37.333 -48 78 -48
c28 0 52.167 8.83301 72.5 26.5s31.833 38.5 34.5 62.5c2.66699 20 -2.66602 36.833 -15.999 50.5s-31.666 20.5 -54.999 20.5c-24.667 0 -48 -8 -70 -24l-26 48z" />
    <glyph glyph-name="uni00B9" unicode="&#xb9;" horiz-adv-x="312" 
d="M153 732l92 36l-42 -344h-32l36 298l-58 -21z" />
    <glyph glyph-name="ordmasculine" unicode="&#xba;" horiz-adv-x="360" 
d="M222 676c34.667 0 62.499 -12 83.499 -36s29.5 -53.333 25.5 -88c-4.66699 -34 -20.5 -63.167 -47.5 -87.5s-57.833 -36.5 -92.5 -36.5c-34 0 -61.667 12.167 -83 36.5s-29.666 53.5 -24.999 87.5c4 34.667 19.667 64 47 88s58 36 92 36zM194.999 460
c24.667 0 47.3311 9 67.998 27s32.667 39.667 36 65c2.66699 24.667 -3.83301 46.167 -19.5 64.5s-36.167 27.5 -61.5 27.5c-24.667 0 -47.167 -9 -67.5 -27s-32.166 -39.667 -35.499 -65c-3.33301 -24.667 2.83398 -46.167 18.501 -64.5s36.167 -27.5 61.5 -27.5z" />
    <glyph glyph-name="guillemotright" unicode="&#xbb;" horiz-adv-x="592" 
d="M106 480h64l133 -216l-186 -216h-64l186 216zM330 480h64l133 -216l-186 -216h-64l186 216z" />
    <glyph glyph-name="onequarter" unicode="&#xbc;" horiz-adv-x="876" 
d="M142 644l92 36l-42 -344h-32l37 298l-59 -21zM175 0h-48l550 672h48zM751 96h40l-4 -32h-40l-8 -64h-32l8 64h-184l250 280zM719 96l19 160l-141 -160h122z" />
    <glyph glyph-name="onehalf" unicode="&#xbd;" horiz-adv-x="892" 
d="M142 644l92 36l-42 -344h-32l37 298l-59 -21zM175 0h-48l550 672h48zM592 236c5.33301 28.667 18.835 53.1641 40.502 73.4971s48.167 30.5 79.5 30.5s56.166 -9.5 74.499 -28.5s25.5 -44.167 21.5 -75.5c-3.33301 -24.667 -11.5 -46.167 -24.5 -64.5
s-34.167 -40.166 -63.5 -65.499l-86 -74h165l-4 -32h-240l151 133c42.667 38 65.667 71.333 69 100c2.66699 22.667 -2 40.834 -14 54.501s-29.333 20.5 -52 20.5c-23.333 0 -42.333 -7.16699 -57 -21.5s-24.334 -33.166 -29.001 -56.499z" />
    <glyph glyph-name="threequarters" unicode="&#xbe;" horiz-adv-x="908" 
d="M246 513c18 -3.33301 32.168 -12.333 42.501 -27s14.166 -31.667 11.499 -51c-3.33301 -27.333 -16.5 -51.333 -39.5 -72s-52.5 -31 -88.5 -31c-34 0 -60.167 9.66699 -78.5 29s-26.833 44.333 -25.5 75l32 6c0 -52 26 -78 78 -78c25.333 0 46.166 7 62.499 21
s25.5 29.667 27.5 47c2.66699 21.333 -5 37 -23 47s-42.667 15 -74 15l4 32c24 0.666992 46.667 5.66699 68 15s33 23.666 35 42.999c2.66699 18.667 -2.16602 33.334 -14.499 44.001s-29.166 16 -50.499 16c-49.333 0 -79.333 -24.667 -90 -74l-30 6
c6 29.333 19.5 53.333 40.5 72s47.833 28 80.5 28c34.667 0 60.167 -9.16699 76.5 -27.5s23.166 -38.5 20.499 -60.5c-5.33301 -36.667 -27 -61.667 -65 -75zM207.001 0h-48l550 672h48zM783.001 96h40l-4 -32h-40l-8 -64h-32l8 64h-184l250 280zM751.001 96l19 160
l-141 -160h122z" />
    <glyph glyph-name="questiondown" unicode="&#xbf;" horiz-adv-x="512" 
d="M267 360c-18 0 -32.499 6.16699 -43.499 18.5s-15.167 27.5 -12.5 45.5c2 18 10 33.167 24 45.5s30 18.5 48 18.5s32.333 -6.16699 43 -18.5s15 -27.5 13 -45.5c-2.66699 -18 -10.834 -33.167 -24.501 -45.5s-29.5 -18.5 -47.5 -18.5zM198.001 -200
c-35.333 0 -66 5.83203 -92 17.499s-45.833 27 -59.5 46s-23.167 39.5 -28.5 61.5s-6.66602 44.333 -3.99902 67c2.66699 20.667 8.66699 40.167 18 58.5s22.166 35.333 38.499 51s30.333 28 42 37s27.5 20.167 47.5 33.5c24 16.667 40.167 33 48.5 49s14.5 38.333 18.5 67
h61c-6 -62.667 -30.333 -110 -73 -142l-35 -24c-16.667 -11.333 -29 -20.166 -37 -26.499s-17.5 -15 -28.5 -26s-19.333 -22.833 -25 -35.5s-9.5 -26.667 -11.5 -42c-4.66699 -36 4.5 -66.333 27.5 -91s56.167 -37 99.5 -37c67.333 0 120 28.667 158 86l40 -46
c-54 -69.333 -122.333 -104 -205 -104z" />
    <glyph glyph-name="Agrave" unicode="&#xc0;" horiz-adv-x="656" 
d="M425 736h-48l-96 128h80zM535 0l-49 144h-364l-83 -144h-72l404 688l236 -688h-72zM159 208h306l-111 336z" />
    <glyph glyph-name="Aacute" unicode="&#xc1;" horiz-adv-x="656" 
d="M329 736l96 128h80l-128 -128h-48zM535 0l-49 144h-364l-83 -144h-72l404 688l236 -688h-72zM159 208h306l-111 336z" />
    <glyph glyph-name="Acircumflex" unicode="&#xc2;" horiz-adv-x="656" 
d="M446 736l-60 72l-78 -72h-75l161 136l127 -136h-75zM535 0l-49 144h-364l-83 -144h-72l404 688l236 -688h-72zM159 208h306l-111 336z" />
    <glyph glyph-name="Atilde" unicode="&#xc3;" horiz-adv-x="656" 
d="M496 819l48.998 -15.001c-27.333 -45.333 -63.333 -68 -108 -68c-14 0 -36 6 -66 18c-45.333 20.667 -79.666 14.667 -102.999 -18l-49 17c29.333 44 66 66 110 66c12.667 0 33.334 -5.66699 62.001 -17c22 -11.333 42 -16.166 60 -14.499s33 12.167 45 31.5z
M534.998 -0.000976562l-49 144h-364l-83 -144h-72l404 688l236 -688h-72zM158.998 207.999h306l-111 336z" />
    <glyph glyph-name="Adieresis" unicode="&#xc4;" horiz-adv-x="656" 
d="M297 736c-13.333 0 -24 4.66699 -32 14s-11.333 20.666 -10 33.999s7.33301 24.666 18 33.999s22.667 14 36 14s24 -4.66699 32 -14s11.333 -20.666 10 -33.999s-7.33301 -24.666 -18 -33.999s-22.667 -14 -36 -14zM457 736c-13.333 0 -24 4.66699 -32 14
s-11.333 20.666 -10 33.999s7.33301 24.666 18 33.999s22.667 14 36 14s24 -4.66699 32 -14s11.333 -20.666 10 -33.999s-7.33301 -24.666 -18 -33.999s-22.667 -14 -36 -14zM535 0l-49 144h-364l-83 -144h-72l404 688l236 -688h-72zM159 208h306l-111 336z" />
    <glyph glyph-name="Aring" unicode="&#xc5;" horiz-adv-x="656" 
d="M401 928c28.667 0 51.834 -10 69.501 -30s24.834 -44.667 21.501 -74c-3.33301 -28.667 -16.333 -53.167 -39 -73.5s-48.667 -30.5 -78 -30.5c-28.667 0 -51.834 10 -69.501 30s-24.834 44.667 -21.501 74c3.33301 28.667 16.333 53.167 39 73.5s48.667 30.5 78 30.5z
M381 768c15.333 0 29.166 5.5 41.499 16.5s19.5 24.167 21.5 39.5s-1.83301 28.5 -11.5 39.5s-22.167 16.5 -37.5 16.5s-29.166 -5.5 -41.499 -16.5s-19.5 -24.167 -21.5 -39.5s1.83301 -28.5 11.5 -39.5s22.167 -16.5 37.5 -16.5zM535 0l-49 144h-364l-83 -144h-72l404 688
l236 -688h-72zM159 208h306l-111 336z" />
    <glyph glyph-name="AE" unicode="&#xc6;" horiz-adv-x="784" 
d="M761 608h-304l-29 -240h256l-8 -64h-256l-29 -240h304l-8 -64h-368l17 144h-206l-91 -144h-72l434 672h368zM171 208h173l42 336z" />
    <glyph glyph-name="Ccedilla" unicode="&#xc7;" horiz-adv-x="640" 
d="M567 71c-54 -46 -120.003 -72.001 -198.003 -78.001l-47 -44c42 10 76.5 3.83301 103.5 -18.5s38.167 -52.5 33.5 -90.5c-5.33301 -41.333 -23.666 -75.666 -54.999 -102.999s-69.333 -41 -114 -41c-52.667 0 -90.334 21 -113.001 63l49 41c11.333 -32 37.333 -48 78 -48
c28 0 52.167 8.83301 72.5 26.5s31.833 38.5 34.5 62.5c2.66699 20 -2.66602 36.833 -15.999 50.5s-31.666 20.5 -54.999 20.5c-24.667 0 -48 -8 -70 -24l-26 48l62 58c-86 10 -154.5 47.5 -205.5 112.5s-71.167 141.5 -60.5 229.5
c11.333 94.667 55.166 175.667 131.499 243s162.5 101 258.5 101c37.333 0 74.5 -7 111.5 -21s67.5 -33.333 91.5 -58l-34 -58c-46.667 48.667 -107 73 -181 73c-77.333 0 -146.666 -27.333 -207.999 -82s-96.666 -120.667 -105.999 -198s10 -143.333 58 -198
s110.667 -82 188 -82c74.667 0 141 24.333 199 73z" />
    <glyph glyph-name="Egrave" unicode="&#xc8;" 
d="M369 736h-48l-96 128h80zM473 608h-304l-29 -240h256l-8 -64h-256l-29 -240h304l-8 -64h-368l82 672h368z" />
    <glyph glyph-name="Eacute" unicode="&#xc9;" 
d="M241 736l96 128h80l-128 -128h-48zM473 608h-304l-29 -240h256l-8 -64h-256l-29 -240h304l-8 -64h-368l82 672h368z" />
    <glyph glyph-name="Ecircumflex" unicode="&#xca;" 
d="M366 736l-60 72l-78 -72h-75l161 136l127 -136h-75zM473 608h-304l-29 -240h256l-8 -64h-256l-29 -240h304l-8 -64h-368l82 672h368z" />
    <glyph glyph-name="Edieresis" unicode="&#xcb;" 
d="M217 736c-13.333 0 -24 4.66699 -32 14s-11.333 20.666 -10 33.999s7.33301 24.666 18 33.999s22.667 14 36 14s24 -4.66699 32 -14s11.333 -20.666 10 -33.999s-7.33301 -24.666 -18 -33.999s-22.667 -14 -36 -14zM377 736c-13.333 0 -24 4.66699 -32 14
s-11.333 20.666 -10 33.999s7.33301 24.666 18 33.999s22.667 14 36 14s24 -4.66699 32 -14s11.333 -20.666 10 -33.999s-7.33301 -24.666 -18 -33.999s-22.667 -14 -36 -14zM473 608h-304l-29 -240h256l-8 -64h-256l-29 -240h304l-8 -64h-368l82 672h368z" />
    <glyph glyph-name="Igrave" unicode="&#xcc;" horiz-adv-x="208" 
d="M185 736h-48l-96 128h80zM31 0l82 672h64l-82 -672h-64z" />
    <glyph glyph-name="Iacute" unicode="&#xcd;" horiz-adv-x="208" 
d="M121 736l96 128h80l-128 -128h-48zM95 0h-64l82 672h64z" />
    <glyph glyph-name="Icircumflex" unicode="&#xce;" horiz-adv-x="208" 
d="M222 736l-60 72l-78 -72h-75l161 136l127 -136h-75zM95 0h-64l82 672h64z" />
    <glyph glyph-name="Idieresis" unicode="&#xcf;" horiz-adv-x="208" 
d="M73 736c-13.333 0 -24 4.66699 -32 14s-11.333 20.666 -10 33.999s7.33301 24.666 18 33.999s22.667 14 36 14s24 -4.66699 32 -14s11.333 -20.666 10 -33.999s-7.33301 -24.666 -18 -33.999s-22.667 -14 -36 -14zM233 736c-13.333 0 -24 4.66699 -32 14
s-11.333 20.666 -10 33.999s7.33301 24.666 18 33.999s22.667 14 36 14s24 -4.66699 32 -14s11.333 -20.666 10 -33.999s-7.33301 -24.666 -18 -33.999s-22.667 -14 -36 -14zM95 0h-64l82 672h64z" />
    <glyph glyph-name="Eth" unicode="&#xd0;" horiz-adv-x="656" 
d="M314 672c108 0 188.333 -31.667 241 -95s73 -143.666 61 -240.999c-12 -96.667 -52.5 -176.834 -121.5 -240.501s-156.5 -95.5 -262.5 -95.5h-185l38 312h-64l6 48h64l38 312h185zM246 64c83.333 0 152.833 25.333 208.5 76s88.167 116 97.5 196s-7.5 145.333 -50.5 196
s-106.167 76 -189.5 76h-127l-30 -248h64l-6 -48h-64l-30 -248h127z" />
    <glyph glyph-name="Ntilde" unicode="&#xd1;" horiz-adv-x="672" 
d="M504 819l48.999 -15.001c-27.333 -45.333 -63.333 -68 -108 -68c-14 0 -36 6 -66 18c-45.333 20.667 -79.666 14.667 -102.999 -18l-49 17c29.333 44 66 66 110 66c13.333 0 34 -5.66699 62 -17c22 -11.333 42 -16.166 60 -14.499s33 12.167 45 31.5zM556.999 -16.001
l-398 536l-64 -520h-64l84 688l398 -536l64 520h64z" />
    <glyph glyph-name="Ograve" unicode="&#xd2;" horiz-adv-x="768" 
d="M481 736h-48l-96 128h80zM426 680c94.667 0 171.5 -33.5 230.5 -100.5s82.833 -148.167 71.5 -243.5c-11.333 -94.667 -54.666 -175.667 -129.999 -243s-160.666 -101 -255.999 -101c-94.667 0 -171.5 33.5 -230.5 100.5s-82.833 148.167 -71.5 243.5
c11.333 94.667 54.666 175.667 129.999 243s160.666 101 255.999 101zM350 56c78 0 147.5 27.167 208.5 81.5s96.167 120.5 105.5 198.5s-9.83398 144.167 -57.501 198.5s-110.5 81.5 -188.5 81.5s-147.5 -27.167 -208.5 -81.5s-96.167 -120.5 -105.5 -198.5
s9.83398 -144.167 57.501 -198.5s110.5 -81.5 188.5 -81.5z" />
    <glyph glyph-name="Oacute" unicode="&#xd3;" horiz-adv-x="768" 
d="M385 736l96 128h80l-128 -128h-48zM426 680c94.667 0 171.5 -33.5 230.5 -100.5s82.833 -148.167 71.5 -243.5c-11.333 -94.667 -54.666 -175.667 -129.999 -243s-160.666 -101 -255.999 -101c-94.667 0 -171.5 33.5 -230.5 100.5s-82.833 148.167 -71.5 243.5
c11.333 94.667 54.666 175.667 129.999 243s160.666 101 255.999 101zM350 56c78 0 147.5 27.167 208.5 81.5s96.167 120.5 105.5 198.5s-9.83398 144.167 -57.501 198.5s-110.5 81.5 -188.5 81.5s-147.5 -27.167 -208.5 -81.5s-96.167 -120.5 -105.5 -198.5
s9.83398 -144.167 57.501 -198.5s110.5 -81.5 188.5 -81.5z" />
    <glyph glyph-name="Ocircumflex" unicode="&#xd4;" horiz-adv-x="768" 
d="M502 736l-60 72l-78 -72h-75l161 136l127 -136h-75zM426 680c94.667 0 171.5 -33.5 230.5 -100.5s82.833 -148.167 71.5 -243.5c-11.333 -94.667 -54.666 -175.667 -129.999 -243s-160.666 -101 -255.999 -101c-94.667 0 -171.5 33.5 -230.5 100.5
s-82.833 148.167 -71.5 243.5c11.333 94.667 54.666 175.667 129.999 243s160.666 101 255.999 101zM350 56c78 0 147.5 27.167 208.5 81.5s96.167 120.5 105.5 198.5s-9.83398 144.167 -57.501 198.5s-110.5 81.5 -188.5 81.5s-147.5 -27.167 -208.5 -81.5
s-96.167 -120.5 -105.5 -198.5s9.83398 -144.167 57.501 -198.5s110.5 -81.5 188.5 -81.5z" />
    <glyph glyph-name="Otilde" unicode="&#xd5;" horiz-adv-x="768" 
d="M552 819l48.998 -15.001c-27.333 -45.333 -63.333 -68 -108 -68c-14 0 -36 6 -66 18c-45.333 20.667 -79.666 14.667 -102.999 -18l-49 17c29.333 44 66 66 110 66c12.667 0 33.334 -5.66699 62.001 -17c22 -11.333 42 -16.166 60 -14.499s33 12.167 45 31.5z
M425.998 679.999c94.667 0 171.5 -33.5 230.5 -100.5s82.833 -148.167 71.5 -243.5c-11.333 -94.667 -54.666 -175.667 -129.999 -243s-160.666 -101 -255.999 -101c-94.667 0 -171.5 33.5 -230.5 100.5s-82.833 148.167 -71.5 243.5
c11.333 94.667 54.666 175.667 129.999 243s160.666 101 255.999 101zM349.998 55.999c78 0 147.5 27.167 208.5 81.5s96.167 120.5 105.5 198.5s-9.83398 144.167 -57.501 198.5s-110.5 81.5 -188.5 81.5s-147.5 -27.167 -208.5 -81.5s-96.167 -120.5 -105.5 -198.5
s9.83398 -144.167 57.501 -198.5s110.5 -81.5 188.5 -81.5z" />
    <glyph glyph-name="Odieresis" unicode="&#xd6;" horiz-adv-x="768" 
d="M353 736c-13.333 0 -24 4.66699 -32 14s-11.333 20.666 -10 33.999s7.33301 24.666 18 33.999s22.667 14 36 14s24 -4.66699 32 -14s11.333 -20.666 10 -33.999s-7.33301 -24.666 -18 -33.999s-22.667 -14 -36 -14zM513 736c-13.333 0 -24 4.66699 -32 14
s-11.333 20.666 -10 33.999s7.33301 24.666 18 33.999s22.667 14 36 14s24 -4.66699 32 -14s11.333 -20.666 10 -33.999s-7.33301 -24.666 -18 -33.999s-22.667 -14 -36 -14zM426 680c94.667 0 171.5 -33.5 230.5 -100.5s82.833 -148.167 71.5 -243.5
c-11.333 -94.667 -54.666 -175.667 -129.999 -243s-160.666 -101 -255.999 -101c-94.667 0 -171.5 33.5 -230.5 100.5s-82.833 148.167 -71.5 243.5c11.333 94.667 54.666 175.667 129.999 243s160.666 101 255.999 101zM350 56c78 0 147.5 27.167 208.5 81.5
s96.167 120.5 105.5 198.5s-9.83398 144.167 -57.501 198.5s-110.5 81.5 -188.5 81.5s-147.5 -27.167 -208.5 -81.5s-96.167 -120.5 -105.5 -198.5s9.83398 -144.167 57.501 -198.5s110.5 -81.5 188.5 -81.5z" />
    <glyph glyph-name="multiply" unicode="&#xd7;" horiz-adv-x="426" 
d="M67 427l38 34l108 -124l138 124l30 -34l-139 -123l109 -123l-38 -34l-108 124l-138 -124l-30 34l139 123z" />
    <glyph glyph-name="Oslash" unicode="&#xd8;" horiz-adv-x="768" 
d="M652 585c62.667 -68 88 -151 76 -249c-11.333 -94.667 -54.666 -175.667 -129.999 -243s-160.666 -101 -255.999 -101c-77.333 0 -144.666 23.667 -201.999 71l-61 -63h-48l85 87c-62.667 68 -88 151 -76 249c11.333 94.667 54.666 175.667 129.999 243
s160.666 101 255.999 101c77.333 0 144.666 -23.667 201.999 -71l61 63h48zM104 336c-10 -78 9.66699 -145 59 -201l417 426c-45.333 36.667 -99.333 55 -162 55c-78 0 -147.5 -27.167 -208.5 -81.5s-96.167 -120.5 -105.5 -198.5zM350 56c78 0 147.5 27.167 208.5 81.5
s96.167 120.5 105.5 198.5c10 78 -9.66699 145 -59 201l-417 -426c45.333 -36.667 99.333 -55 162 -55z" />
    <glyph glyph-name="Ugrave" unicode="&#xd9;" horiz-adv-x="592" 
d="M401 736h-48l-96 128h80zM513 672l64.001 -0.000976562l-48 -392c-11.333 -92 -41 -163 -89 -213s-110 -75 -186 -75c-78 0 -134.5 24.833 -169.5 74.5s-46.833 120.834 -35.5 213.501l48 392h64l-49 -400c-8.66699 -70.667 0.333008 -124.334 27 -161.001
s67.667 -55 123 -55s100.666 18.333 135.999 55s57.333 90.334 66 161.001z" />
    <glyph glyph-name="Uacute" unicode="&#xda;" horiz-adv-x="592" 
d="M289 736l96 128h80l-128 -128h-48zM513 672l64.001 -0.000976562l-48 -392c-11.333 -92 -41 -163 -89 -213s-110 -75 -186 -75c-78 0 -134.5 24.833 -169.5 74.5s-46.833 120.834 -35.5 213.501l48 392h64l-49 -400c-8.66699 -70.667 0.333008 -124.334 27 -161.001
s67.667 -55 123 -55s100.666 18.333 135.999 55s57.333 90.334 66 161.001z" />
    <glyph glyph-name="Ucircumflex" unicode="&#xdb;" horiz-adv-x="592" 
d="M414 736l-60 72l-78 -72h-75l161 136l127 -136h-75zM513 672l64.001 -0.000976562l-48 -392c-11.333 -92 -41 -163 -89 -213s-110 -75 -186 -75c-78 0 -134.5 24.833 -169.5 74.5s-46.833 120.834 -35.5 213.501l48 392h64l-49 -400
c-8.66699 -70.667 0.333008 -124.334 27 -161.001s67.667 -55 123 -55s100.666 18.333 135.999 55s57.333 90.334 66 161.001z" />
    <glyph glyph-name="Udieresis" unicode="&#xdc;" horiz-adv-x="592" 
d="M265 736c-13.333 0 -24 4.66699 -32 14s-11.333 20.666 -10 33.999s7.33301 24.666 18 33.999s22.667 14 36 14s24 -4.66699 32 -14s11.333 -20.666 10 -33.999s-7.33301 -24.666 -18 -33.999s-22.667 -14 -36 -14zM425 736c-13.333 0 -24 4.66699 -32 14
s-11.333 20.666 -10 33.999s7.33301 24.666 18 33.999s22.667 14 36 14s24 -4.66699 32 -14s11.333 -20.666 10 -33.999s-7.33301 -24.666 -18 -33.999s-22.667 -14 -36 -14zM513 672l64.001 -0.000976562l-48 -392c-11.333 -92 -41 -163 -89 -213s-110 -75 -186 -75
c-78 0 -134.5 24.833 -169.5 74.5s-46.833 120.834 -35.5 213.501l48 392h64l-49 -400c-8.66699 -70.667 0.333008 -124.334 27 -161.001s67.667 -55 123 -55s100.666 18.333 135.999 55s57.333 90.334 66 161.001z" />
    <glyph glyph-name="Yacute" unicode="&#xdd;" horiz-adv-x="560" 
d="M281 736l96 128h80l-128 -128h-48zM521 672h72l-285 -368l-37 -304h-64l37 304l-195 368h72l162 -308z" />
    <glyph glyph-name="Thorn" unicode="&#xde;" horiz-adv-x="560" 
d="M292 568c85.333 0 147.166 -18.667 185.499 -56s53.5 -89 45.5 -155c-8 -64.667 -34.667 -117.667 -80 -159s-102.666 -62 -171.999 -62h-160l-16 -136h-64l86 704h64l-17 -136h128zM279 200c47.333 0 87.332 12.167 119.999 36.5s52.334 62.5 59.001 114.5
c6 52 -5 90.5 -33 115.5s-65.667 37.5 -113 37.5h-155l-38 -304h160z" />
    <glyph glyph-name="germandbls" unicode="&#xdf;" horiz-adv-x="528" 
d="M79 0l61.999 504.001c5.33301 44 20.666 79 45.999 105s59.333 39 102 39c39.333 0 68.833 -10.833 88.5 -32.5s27.167 -50.834 22.5 -87.501c-6 -48.667 -32.333 -84 -79 -106c-31.333 -14.667 -85 -22 -161 -22l-8 -64h33.5h33c6.33301 0 15.833 -0.166992 28.5 -0.5
s22.167 -0.833008 28.5 -1.5l23.5 -2.5c9.33301 -1 17.5 -2.5 24.5 -4.5s13.5 -4.33301 19.5 -7c50 -22 71.667 -60.667 65 -116c-7.33301 -62.667 -37.833 -105.334 -91.5 -128.001s-119.5 -26.667 -197.5 -12l-8 -64c32 -5.33301 64 -8 96 -8
c79.333 0 141.5 20.5 186.5 61.5s71.167 91.167 78.5 150.5c5.33301 43.333 -2 81.833 -22 115.5s-50 55.167 -90 64.5c23.333 11.333 45.333 29.333 66 54s33.334 56 38.001 94c6 48.667 -5.83301 90.834 -35.5 126.501s-73.167 53.5 -130.5 53.5
c-9.33301 0 -19.166 -0.5 -29.499 -1.5s-26.833 -5.66699 -49.5 -14s-42.834 -19.5 -60.501 -33.5s-34.667 -36.333 -51 -67s-27.166 -66.667 -32.499 -108l-60 -488h64z" />
    <glyph glyph-name="agrave" unicode="&#xe0;" horiz-adv-x="608" 
d="M442 544h-48l-97 128h80zM511 0h-63.998c-9.33301 16 -11.333 44 -6 84c-52.667 -61.333 -117.667 -92 -195 -92c-68.667 0 -124.334 24.167 -167.001 72.5s-59.667 106.833 -51 175.5s40.167 127.167 94.5 175.5s115.833 72.5 184.5 72.5
c77.333 0 134.666 -31 171.999 -93l11 85h64l-47 -384c-6 -48 -4.66699 -80 4 -96zM254.002 56c51.333 0 96.9971 18 136.997 54s63 79.333 69 130c6.66699 50.667 -5.66602 94 -36.999 130s-72.666 54 -123.999 54c-50.667 0 -96.167 -17.833 -136.5 -53.5
s-63.833 -79.167 -70.5 -130.5c-6 -51.333 6.83301 -94.833 38.5 -130.5s72.834 -53.5 123.501 -53.5z" />
    <glyph glyph-name="aacute" unicode="&#xe1;" horiz-adv-x="608" 
d="M298 544l95 128h80l-127 -128h-48zM511 0h-63.998c-9.33301 16 -11.333 44 -6 84c-52.667 -61.333 -117.667 -92 -195 -92c-68.667 0 -124.334 24.167 -167.001 72.5s-59.667 106.833 -51 175.5s40.167 127.167 94.5 175.5s115.833 72.5 184.5 72.5
c77.333 0 134.666 -31 171.999 -93l11 85h64l-47 -384c-6 -48 -4.66699 -80 4 -96zM254.002 56c51.333 0 96.9971 18 136.997 54s63 79.333 69 130c6.66699 50.667 -5.66602 94 -36.999 130s-72.666 54 -123.999 54c-50.667 0 -96.167 -17.833 -136.5 -53.5
s-63.833 -79.167 -70.5 -130.5c-6 -51.333 6.83301 -94.833 38.5 -130.5s72.834 -53.5 123.501 -53.5z" />
    <glyph glyph-name="acircumflex" unicode="&#xe2;" horiz-adv-x="608" 
d="M415 544l-61 72l-77 -72h-75l160 136l128 -136h-75zM511 0h-63.998c-9.33301 16 -11.333 44 -6 84c-52.667 -61.333 -117.667 -92 -195 -92c-68.667 0 -124.334 24.167 -167.001 72.5s-59.667 106.833 -51 175.5s40.167 127.167 94.5 175.5s115.833 72.5 184.5 72.5
c77.333 0 134.666 -31 171.999 -93l11 85h64l-47 -384c-6 -48 -4.66699 -80 4 -96zM254.002 56c51.333 0 96.9971 18 136.997 54s63 79.333 69 130c6.66699 50.667 -5.66602 94 -36.999 130s-72.666 54 -123.999 54c-50.667 0 -96.167 -17.833 -136.5 -53.5
s-63.833 -79.167 -70.5 -130.5c-6 -51.333 6.83301 -94.833 38.5 -130.5s72.834 -53.5 123.501 -53.5z" />
    <glyph glyph-name="atilde" unicode="&#xe3;" horiz-adv-x="608" 
d="M465 627l48.999 -15.001c-28 -45.333 -64 -68 -108 -68c-14 0 -36 6 -66 18c-46 20.667 -80.333 14.667 -103 -18l-49 17c28.667 44 65.334 66 110.001 66c13.333 0 34 -5.66699 62 -17c22 -11.333 42 -16.166 60 -14.499s33 12.167 45 31.5zM510.999 -0.000976562
h-63.998c-9.33301 16 -11.333 44 -6 84c-52.667 -61.333 -117.667 -92 -195 -92c-68.667 0 -124.334 24.167 -167.001 72.5s-59.667 106.833 -51 175.5s40.167 127.167 94.5 175.5s115.833 72.5 184.5 72.5c77.333 0 134.666 -31 171.999 -93l11 85h64l-47 -384
c-6 -48 -4.66699 -80 4 -96zM254.001 55.999c51.333 0 96.9971 18 136.997 54s63 79.333 69 130c6.66699 50.667 -5.66602 94 -36.999 130s-72.666 54 -123.999 54c-50.667 0 -96.167 -17.833 -136.5 -53.5s-63.833 -79.167 -70.5 -130.5
c-6 -51.333 6.83301 -94.833 38.5 -130.5s72.834 -53.5 123.501 -53.5z" />
    <glyph glyph-name="adieresis" unicode="&#xe4;" horiz-adv-x="608" 
d="M266 544c-13.333 0 -24.167 4.66699 -32.5 14s-11.833 20.666 -10.5 33.999c2 13.333 8.16699 24.666 18.5 33.999s22.166 14 35.499 14s24.166 -4.66699 32.499 -14s11.5 -20.666 9.5 -33.999c-1.33301 -13.333 -7.16602 -24.666 -17.499 -33.999
s-22.166 -14 -35.499 -14zM425.999 544c-13.333 0 -24.167 4.66699 -32.5 14s-11.833 20.666 -10.5 33.999c2 13.333 8.16699 24.666 18.5 33.999s22.166 14 35.499 14s24.166 -4.66699 32.499 -14s11.5 -20.666 9.5 -33.999
c-1.33301 -13.333 -7.16602 -24.666 -17.499 -33.999s-22.166 -14 -35.499 -14zM510.998 0h-63.998c-9.33301 16 -11.333 44 -6 84c-52.667 -61.333 -117.667 -92 -195 -92c-68.667 0 -124.334 24.167 -167.001 72.5s-59.667 106.833 -51 175.5s40.167 127.167 94.5 175.5
s115.833 72.5 184.5 72.5c77.333 0 134.666 -31 171.999 -93l11 85h64l-47 -384c-6 -48 -4.66699 -80 4 -96zM254 56c51.333 0 96.9971 18 136.997 54s63 79.333 69 130c6.66699 50.667 -5.66602 94 -36.999 130s-72.666 54 -123.999 54
c-50.667 0 -96.167 -17.833 -136.5 -53.5s-63.833 -79.167 -70.5 -130.5c-6 -51.333 6.83301 -94.833 38.5 -130.5s72.834 -53.5 123.501 -53.5z" />
    <glyph glyph-name="aring" unicode="&#xe5;" horiz-adv-x="608" 
d="M375 720c29.333 0 52.834 -10.167 70.501 -30.5s24.5 -44.833 20.5 -73.5c-3.33301 -29.333 -16.333 -54 -39 -74s-48.334 -30 -77.001 -30c-29.333 0 -52.833 10.167 -70.5 30.5s-24.834 44.833 -21.501 73.5c4 29.333 17.333 54 40 74s48.334 30 77.001 30z
M356.001 560c15.333 0 29.166 5.5 41.499 16.5s19.166 24.167 20.499 39.5c2 15.333 -1.83301 28.5 -11.5 39.5s-22.167 16.5 -37.5 16.5s-29.166 -5.5 -41.499 -16.5s-19.5 -24.167 -21.5 -39.5c-1.33301 -15.333 2.83398 -28.5 12.501 -39.5s22.167 -16.5 37.5 -16.5z
M511.001 0h-63.998c-9.33301 16 -11.333 44 -6 84c-52.667 -61.333 -117.667 -92 -195 -92c-68.667 0 -124.334 24.167 -167.001 72.5s-59.667 106.833 -51 175.5s40.167 127.167 94.5 175.5s115.833 72.5 184.5 72.5c77.333 0 134.666 -31 171.999 -93l11 85h64l-47 -384
c-6 -48 -4.66699 -80 4 -96zM254.003 56c51.333 0 96.9971 18 136.997 54s63 79.333 69 130c6.66699 50.667 -5.66602 94 -36.999 130s-72.666 54 -123.999 54c-50.667 0 -96.167 -17.833 -136.5 -53.5s-63.833 -79.167 -70.5 -130.5
c-6 -51.333 6.83301 -94.833 38.5 -130.5s72.834 -53.5 123.501 -53.5z" />
    <glyph glyph-name="ae" unicode="&#xe6;" horiz-adv-x="912" 
d="M860 242c-1.33301 -13.333 -3.66309 -24.6641 -6.99609 -33.9971h-395c-0.666992 -45.333 14.666 -82 45.999 -110s72.666 -42 123.999 -42c57.333 0 110.666 17.333 159.999 52l17 -58c-8 -6.66699 -18.5 -13.667 -31.5 -21s-34.333 -15.333 -64 -24
s-60.167 -13 -91.5 -13c-79.333 0 -139 25.333 -179 76l-8 -68h-64l8 65c-19.333 -20 -47 -37.167 -83 -51.5s-74 -21.5 -114 -21.5c-54.667 0 -96.667 13.5 -126 40.5s-41.333 64.167 -36 111.5c4 29.333 16 56.5 36 81.5s48.667 43.5 86 55.5
c43.333 11.333 88.666 16.166 135.999 14.499s89.666 -6.83398 126.999 -15.501c6 45.333 -4.66699 80.666 -32 105.999s-62 38 -104 38c-30.667 0 -62 -5.33301 -94 -16s-56.667 -23.334 -74 -38.001l-26 54c60.667 42.667 131.334 64 212.001 64
c39.333 0 74.666 -10.167 105.999 -30.5s52.333 -45.5 63 -75.5c54 70.667 125.333 106 214 106c65.333 0 116.333 -22.167 153 -66.5s50.334 -104.166 41.001 -179.499zM466.003 272.002h333.001c2.66699 38.667 -7.83301 73.667 -31.5 105s-61.167 47 -112.5 47
c-52.667 0 -95.834 -15.667 -129.501 -47s-53.5 -66.333 -59.5 -105zM388.004 176.002l5.00195 40.001c-44.667 10.667 -94.667 16 -150 16c-101.333 0 -155.333 -28.667 -162 -86c-4 -32 5.33301 -55 28 -69s49 -21 79 -21c43.333 0 86.666 13.167 129.999 39.5
s66.666 53.166 69.999 80.499z" />
    <glyph glyph-name="ccedilla" unicode="&#xe7;" 
d="M420 46c-40 -32.667 -89.3359 -50.666 -148.003 -53.999l-46 -43c42 10 76.5 3.83301 103.5 -18.5s38.167 -52.5 33.5 -90.5c-5.33301 -41.333 -23.666 -75.666 -54.999 -102.999s-69.333 -41 -114 -41c-52.667 0 -90.334 21 -113.001 63l49 41
c11.333 -32 37.333 -48 78 -48c28 0 52.167 8.83301 72.5 26.5s31.833 38.5 34.5 62.5c2.66699 20 -2.66602 36.833 -15.999 50.5s-31.666 20.5 -54.999 20.5c-24.667 0 -48 -8 -70 -24l-26 48l62 59c-64.667 9.33301 -113.167 36.666 -145.5 81.999
s-44.5 99.666 -36.5 162.999c8.66699 70.667 39.5 129.667 92.5 177s118.833 71 197.5 71c63.333 0 113.666 -16.667 150.999 -50l-36 -58c-29.333 29.333 -70.666 44 -123.999 44c-58 0 -107 -17.667 -147 -53s-63.333 -79 -70 -131c-6 -52.667 6.5 -96.5 37.5 -131.5
s75.833 -52.5 134.5 -52.5c50.667 0 96.334 16 137.001 48z" />
    <glyph glyph-name="egrave" unicode="&#xe8;" horiz-adv-x="544" 
d="M362 544h-48l-97 128h80zM492 242c-1.33301 -13.333 -3.66504 -24.668 -6.99805 -34.001h-395c-0.666992 -45.333 14.666 -82 45.999 -110s72.666 -42 123.999 -42c57.333 0 110.666 17.333 159.999 52l17 -58c-8 -6.66699 -18.5 -13.667 -31.5 -21
s-34.333 -15.333 -64 -24s-60.167 -13 -91.5 -13c-76.667 0 -134.834 23.833 -174.501 71.5s-55.5 106.5 -47.5 176.5c8.66699 71.333 37.834 130.5 87.501 177.5s110.5 70.5 182.5 70.5c65.333 0 116.333 -22.167 153 -66.5s50.334 -104.166 41.001 -179.499z
M98.001 271.998h333.001c2.66699 38.667 -7.83301 73.667 -31.5 105s-61.167 47 -112.5 47c-52.667 0 -95.834 -15.667 -129.501 -47s-53.5 -66.333 -59.5 -105z" />
    <glyph glyph-name="eacute" unicode="&#xe9;" horiz-adv-x="544" 
d="M258 544l95 128h80l-127 -128h-48zM492 242c-1.33301 -13.333 -3.66504 -24.668 -6.99805 -34.001h-395c-0.666992 -45.333 14.666 -82 45.999 -110s72.666 -42 123.999 -42c57.333 0 110.666 17.333 159.999 52l17 -58c-8 -6.66699 -18.5 -13.667 -31.5 -21
s-34.333 -15.333 -64 -24s-60.167 -13 -91.5 -13c-76.667 0 -134.834 23.833 -174.501 71.5s-55.5 106.5 -47.5 176.5c8.66699 71.333 37.834 130.5 87.501 177.5s110.5 70.5 182.5 70.5c65.333 0 116.333 -22.167 153 -66.5s50.334 -104.166 41.001 -179.499z
M98.001 271.998h333.001c2.66699 38.667 -7.83301 73.667 -31.5 105s-61.167 47 -112.5 47c-52.667 0 -95.834 -15.667 -129.501 -47s-53.5 -66.333 -59.5 -105z" />
    <glyph glyph-name="ecircumflex" unicode="&#xea;" horiz-adv-x="544" 
d="M367 544l-61 72l-77 -72h-75l160 136l128 -136h-75zM492 242c-1.33301 -13.333 -3.66504 -24.668 -6.99805 -34.001h-395c-0.666992 -45.333 14.666 -82 45.999 -110s72.666 -42 123.999 -42c57.333 0 110.666 17.333 159.999 52l17 -58
c-8 -6.66699 -18.5 -13.667 -31.5 -21s-34.333 -15.333 -64 -24s-60.167 -13 -91.5 -13c-76.667 0 -134.834 23.833 -174.501 71.5s-55.5 106.5 -47.5 176.5c8.66699 71.333 37.834 130.5 87.501 177.5s110.5 70.5 182.5 70.5c65.333 0 116.333 -22.167 153 -66.5
s50.334 -104.166 41.001 -179.499zM98.001 271.998h333.001c2.66699 38.667 -7.83301 73.667 -31.5 105s-61.167 47 -112.5 47c-52.667 0 -95.834 -15.667 -129.501 -47s-53.5 -66.333 -59.5 -105z" />
    <glyph glyph-name="edieresis" unicode="&#xeb;" horiz-adv-x="544" 
d="M218 544c-13.333 0 -24.167 4.66699 -32.5 14s-11.833 20.666 -10.5 33.999c2 13.333 8.16699 24.666 18.5 33.999s22.166 14 35.499 14s24.166 -4.66699 32.499 -14s11.5 -20.666 9.5 -33.999c-1.33301 -13.333 -7.16602 -24.666 -17.499 -33.999
s-22.166 -14 -35.499 -14zM377.999 544c-13.333 0 -24.167 4.66699 -32.5 14s-11.833 20.666 -10.5 33.999c2 13.333 8.16699 24.666 18.5 33.999s22.166 14 35.499 14s24.166 -4.66699 32.499 -14s11.5 -20.666 9.5 -33.999
c-1.33301 -13.333 -7.16602 -24.666 -17.499 -33.999s-22.166 -14 -35.499 -14zM491.998 242c-1.33301 -13.333 -3.66504 -24.668 -6.99805 -34.001h-395c-0.666992 -45.333 14.666 -82 45.999 -110s72.666 -42 123.999 -42c57.333 0 110.666 17.333 159.999 52l17 -58
c-8 -6.66699 -18.5 -13.667 -31.5 -21s-34.333 -15.333 -64 -24s-60.167 -13 -91.5 -13c-76.667 0 -134.834 23.833 -174.501 71.5s-55.5 106.5 -47.5 176.5c8.66699 71.333 37.834 130.5 87.501 177.5s110.5 70.5 182.5 70.5c65.333 0 116.333 -22.167 153 -66.5
s50.334 -104.166 41.001 -179.499zM97.999 271.998h333.001c2.66699 38.667 -7.83301 73.667 -31.5 105s-61.167 47 -112.5 47c-52.667 0 -95.834 -15.667 -129.501 -47s-53.5 -66.333 -59.5 -105z" />
    <glyph glyph-name="igrave" unicode="&#xec;" horiz-adv-x="208" 
d="M162 544h-48l-97 128h80zM154 480l-47 -384c-6 -48 -4.66699 -80 4 -96h-64c-8.66699 16 -10 48 -4 96l47 384h64z" />
    <glyph glyph-name="iacute" unicode="&#xed;" horiz-adv-x="208" 
d="M98 544l95 128h80l-127 -128h-48zM154 480l-47 -384c-6 -48 -4.66699 -80 4 -96h-64c-8.66699 16 -10 48 -4 96l47 384h64z" />
    <glyph glyph-name="icircumflex" unicode="&#xee;" horiz-adv-x="208" 
d="M199 544l-61 72l-77 -72h-75l160 136l128 -136h-75zM154 480l-47 -384c-6 -48 -4.66699 -80 4 -96h-64c-8.66699 16 -10 48 -4 96l47 384h64z" />
    <glyph glyph-name="idieresis" unicode="&#xef;" horiz-adv-x="208" 
d="M50 544c-13.333 0 -24.167 4.66699 -32.5 14s-11.833 20.666 -10.5 33.999c2 13.333 8.16699 24.666 18.5 33.999s22.166 14 35.499 14s24.166 -4.66699 32.499 -14s11.5 -20.666 9.5 -33.999c-1.33301 -13.333 -7.16602 -24.666 -17.499 -33.999
s-22.166 -14 -35.499 -14zM209.999 544c-13.333 0 -24.167 4.66699 -32.5 14s-11.833 20.666 -10.5 33.999c2 13.333 8.16699 24.666 18.5 33.999s22.166 14 35.499 14s24.166 -4.66699 32.499 -14s11.5 -20.666 9.5 -33.999
c-1.33301 -13.333 -7.16602 -24.666 -17.499 -33.999s-22.166 -14 -35.499 -14zM153.998 480l-47 -384c-6 -48 -4.66699 -80 4 -96h-64c-8.66699 16 -10 48 -4 96l47 384h64z" />
    <glyph glyph-name="eth" unicode="&#xf0;" horiz-adv-x="576" 
d="M318 608c86.667 -72.667 144.334 -138.5 173.001 -197.5s39.667 -115.833 33 -170.5c-8.66699 -68.667 -40 -127.167 -94 -175.5s-115.333 -72.5 -184 -72.5s-124.334 24.167 -167.001 72.5s-59.667 106.833 -51 175.5s40.167 127.167 94.5 175.5
s115.833 72.5 184.5 72.5c20.667 0 38.667 -2.66699 54 -8c-8.66699 10 -19 20.833 -31 32.5s-22.167 21 -30.5 28l-31 25.5c-12.333 10 -19.5 15.667 -21.5 17l-168 -56l6 48l124 41l-78 67l54 37l95 -78l189 63l-6 -49zM254 56c50 0 95.333 18.167 136 54.5
s64 79.5 70 129.5s-6.83301 93.167 -38.5 129.5s-72.5 54.5 -122.5 54.5s-95.5 -18.167 -136.5 -54.5s-64.5 -79.5 -70.5 -129.5s7 -93.167 39 -129.5s73 -54.5 123 -54.5z" />
    <glyph glyph-name="ntilde" unicode="&#xf1;" horiz-adv-x="544" 
d="M417 627l48.999 -15.001c-28 -45.333 -64 -68 -108 -68c-14 0 -36 6 -66 18c-46 20.667 -80.333 14.667 -103 -18l-49 17c28.667 44 65.334 66 110.001 66c13.333 0 34 -5.66699 62 -17c22 -11.333 42 -16.166 60 -14.499s33 12.167 45 31.5zM458.999 95.999
c-6 -48 -4.66504 -79.999 4.00195 -95.999h-64c-8.66699 16 -10 48 -4 96l23 188c10.667 93.333 -26.333 140 -111 140c-40 0 -78.333 -13.333 -115 -40s-57.667 -61.334 -63 -104.001l-34 -280h-64l59 480h64l-9 -74c16 21.333 40 40.333 72 57s64 25 96 25
c67.333 0 114.166 -18.5 140.499 -55.5s35.166 -91.833 26.499 -164.5z" />
    <glyph glyph-name="ograve" unicode="&#xf2;" horiz-adv-x="576" 
d="M362 544h-48l-97 128h80zM307 488c68.667 0 124.169 -24.167 166.502 -72.5s59.166 -106.833 50.499 -175.5s-40 -127.167 -94 -175.5s-115.333 -72.5 -184 -72.5s-124.334 24.167 -167.001 72.5s-59.667 106.833 -51 175.5s40.167 127.167 94.5 175.5
s115.833 72.5 184.5 72.5zM254.002 56c50 0 95.333 18.167 136 54.5s64 79.5 70 129.5s-6.83301 93.167 -38.5 129.5s-72.5 54.5 -122.5 54.5s-95.5 -18.167 -136.5 -54.5s-64.5 -79.5 -70.5 -129.5s7 -93.167 39 -129.5s73 -54.5 123 -54.5z" />
    <glyph glyph-name="oacute" unicode="&#xf3;" horiz-adv-x="576" 
d="M266 544l95 128h80l-127 -128h-48zM307 488c68.667 0 124.169 -24.167 166.502 -72.5s59.166 -106.833 50.499 -175.5s-40 -127.167 -94 -175.5s-115.333 -72.5 -184 -72.5s-124.334 24.167 -167.001 72.5s-59.667 106.833 -51 175.5s40.167 127.167 94.5 175.5
s115.833 72.5 184.5 72.5zM254.002 56c50 0 95.333 18.167 136 54.5s64 79.5 70 129.5s-6.83301 93.167 -38.5 129.5s-72.5 54.5 -122.5 54.5s-95.5 -18.167 -136.5 -54.5s-64.5 -79.5 -70.5 -129.5s7 -93.167 39 -129.5s73 -54.5 123 -54.5z" />
    <glyph glyph-name="ocircumflex" unicode="&#xf4;" horiz-adv-x="576" 
d="M383 544l-61 72l-77 -72h-75l160 136l128 -136h-75zM307 488c68.667 0 124.169 -24.167 166.502 -72.5s59.166 -106.833 50.499 -175.5s-40 -127.167 -94 -175.5s-115.333 -72.5 -184 -72.5s-124.334 24.167 -167.001 72.5s-59.667 106.833 -51 175.5
s40.167 127.167 94.5 175.5s115.833 72.5 184.5 72.5zM254.002 56c50 0 95.333 18.167 136 54.5s64 79.5 70 129.5s-6.83301 93.167 -38.5 129.5s-72.5 54.5 -122.5 54.5s-95.5 -18.167 -136.5 -54.5s-64.5 -79.5 -70.5 -129.5s7 -93.167 39 -129.5s73 -54.5 123 -54.5z" />
    <glyph glyph-name="otilde" unicode="&#xf5;" horiz-adv-x="576" 
d="M433 627l48.999 -15.001c-28 -45.333 -64 -68 -108 -68c-14 0 -36 6 -66 18c-46 20.667 -80.333 14.667 -103 -18l-49 17c28.667 44 65.334 66 110.001 66c13.333 0 34 -5.66699 62 -17c22 -11.333 42 -16.166 60 -14.499s33 12.167 45 31.5zM306.999 487.999
c68.667 0 124.169 -24.167 166.502 -72.5s59.166 -106.833 50.499 -175.5s-40 -127.167 -94 -175.5s-115.333 -72.5 -184 -72.5s-124.334 24.167 -167.001 72.5s-59.667 106.833 -51 175.5s40.167 127.167 94.5 175.5s115.833 72.5 184.5 72.5zM254.001 55.999
c50 0 95.333 18.167 136 54.5s64 79.5 70 129.5s-6.83301 93.167 -38.5 129.5s-72.5 54.5 -122.5 54.5s-95.5 -18.167 -136.5 -54.5s-64.5 -79.5 -70.5 -129.5s7 -93.167 39 -129.5s73 -54.5 123 -54.5z" />
    <glyph glyph-name="odieresis" unicode="&#xf6;" horiz-adv-x="576" 
d="M234 544c-13.333 0 -24.167 4.66699 -32.5 14s-11.833 20.666 -10.5 33.999c2 13.333 8.16699 24.666 18.5 33.999s22.166 14 35.499 14s24.166 -4.66699 32.499 -14s11.5 -20.666 9.5 -33.999c-1.33301 -13.333 -7.16602 -24.666 -17.499 -33.999
s-22.166 -14 -35.499 -14zM393.999 544c-13.333 0 -24.167 4.66699 -32.5 14s-11.833 20.666 -10.5 33.999c2 13.333 8.16699 24.666 18.5 33.999s22.166 14 35.499 14s24.166 -4.66699 32.499 -14s11.5 -20.666 9.5 -33.999
c-1.33301 -13.333 -7.16602 -24.666 -17.499 -33.999s-22.166 -14 -35.499 -14zM306.998 488c68.667 0 124.169 -24.167 166.502 -72.5s59.166 -106.833 50.499 -175.5s-40 -127.167 -94 -175.5s-115.333 -72.5 -184 -72.5s-124.334 24.167 -167.001 72.5
s-59.667 106.833 -51 175.5s40.167 127.167 94.5 175.5s115.833 72.5 184.5 72.5zM254 56c50 0 95.333 18.167 136 54.5s64 79.5 70 129.5s-6.83301 93.167 -38.5 129.5s-72.5 54.5 -122.5 54.5s-95.5 -18.167 -136.5 -54.5s-64.5 -79.5 -70.5 -129.5s7 -93.167 39 -129.5
s73 -54.5 123 -54.5z" />
    <glyph glyph-name="divide" unicode="&#xf7;" horiz-adv-x="464" 
d="M242 416c-18 0 -32.499 6.16699 -43.499 18.5s-15.167 27.5 -12.5 45.5c2 18 10 33.167 24 45.5s30 18.5 48 18.5s32.333 -6.16699 43 -18.5s15 -27.5 13 -45.5c-2.66699 -18 -10.834 -33.167 -24.501 -45.5s-29.5 -18.5 -47.5 -18.5zM55.001 328h352l-6 -48h-352z
M199.001 64c-18 0 -32.501 6.16699 -43.501 18.5s-15.5 27.5 -13.5 45.5c2.66699 18 10.834 33.167 24.501 45.5s29.5 18.5 47.5 18.5s32.5 -6.16699 43.5 -18.5s15.167 -27.5 12.5 -45.5c-2 -18 -9.83301 -33.167 -23.5 -45.5s-29.5 -18.5 -47.5 -18.5z" />
    <glyph glyph-name="oslash" unicode="&#xf8;" horiz-adv-x="576" 
d="M474 415c42 -50 58.667 -108.333 50 -175c-8.66699 -68.667 -40 -127.167 -94 -175.5s-115.333 -72.5 -184 -72.5c-56 0 -103.333 16.333 -142 49l-41 -41h-48l64 65c-42 48.667 -59 107 -51 175c8.66699 68.667 40.167 127.167 94.5 175.5s115.833 72.5 184.5 72.5
c54.667 0 102 -16.333 142 -49l41 41h48zM92 240c-6 -47.333 6 -89.333 36 -126l273 276c-30 22.667 -64 34 -102 34c-50 0 -95.5 -18.167 -136.5 -54.5s-64.5 -79.5 -70.5 -129.5zM254 56c50 0 95.333 18.167 136 54.5s64 79.5 70 129.5c6 48 -5.66699 90 -35 126
l-273 -276c29.333 -22.667 63.333 -34 102 -34z" />
    <glyph glyph-name="ugrave" unicode="&#xf9;" horiz-adv-x="544" 
d="M338 544h-48l-97 128h80zM447 0l-63.999 -0.000976562c-8.66699 15.333 -11 39.666 -7 72.999c-16 -21.333 -40.167 -40.166 -72.5 -56.499s-64.166 -24.5 -95.499 -24.5c-67.333 0 -114.333 18.5 -141 55.5s-35.334 91.833 -26.001 164.5l33 268h64l-35 -284
c-12 -93.333 25 -140 111 -140c40 0 78.167 13.333 114.5 40s57.166 61.334 62.499 104.001l35 280h64l-47 -384c-6 -48 -4.66699 -80 4 -96z" />
    <glyph glyph-name="uacute" unicode="&#xfa;" horiz-adv-x="544" 
d="M242 544l95 128h80l-127 -128h-48zM447 0l-63.999 -0.000976562c-8.66699 15.333 -11 39.666 -7 72.999c-16 -21.333 -40.167 -40.166 -72.5 -56.499s-64.166 -24.5 -95.499 -24.5c-67.333 0 -114.333 18.5 -141 55.5s-35.334 91.833 -26.001 164.5l33 268h64l-35 -284
c-12 -93.333 25 -140 111 -140c40 0 78.167 13.333 114.5 40s57.166 61.334 62.499 104.001l35 280h64l-47 -384c-6 -48 -4.66699 -80 4 -96z" />
    <glyph glyph-name="ucircumflex" unicode="&#xfb;" horiz-adv-x="544" 
d="M359 544l-61 72l-77 -72h-75l160 136l128 -136h-75zM447 0l-63.999 -0.000976562c-8.66699 15.333 -11 39.666 -7 72.999c-16 -21.333 -40.167 -40.166 -72.5 -56.499s-64.166 -24.5 -95.499 -24.5c-67.333 0 -114.333 18.5 -141 55.5s-35.334 91.833 -26.001 164.5
l33 268h64l-35 -284c-12 -93.333 25 -140 111 -140c40 0 78.167 13.333 114.5 40s57.166 61.334 62.499 104.001l35 280h64l-47 -384c-6 -48 -4.66699 -80 4 -96z" />
    <glyph glyph-name="udieresis" unicode="&#xfc;" horiz-adv-x="544" 
d="M210 544c-13.333 0 -24.167 4.66699 -32.5 14s-11.833 20.666 -10.5 33.999c2 13.333 8.16699 24.666 18.5 33.999s22.166 14 35.499 14s24.166 -4.66699 32.499 -14s11.5 -20.666 9.5 -33.999c-1.33301 -13.333 -7.16602 -24.666 -17.499 -33.999
s-22.166 -14 -35.499 -14zM369.999 544c-13.333 0 -24.167 4.66699 -32.5 14s-11.833 20.666 -10.5 33.999c2 13.333 8.16699 24.666 18.5 33.999s22.166 14 35.499 14s24.166 -4.66699 32.499 -14s11.5 -20.666 9.5 -33.999
c-1.33301 -13.333 -7.16602 -24.666 -17.499 -33.999s-22.166 -14 -35.499 -14zM446.998 0l-63.999 -0.000976562c-8.66699 15.333 -11 39.666 -7 72.999c-16 -21.333 -40.167 -40.166 -72.5 -56.499s-64.166 -24.5 -95.499 -24.5c-67.333 0 -114.333 18.5 -141 55.5
s-35.334 91.833 -26.001 164.5l33 268h64l-35 -284c-12 -93.333 25 -140 111 -140c40 0 78.167 13.333 114.5 40s57.166 61.334 62.499 104.001l35 280h64l-47 -384c-6 -48 -4.66699 -80 4 -96z" />
    <glyph glyph-name="yacute" unicode="&#xfd;" horiz-adv-x="480" 
d="M218 544l95 128h80l-127 -128h-48zM415 480h75l-416 -736h-73l163 286l-138 450h75l111 -368z" />
    <glyph glyph-name="thorn" unicode="&#xfe;" horiz-adv-x="608" 
d="M181 704l-37.998 -309.001c53.333 62 118.666 93 195.999 93c68.667 0 124.167 -24.167 166.5 -72.5s59.166 -106.833 50.499 -175.5s-40 -127.167 -94 -175.5s-115.333 -72.5 -184 -72.5c-38 0 -72 8.33301 -102 25s-53.667 39.334 -71 68.001l-42 -341h-64l118 960h64z
M286.002 55.999c51.333 0 96.9971 18 136.997 54s63 79.333 69 130c6.66699 50.667 -5.66602 94 -36.999 130s-72.666 54 -123.999 54c-50.667 0 -96.167 -17.833 -136.5 -53.5s-63.833 -79.167 -70.5 -130.5c-6 -51.333 6.83301 -94.833 38.5 -130.5
s72.834 -53.5 123.501 -53.5z" />
    <glyph glyph-name="ydieresis" unicode="&#xff;" horiz-adv-x="480" 
d="M186 544c-13.333 0 -24.167 4.66699 -32.5 14s-11.833 20.666 -10.5 33.999c2 13.333 8.16699 24.666 18.5 33.999s22.166 14 35.499 14s24.166 -4.66699 32.499 -14s11.5 -20.666 9.5 -33.999c-1.33301 -13.333 -7.16602 -24.666 -17.499 -33.999
s-22.166 -14 -35.499 -14zM345.999 544c-13.333 0 -24.167 4.66699 -32.5 14s-11.833 20.666 -10.5 33.999c2 13.333 8.16699 24.666 18.5 33.999s22.166 14 35.499 14s24.166 -4.66699 32.499 -14s11.5 -20.666 9.5 -33.999
c-1.33301 -13.333 -7.16602 -24.666 -17.499 -33.999s-22.166 -14 -35.499 -14zM414.998 480h75l-416 -736h-73l163 286l-138 450h75l111 -368z" />
    <glyph glyph-name="Amacron" unicode="&#x100;" horiz-adv-x="656" 
d="M507 752h-256l6 48h256zM535 0l-49 144h-364l-83 -144h-72l404 688l236 -688h-72zM159 208h306l-111 336z" />
    <glyph glyph-name="amacron" unicode="&#x101;" horiz-adv-x="608" 
d="M476 560h-256l5 48h256zM511 0h-63.998c-9.33301 16 -11.333 44 -6 84c-52.667 -61.333 -117.667 -92 -195 -92c-68.667 0 -124.334 24.167 -167.001 72.5s-59.667 106.833 -51 175.5s40.167 127.167 94.5 175.5s115.833 72.5 184.5 72.5
c77.333 0 134.666 -31 171.999 -93l11 85h64l-47 -384c-6 -48 -4.66699 -80 4 -96zM254.002 56c51.333 0 96.9971 18 136.997 54s63 79.333 69 130c6.66699 50.667 -5.66602 94 -36.999 130s-72.666 54 -123.999 54c-50.667 0 -96.167 -17.833 -136.5 -53.5
s-63.833 -79.167 -70.5 -130.5c-6 -51.333 6.83301 -94.833 38.5 -130.5s72.834 -53.5 123.501 -53.5z" />
    <glyph glyph-name="Abreve" unicode="&#x102;" horiz-adv-x="656" 
d="M468 860h47.998c-4 -34.667 -19.5 -64 -46.5 -88s-57.833 -36 -92.5 -36s-62.5 12 -83.5 36s-29.5 53.333 -25.5 88h48c-2.66699 -20.667 2.5 -38.5 15.5 -53.5s30.167 -22.5 51.5 -22.5c20.667 0 39.334 7.33301 56.001 22s26.334 32.667 29.001 54zM534.998 0l-49 144
h-364l-83 -144h-72l404 688l236 -688h-72zM158.998 208h306l-111 336z" />
    <glyph glyph-name="abreve" unicode="&#x103;" horiz-adv-x="608" 
d="M433 668h48c-4.66699 -34.667 -20.334 -64 -47.001 -88s-57.334 -36 -92.001 -36s-62.667 12 -84 36s-29.666 53.333 -24.999 88h48c-2.66699 -21.333 2.5 -39.333 15.5 -54s29.833 -22 50.5 -22c21.333 0 40.333 7.5 57 22.5s26.334 32.833 29.001 53.5zM511 0h-63.998
c-9.33301 16 -11.333 44 -6 84c-52.667 -61.333 -117.667 -92 -195 -92c-68.667 0 -124.334 24.167 -167.001 72.5s-59.667 106.833 -51 175.5s40.167 127.167 94.5 175.5s115.833 72.5 184.5 72.5c77.333 0 134.666 -31 171.999 -93l11 85h64l-47 -384
c-6 -48 -4.66699 -80 4 -96zM254.002 56c51.333 0 96.9971 18 136.997 54s63 79.333 69 130c6.66699 50.667 -5.66602 94 -36.999 130s-72.666 54 -123.999 54c-50.667 0 -96.167 -17.833 -136.5 -53.5s-63.833 -79.167 -70.5 -130.5
c-6 -51.333 6.83301 -94.833 38.5 -130.5s72.834 -53.5 123.501 -53.5z" />
    <glyph glyph-name="Aogonek" unicode="&#x104;" horiz-adv-x="656" 
d="M612 -150l11 -42.001c-16 -10.667 -34.667 -16 -56 -16c-35.333 0 -61.833 11 -79.5 33s-24.167 51 -19.5 87c2.66699 21.333 10.167 41.166 22.5 59.499s25.833 31.833 40.5 40.5l-45 132h-364l-83 -144h-72l404 688l236 -688c-19.333 0 -38.5 -8.16699 -57.5 -24.5
s-30.167 -37.5 -33.5 -63.5c-4 -29.333 5 -50.166 27 -62.499s45 -12.166 69 0.500977zM159 207.999h306l-111 336z" />
    <glyph glyph-name="aogonek" unicode="&#x105;" horiz-adv-x="608" 
d="M500 -150l11 -42.002c-16 -10.667 -34.667 -16 -56 -16c-35.333 0 -61.833 11 -79.5 33s-24.167 51 -19.5 87c3.33301 25.333 13.333 48 30 68s34.334 35.333 53.001 46c-1.33301 12.667 -0.666016 32 2.00098 58c-52.667 -61.333 -117.667 -92 -195 -92
c-68.667 0 -124.334 24.167 -167.001 72.5s-59.667 106.833 -51 175.5s40.167 127.167 94.5 175.5s115.833 72.5 184.5 72.5c77.333 0 134.666 -31 171.999 -93l11 85h64l-47 -384c-6 -48 -4.66699 -80 4 -96h-16c-19.333 0 -38.5 -8.16699 -57.5 -24.5
s-30.167 -37.5 -33.5 -63.5c-4 -29.333 5 -50.166 27 -62.499s45 -12.166 69 0.500977zM254 55.998c51.333 0 96.9971 18 136.997 54s63 79.333 69 130c6.66699 50.667 -5.66602 94 -36.999 130s-72.666 54 -123.999 54c-50.667 0 -96.167 -17.833 -136.5 -53.5
s-63.833 -79.167 -70.5 -130.5c-6 -51.333 6.83301 -94.833 38.5 -130.5s72.834 -53.5 123.501 -53.5z" />
    <glyph glyph-name="Cacute" unicode="&#x106;" horiz-adv-x="640" 
d="M377 736l96 128h80l-128 -128h-48zM350 56c74.667 0 141 24.333 199 73l18 -58c-30 -24.667 -65 -44 -105 -58s-78.667 -21 -116 -21c-96 0 -173.833 33.667 -233.5 101s-83.834 148.333 -72.501 243s55.166 175.667 131.499 243s162.5 101 258.5 101
c37.333 0 74.5 -7 111.5 -21s67.5 -33.333 91.5 -58l-34 -58c-46.667 48.667 -107 73 -181 73c-77.333 0 -146.666 -27.333 -207.999 -82s-96.666 -120.667 -105.999 -198s10 -143.333 58 -198s110.667 -82 188 -82z" />
    <glyph glyph-name="cacute" unicode="&#x107;" 
d="M266 544l95 128h80l-127 -128h-48zM401 104l18.998 -58c-43.333 -36 -97.666 -54 -162.999 -54c-79.333 0 -139.5 23.667 -180.5 71s-57.167 106.333 -48.5 177s39.5 129.667 92.5 177s118.833 71 197.5 71c63.333 0 113.666 -16.667 150.999 -50l-36 -58
c-29.333 29.333 -70.666 44 -123.999 44c-58 0 -107 -17.667 -147 -53s-63.333 -79 -70 -131c-6 -52.667 6.5 -96.5 37.5 -131.5s75.833 -52.5 134.5 -52.5c50.667 0 96.334 16 137.001 48z" />
    <glyph glyph-name="Cdotaccent" unicode="&#x10a;" horiz-adv-x="640" 
d="M431 720c-18 0 -32.333 6.16699 -43 18.5s-15 27.5 -13 45.5s10 33.167 24 45.5s30 18.5 48 18.5s32.333 -6.16699 43 -18.5s15 -27.5 13 -45.5s-10 -33.167 -24 -45.5s-30 -18.5 -48 -18.5zM350 56c74.667 0 141 24.333 199 73l18 -58c-30 -24.667 -65 -44 -105 -58
s-78.667 -21 -116 -21c-96 0 -173.833 33.667 -233.5 101s-83.834 148.333 -72.501 243s55.166 175.667 131.499 243s162.5 101 258.5 101c37.333 0 74.5 -7 111.5 -21s67.5 -33.333 91.5 -58l-34 -58c-46.667 48.667 -107 73 -181 73
c-77.333 0 -146.666 -27.333 -207.999 -82s-96.666 -120.667 -105.999 -198s10 -143.333 58 -198s110.667 -82 188 -82z" />
    <glyph glyph-name="cdotaccent" unicode="&#x10b;" 
d="M312 528c-18 0 -32.501 6.16699 -43.501 18.5s-15.5 27.5 -13.5 45.5c2.66699 18 10.834 33.167 24.501 45.5s29.5 18.5 47.5 18.5s32.5 -6.16699 43.5 -18.5s15.167 -27.5 12.5 -45.5c-2 -18 -9.83301 -33.167 -23.5 -45.5s-29.5 -18.5 -47.5 -18.5zM400.999 104
l18.998 -58c-43.333 -36 -97.666 -54 -162.999 -54c-79.333 0 -139.5 23.667 -180.5 71s-57.167 106.333 -48.5 177s39.5 129.667 92.5 177s118.833 71 197.5 71c63.333 0 113.666 -16.667 150.999 -50l-36 -58c-29.333 29.333 -70.666 44 -123.999 44
c-58 0 -107 -17.667 -147 -53s-63.333 -79 -70 -131c-6 -52.667 6.5 -96.5 37.5 -131.5s75.833 -52.5 134.5 -52.5c50.667 0 96.334 16 137.001 48z" />
    <glyph glyph-name="Ccaron" unicode="&#x10c;" horiz-adv-x="640" 
d="M502 864h75l-161 -136l-127 136h75l60 -72zM350 56c74.667 0 141 24.333 199 73l18 -58c-30 -24.667 -65 -44 -105 -58s-78.667 -21 -116 -21c-96 0 -173.833 33.667 -233.5 101s-83.834 148.333 -72.501 243s55.166 175.667 131.499 243s162.5 101 258.5 101
c37.333 0 74.5 -7 111.5 -21s67.5 -33.333 91.5 -58l-34 -58c-46.667 48.667 -107 73 -181 73c-77.333 0 -146.666 -27.333 -207.999 -82s-96.666 -120.667 -105.999 -198s10 -143.333 58 -198s110.667 -82 188 -82z" />
    <glyph glyph-name="ccaron" unicode="&#x10d;" 
d="M398 672h75l-160 -136l-128 136h75l60 -72zM401 104l18.998 -58c-43.333 -36 -97.666 -54 -162.999 -54c-79.333 0 -139.5 23.667 -180.5 71s-57.167 106.333 -48.5 177s39.5 129.667 92.5 177s118.833 71 197.5 71c63.333 0 113.666 -16.667 150.999 -50l-36 -58
c-29.333 29.333 -70.666 44 -123.999 44c-58 0 -107 -17.667 -147 -53s-63.333 -79 -70 -131c-6 -52.667 6.5 -96.5 37.5 -131.5s75.833 -52.5 134.5 -52.5c50.667 0 96.334 16 137.001 48z" />
    <glyph glyph-name="Dcaron" unicode="&#x10e;" horiz-adv-x="640" 
d="M422 864h75l-161 -136l-127 136h75l60 -72zM298 672c108 0 188.333 -31.667 241 -95s73 -143.666 61 -240.999c-12 -96.667 -52.5 -176.834 -121.5 -240.501s-156.5 -95.5 -262.5 -95.5h-185l82 672h185zM230 64c83.333 0 152.833 25.333 208.5 76s88.167 116 97.5 196
s-7.5 145.333 -50.5 196s-106.167 76 -189.5 76h-127l-66 -544h127z" />
    <glyph glyph-name="dcaron" unicode="&#x10f;" horiz-adv-x="720" 
d="M511 0h-63.998c-9.33301 16 -11.333 44 -6 84c-52.667 -61.333 -117.667 -92 -195 -92c-68.667 0 -124.334 24.167 -167.001 72.5s-59.667 106.833 -51 175.5s40.167 127.167 94.5 175.5s115.833 72.5 184.5 72.5c77.333 0 134.666 -31 171.999 -93l38 309h64l-74 -608
c-6 -48 -4.66699 -80 4 -96zM596.002 560l45 112h80l-85 -112h-40zM254.002 56c51.333 0 96.9971 18 136.997 54s63 79.333 69 130c6.66699 50.667 -5.66602 94 -36.999 130s-72.666 54 -123.999 54c-50.667 0 -96.167 -17.833 -136.5 -53.5s-63.833 -79.167 -70.5 -130.5
c-6 -51.333 6.83301 -94.833 38.5 -130.5s72.834 -53.5 123.501 -53.5z" />
    <glyph glyph-name="Dcroat" unicode="&#x110;" horiz-adv-x="656" 
d="M314 672c108 0 188.333 -31.667 241 -95s73 -143.666 61 -240.999c-12 -96.667 -52.5 -176.834 -121.5 -240.501s-156.5 -95.5 -262.5 -95.5h-185l38 312h-64l6 48h64l38 312h185zM246 64c83.333 0 152.833 25.333 208.5 76s88.167 116 97.5 196s-7.5 145.333 -50.5 196
s-106.167 76 -189.5 76h-127l-30 -248h64l-6 -48h-64l-30 -248h127z" />
    <glyph glyph-name="dcroat" unicode="&#x111;" horiz-adv-x="624" 
d="M628 564h-63.998l-57 -468c-6 -48 -4.66699 -80 4 -96h-64c-9.33301 16 -11.333 44 -6 84c-52.667 -61.333 -117.667 -92 -195 -92c-68.667 0 -124.334 24.167 -167.001 72.5s-59.667 106.833 -51 175.5s40.167 127.167 94.5 175.5s115.833 72.5 184.5 72.5
c77.333 0 134.666 -31 171.999 -93l21 169h-64l5 40h64l12 100h64l-12 -100h64zM254.002 56c51.333 0 96.9971 18 136.997 54s63 79.333 69 130c6.66699 50.667 -5.66602 94 -36.999 130s-72.666 54 -123.999 54c-50.667 0 -96.167 -17.833 -136.5 -53.5
s-63.833 -79.167 -70.5 -130.5c-6 -51.333 6.83301 -94.833 38.5 -130.5s72.834 -53.5 123.501 -53.5z" />
    <glyph glyph-name="Emacron" unicode="&#x112;" 
d="M427 752h-256l6 48h256zM473 608h-304l-29 -240h256l-8 -64h-256l-29 -240h304l-8 -64h-368l82 672h368z" />
    <glyph glyph-name="emacron" unicode="&#x113;" horiz-adv-x="544" 
d="M428 560h-256l5 48h256zM492 242c-1.33301 -13.333 -3.66504 -24.668 -6.99805 -34.001h-395c-0.666992 -45.333 14.666 -82 45.999 -110s72.666 -42 123.999 -42c57.333 0 110.666 17.333 159.999 52l17 -58c-8 -6.66699 -18.5 -13.667 -31.5 -21
s-34.333 -15.333 -64 -24s-60.167 -13 -91.5 -13c-76.667 0 -134.834 23.833 -174.501 71.5s-55.5 106.5 -47.5 176.5c8.66699 71.333 37.834 130.5 87.501 177.5s110.5 70.5 182.5 70.5c65.333 0 116.333 -22.167 153 -66.5s50.334 -104.166 41.001 -179.499z
M98.001 271.998h333.001c2.66699 38.667 -7.83301 73.667 -31.5 105s-61.167 47 -112.5 47c-52.667 0 -95.834 -15.667 -129.501 -47s-53.5 -66.333 -59.5 -105z" />
    <glyph glyph-name="Edotaccent" unicode="&#x116;" 
d="M295 720c-18 0 -32.333 6.16699 -43 18.5s-15 27.5 -13 45.5s10 33.167 24 45.5s30 18.5 48 18.5s32.333 -6.16699 43 -18.5s15 -27.5 13 -45.5s-10 -33.167 -24 -45.5s-30 -18.5 -48 -18.5zM473 608h-304l-29 -240h256l-8 -64h-256l-29 -240h304l-8 -64h-368l82 672h368
z" />
    <glyph glyph-name="edotaccent" unicode="&#x117;" horiz-adv-x="544" 
d="M302 528c-18 0 -32.501 6.16699 -43.501 18.5s-15.5 27.5 -13.5 45.5c2.66699 18 10.834 33.167 24.501 45.5s29.5 18.5 47.5 18.5s32.5 -6.16699 43.5 -18.5s15.167 -27.5 12.5 -45.5c-2 -18 -9.83301 -33.167 -23.5 -45.5s-29.5 -18.5 -47.5 -18.5zM491.999 242
c-1.33301 -13.333 -3.66504 -24.668 -6.99805 -34.001h-395c-0.666992 -45.333 14.666 -82 45.999 -110s72.666 -42 123.999 -42c57.333 0 110.666 17.333 159.999 52l17 -58c-8 -6.66699 -18.5 -13.667 -31.5 -21s-34.333 -15.333 -64 -24s-60.167 -13 -91.5 -13
c-76.667 0 -134.834 23.833 -174.501 71.5s-55.5 106.5 -47.5 176.5c8.66699 71.333 37.834 130.5 87.501 177.5s110.5 70.5 182.5 70.5c65.333 0 116.333 -22.167 153 -66.5s50.334 -104.166 41.001 -179.499zM98 271.998h333.001
c2.66699 38.667 -7.83301 73.667 -31.5 105s-61.167 47 -112.5 47c-52.667 0 -95.834 -15.667 -129.501 -47s-53.5 -66.333 -59.5 -105z" />
    <glyph glyph-name="Eogonek" unicode="&#x118;" 
d="M404 -150l11 -42.002c-16 -10.667 -34.667 -16 -56 -16c-35.333 0 -61.833 11 -79.5 33s-24.167 51 -19.5 87c4 34.667 19.667 64 47 88h-276l82 672h368l-8 -64h-304l-29 -240h256l-8 -64h-256l-29 -240h304l-8 -64c-19.333 0 -38.5 -8.16699 -57.5 -24.5
s-30.167 -37.5 -33.5 -63.5c-4 -29.333 5 -50.166 27 -62.499s45 -12.166 69 0.500977z" />
    <glyph glyph-name="eogonek" unicode="&#x119;" horiz-adv-x="544" 
d="M492 242c-1.33301 -13.333 -3.66699 -24.6709 -7 -34.0039h-395c-0.666992 -45.333 14.666 -82 45.999 -110s72.666 -42 123.999 -42c57.333 0 110.666 17.333 159.999 52l17 -58c-6 -5.33301 -14.5 -11.166 -25.5 -17.499s-28.167 -13.666 -51.5 -21.999
s-47.666 -13.833 -72.999 -16.5c-16 -1.33301 -30.5 -10 -43.5 -26s-20.833 -34.667 -23.5 -56c-4 -29.333 5 -50.166 27 -62.499s45 -12.166 69 0.500977l11 -42c-16 -10.667 -34.667 -16 -56 -16c-35.333 0 -61.833 11 -79.5 33s-24.167 51 -19.5 87
c4 31.333 17.667 58.666 41 81.999c-65.333 8 -114.5 35 -147.5 81s-45.5 101 -37.5 165c8.66699 71.333 37.834 130.5 87.501 177.5s110.5 70.5 182.5 70.5c65.333 0 116.333 -22.167 153 -66.5s50.334 -104.166 41.001 -179.499zM97.999 271.995h333.001
c2.66699 38.667 -7.83301 73.667 -31.5 105s-61.167 47 -112.5 47c-52.667 0 -95.834 -15.667 -129.501 -47s-53.5 -66.333 -59.5 -105z" />
    <glyph glyph-name="Ecaron" unicode="&#x11a;" 
d="M382 864h75l-161 -136l-127 136h75l60 -72zM473 608h-304l-29 -240h256l-8 -64h-256l-29 -240h304l-8 -64h-368l82 672h368z" />
    <glyph glyph-name="ecaron" unicode="&#x11b;" horiz-adv-x="544" 
d="M382 672h75l-160 -136l-128 136h75l60 -72zM492 242c-1.33301 -13.333 -3.66504 -24.668 -6.99805 -34.001h-395c-0.666992 -45.333 14.666 -82 45.999 -110s72.666 -42 123.999 -42c57.333 0 110.666 17.333 159.999 52l17 -58c-8 -6.66699 -18.5 -13.667 -31.5 -21
s-34.333 -15.333 -64 -24s-60.167 -13 -91.5 -13c-76.667 0 -134.834 23.833 -174.501 71.5s-55.5 106.5 -47.5 176.5c8.66699 71.333 37.834 130.5 87.501 177.5s110.5 70.5 182.5 70.5c65.333 0 116.333 -22.167 153 -66.5s50.334 -104.166 41.001 -179.499z
M98.001 271.998h333.001c2.66699 38.667 -7.83301 73.667 -31.5 105s-61.167 47 -112.5 47c-52.667 0 -95.834 -15.667 -129.501 -47s-53.5 -66.333 -59.5 -105z" />
    <glyph glyph-name="Gbreve" unicode="&#x11e;" horiz-adv-x="752" 
d="M516 860h47.998c-4 -34.667 -19.5 -64 -46.5 -88s-57.833 -36 -92.5 -36s-62.5 12 -83.5 36s-29.5 53.333 -25.5 88h48c-2.66699 -20.667 2.5 -38.5 15.5 -53.5s30.167 -22.5 51.5 -22.5c20.667 0 39.334 7.33301 56.001 22s26.334 32.667 29.001 54zM713.998 352
c-0.666992 -2 -1.16699 -4.66699 -1.5 -8s-0.5 -6 -0.5 -8c-11.333 -96 -52.333 -177.333 -123 -244s-153 -100 -247 -100c-94.667 0 -171.5 33.5 -230.5 100.5s-82.833 148.167 -71.5 243.5c11.333 94.667 54.666 175.667 129.999 243s160.666 101 255.999 101
c66 0 122.667 -16.833 170 -50.5s82 -79.5 104 -137.5l-67 -18c-16.667 43.333 -43.834 77.833 -81.501 103.5s-82.167 38.5 -133.5 38.5c-77.333 0 -146.666 -27.333 -207.999 -82s-96.666 -120.667 -105.999 -198s10 -143.333 58 -198s110.667 -82 188 -82
c68 0 128.333 21.833 181 65.5s88.334 99.167 107.001 166.5h-284l8 64h352z" />
    <glyph glyph-name="gbreve" unicode="&#x11f;" horiz-adv-x="608" 
d="M433 668h48c-4.66699 -34.667 -20.334 -64 -47.001 -88s-57.334 -36 -92.001 -36s-62.667 12 -84 36s-29.666 53.333 -24.999 88h48c-2.66699 -21.333 2.5 -39.333 15.5 -54s29.833 -22 50.5 -22c21.333 0 40.333 7.5 57 22.5s26.334 32.833 29.001 53.5zM490 480
l64.0029 -0.000976562l-56 -450c-12 -98 -42.833 -171.5 -92.5 -220.5s-114.834 -73.5 -195.501 -73.5c-86 0 -158.667 26.667 -218 80l39 56c53.333 -48 115.666 -72 186.999 -72c58.667 0 106.834 17.833 144.501 53.5s61.167 89.834 70.5 162.501l8 69
c-53.333 -62 -118.333 -93 -195 -93c-68.667 0 -124.334 24.167 -167.001 72.5s-59.667 106.833 -51 175.5s40.167 127.167 94.5 175.5s115.833 72.5 184.5 72.5c77.333 0 134.666 -31 171.999 -93zM254.003 55.999c51.333 0 96.9971 18 136.997 54s63 79.333 69 130
c6.66699 50.667 -5.66602 94 -36.999 130s-72.666 54 -123.999 54c-50.667 0 -96.167 -17.833 -136.5 -53.5s-63.833 -79.167 -70.5 -130.5c-6 -51.333 6.83301 -94.833 38.5 -130.5s72.834 -53.5 123.501 -53.5z" />
    <glyph glyph-name="Gdotaccent" unicode="&#x120;" horiz-adv-x="752" 
d="M423 720c-18 0 -32.333 6.16699 -43 18.5s-15 27.5 -13 45.5s10 33.167 24 45.5s30 18.5 48 18.5s32.333 -6.16699 43 -18.5s15 -27.5 13 -45.5s-10 -33.167 -24 -45.5s-30 -18.5 -48 -18.5zM714 352c-0.666992 -2 -1.16699 -4.66699 -1.5 -8s-0.5 -6 -0.5 -8
c-11.333 -96 -52.333 -177.333 -123 -244s-153 -100 -247 -100c-94.667 0 -171.5 33.5 -230.5 100.5s-82.833 148.167 -71.5 243.5c11.333 94.667 54.666 175.667 129.999 243s160.666 101 255.999 101c66 0 122.667 -16.833 170 -50.5s82 -79.5 104 -137.5l-67 -18
c-16.667 43.333 -43.834 77.833 -81.501 103.5s-82.167 38.5 -133.5 38.5c-77.333 0 -146.666 -27.333 -207.999 -82s-96.666 -120.667 -105.999 -198s10 -143.333 58 -198s110.667 -82 188 -82c68 0 128.333 21.833 181 65.5s88.334 99.167 107.001 166.5h-284l8 64h352z
" />
    <glyph glyph-name="gdotaccent" unicode="&#x121;" horiz-adv-x="608" 
d="M328 528c-18 0 -32.501 6.16699 -43.501 18.5s-15.5 27.5 -13.5 45.5c2.66699 18 10.834 33.167 24.501 45.5s29.5 18.5 47.5 18.5s32.5 -6.16699 43.5 -18.5s15.167 -27.5 12.5 -45.5c-2 -18 -9.83301 -33.167 -23.5 -45.5s-29.5 -18.5 -47.5 -18.5zM489.999 480
l64.0029 -0.000976562l-56 -450c-12 -98 -42.833 -171.5 -92.5 -220.5s-114.834 -73.5 -195.501 -73.5c-86 0 -158.667 26.667 -218 80l39 56c53.333 -48 115.666 -72 186.999 -72c58.667 0 106.834 17.833 144.501 53.5s61.167 89.834 70.5 162.501l8 69
c-53.333 -62 -118.333 -93 -195 -93c-68.667 0 -124.334 24.167 -167.001 72.5s-59.667 106.833 -51 175.5s40.167 127.167 94.5 175.5s115.833 72.5 184.5 72.5c77.333 0 134.666 -31 171.999 -93zM254.002 55.999c51.333 0 96.9971 18 136.997 54s63 79.333 69 130
c6.66699 50.667 -5.66602 94 -36.999 130s-72.666 54 -123.999 54c-50.667 0 -96.167 -17.833 -136.5 -53.5s-63.833 -79.167 -70.5 -130.5c-6 -51.333 6.83301 -94.833 38.5 -130.5s72.834 -53.5 123.501 -53.5z" />
    <glyph glyph-name="Gcommaaccent" unicode="&#x122;" horiz-adv-x="752" 
d="M714 352c-0.666992 -2 -1.16699 -4.66699 -1.5 -8s-0.5 -6 -0.5 -8c-11.333 -96 -52.333 -177.333 -123 -244s-153 -100 -247 -100c-94.667 0 -171.5 33.5 -230.5 100.5s-82.833 148.167 -71.5 243.5c11.333 94.667 54.666 175.667 129.999 243s160.666 101 255.999 101
c66 0 122.667 -16.833 170 -50.5s82 -79.5 104 -137.5l-67 -18c-16.667 43.333 -43.834 77.833 -81.501 103.5s-82.167 38.5 -133.5 38.5c-77.333 0 -146.666 -27.333 -207.999 -82s-96.666 -120.667 -105.999 -198s10 -143.333 58 -198s110.667 -82 188 -82
c68 0 128.333 21.833 181 65.5s88.334 99.167 107.001 166.5h-284l8 64h352zM249 -176l46 112h80l-86 -112h-40z" />
    <glyph glyph-name="gcommaaccent" unicode="&#x123;" horiz-adv-x="608" 
d="M431 656l-45 -112h-80l85 112h40zM490 480l64.0029 -0.000976562l-56 -450c-12 -98 -42.833 -171.5 -92.5 -220.5s-114.834 -73.5 -195.501 -73.5c-86 0 -158.667 26.667 -218 80l39 56c53.333 -48 115.666 -72 186.999 -72c58.667 0 106.834 17.833 144.501 53.5
s61.167 89.834 70.5 162.501l8 69c-53.333 -62 -118.333 -93 -195 -93c-68.667 0 -124.334 24.167 -167.001 72.5s-59.667 106.833 -51 175.5s40.167 127.167 94.5 175.5s115.833 72.5 184.5 72.5c77.333 0 134.666 -31 171.999 -93zM254.003 55.999
c51.333 0 96.9971 18 136.997 54s63 79.333 69 130c6.66699 50.667 -5.66602 94 -36.999 130s-72.666 54 -123.999 54c-50.667 0 -96.167 -17.833 -136.5 -53.5s-63.833 -79.167 -70.5 -130.5c-6 -51.333 6.83301 -94.833 38.5 -130.5s72.834 -53.5 123.501 -53.5z" />
    <glyph glyph-name="Hbar" unicode="&#x126;" horiz-adv-x="624" 
d="M629 572l-5 -40h-48l-65 -532h-64l37 304h-352l-37 -304h-64l65 532h-48l5 40h48l12 100h64l-12 -100h352l12 100h64l-12 -100h48zM492 368l20 164h-352l-20 -164h352z" />
    <glyph glyph-name="hbar" unicode="&#x127;" horiz-adv-x="560" 
d="M475 96c-6 -48 -4.66504 -79.999 4.00195 -95.999h-64c-8.66699 16 -10 48 -4 96l23 188c10.667 93.333 -26.333 140 -111 140c-40 0 -78.333 -13.333 -115 -40s-57.667 -61.334 -63 -104.001l-34 -280h-64l69 564h-64l5 40h64l12 100h64l-12 -100h64l-5 -40h-64
l-19 -158c16 21.333 40 40.333 72 57s64 25 96 25c67.333 0 114.166 -18.5 140.499 -55.5s35.166 -91.833 26.499 -164.5z" />
    <glyph glyph-name="Imacron" unicode="&#x12a;" horiz-adv-x="208" 
d="M283 752h-256l6 48h256zM31 0l82 672h64l-82 -672h-64z" />
    <glyph glyph-name="imacron" unicode="&#x12b;" horiz-adv-x="208" 
d="M260 560h-256l5 48h256zM154 480l-47 -384c-6 -48 -4.66699 -80 4 -96h-64c-8.66699 16 -10 48 -4 96l47 384h64z" />
    <glyph glyph-name="Iogonek" unicode="&#x12e;" horiz-adv-x="208" 
d="M100 -150l11 -42.001c-16 -10.667 -34.667 -16 -56 -16c-35.333 0 -61.833 11 -79.5 33s-24.167 51 -19.5 87c6 47.333 32 84.666 78 111.999l79 648h64l-82 -672c-19.333 0 -38.5 -8.16699 -57.5 -24.5s-30.167 -37.5 -33.5 -63.5c-4 -29.333 5 -50.166 27 -62.499
s45 -12.166 69 0.500977z" />
    <glyph glyph-name="iogonek" unicode="&#x12f;" horiz-adv-x="208" 
d="M132 560c-15.333 0 -27.833 5.5 -37.5 16.5s-13.834 24.167 -12.501 39.5c2 15.333 9.16699 28.5 21.5 39.5s26.166 16.5 41.499 16.5s27.833 -5.5 37.5 -16.5s13.5 -24.167 11.5 -39.5c-1.33301 -15.333 -8.16602 -28.5 -20.499 -39.5s-26.166 -16.5 -41.499 -16.5z
M100 -150l11.001 -42.002c-16 -10.667 -34.667 -16 -56 -16c-35.333 0 -61.833 11 -79.5 33s-24.167 51 -19.5 87c3.33301 25.333 13.166 48.833 29.499 70.5s33.833 37.5 52.5 47.5c-0.666992 15.333 1 37.333 5 66l47 384h64l-47 -384c-6 -48 -4.66699 -80 4 -96h-16
c-19.333 0 -38.5 -8.16699 -57.5 -24.5s-30.167 -37.5 -33.5 -63.5c-4 -29.333 5 -50.166 27 -62.499s45 -12.166 69 0.500977z" />
    <glyph glyph-name="Idotaccent" unicode="&#x130;" horiz-adv-x="208" 
d="M151 720c-18 0 -32.333 6.16699 -43 18.5s-15 27.5 -13 45.5s10 33.167 24 45.5s30 18.5 48 18.5s32.333 -6.16699 43 -18.5s15 -27.5 13 -45.5s-10 -33.167 -24 -45.5s-30 -18.5 -48 -18.5zM95 0h-64l82 672h64z" />
    <glyph glyph-name="dotlessi" unicode="&#x131;" horiz-adv-x="208" 
d="M154 480l-47 -384c-6 -48 -4.66699 -80 4 -96h-64c-8.66699 16 -10 48 -4 96l47 384h64z" />
    <glyph glyph-name="IJ" unicode="&#x132;" horiz-adv-x="656" 
d="M95 0h-64l82 672h64zM577 672l63.999 -0.000976562l-51 -416c-21.333 -176 -101.333 -264 -240 -264c-28 0 -55 6.33301 -81 19s-44.667 27 -56 43l47 52c7.33301 -14.667 19.833 -26.667 37.5 -36s37.834 -14 60.501 -14c50.667 0 89.167 16.333 115.5 49
s43.5 80.334 51.5 143.001z" />
    <glyph glyph-name="ij" unicode="&#x133;" horiz-adv-x="416" 
d="M132 560c-15.333 0 -27.833 5.5 -37.5 16.5s-13.834 24.167 -12.501 39.5c2 15.333 9.16699 28.5 21.5 39.5s26.166 16.5 41.499 16.5s27.833 -5.5 37.5 -16.5s13.5 -24.167 11.5 -39.5c-1.33301 -15.333 -8.16602 -28.5 -20.499 -39.5s-26.166 -16.5 -41.499 -16.5z
M340 560c-15.333 0 -27.833 5.5 -37.5 16.5s-13.834 24.167 -12.501 39.5c2 15.333 9.16699 28.5 21.5 39.5s26.166 16.5 41.499 16.5s27.833 -5.5 37.5 -16.5s13.5 -24.167 11.5 -39.5c-1.33301 -15.333 -8.16602 -28.5 -20.499 -39.5s-26.166 -16.5 -41.499 -16.5z
M154 480l-47 -384c-6 -48 -4.66699 -80 4 -96h-64c-8.66699 16 -10 48 -4 96l47 384h64zM233 -44l64.999 524.001h64l-63 -514c-4.66699 -38.667 -12.167 -72.167 -22.5 -100.5s-20.833 -50 -31.5 -65s-24 -27.5 -40 -37.5s-29.333 -16.5 -40 -19.5s-23.667 -5.5 -39 -7.5
l-9 58c35.333 7.33301 61.833 23.166 79.5 47.499s29.834 62.5 36.501 114.5z" />
    <glyph glyph-name="Kcommaaccent" unicode="&#x136;" horiz-adv-x="528" 
d="M192 339l271 -339h-88l-243 304l-37 -304h-64l82 672h64l-37 -304l301 304h88zM113 -176l46 112h80l-86 -112h-40z" />
    <glyph glyph-name="kcommaaccent" unicode="&#x137;" horiz-adv-x="480" 
d="M189 248l242 -248h-88l-221 222l-27 -222h-64l86 704h64l-53 -434l258 210h88zM105 -176l46 112h80l-86 -112h-40z" />
    <glyph glyph-name="Lacute" unicode="&#x139;" horiz-adv-x="464" 
d="M121 736l96 128h80l-128 -128h-48zM103 64h288l-8 -64h-352l82 672h64z" />
    <glyph glyph-name="lacute" unicode="&#x13a;" horiz-adv-x="208" 
d="M125 768l96 128h80l-128 -128h-48zM107 96c-6 -48 -4.66699 -80 4 -96h-64c-8.66699 16 -10 48 -4 96l74 608h64z" />
    <glyph glyph-name="Lcommaaccent" unicode="&#x13b;" horiz-adv-x="464" 
d="M103 64h288l-8 -64h-352l82 672h64zM105 -176l46 112h80l-86 -112h-40z" />
    <glyph glyph-name="lcommaaccent" unicode="&#x13c;" horiz-adv-x="208" 
d="M107 96c-6 -48 -4.66699 -80 4 -96h-64c-8.66699 16 -10 48 -4 96l74 608h64zM-31 -176l46 112h80l-86 -112h-40z" />
    <glyph glyph-name="Lcaron" unicode="&#x13d;" horiz-adv-x="480" 
d="M103 64h288l-8 -64h-352l82 672h64zM340 560l45 112h80l-85 -112h-40z" />
    <glyph glyph-name="lcaron" unicode="&#x13e;" horiz-adv-x="304" 
d="M107 96c-6 -48 -4.66699 -80 4 -96h-64c-8.66699 16 -10 48 -4 96l74 608h64zM196 560l45 112h80l-85 -112h-40z" />
    <glyph glyph-name="Ldot" unicode="&#x13f;" horiz-adv-x="480" 
d="M103 64h288l-8 -64h-352l82 672h64zM373 312c-18 0 -32.499 6.16699 -43.499 18.5s-15.167 27.5 -12.5 45.5c2 18 10 33.167 24 45.5s30 18.5 48 18.5s32.333 -6.16699 43 -18.5s15 -27.5 13 -45.5c-2.66699 -18 -10.834 -33.167 -24.501 -45.5s-29.5 -18.5 -47.5 -18.5z
" />
    <glyph glyph-name="ldot" unicode="&#x140;" horiz-adv-x="336" 
d="M107 96c-6 -48 -4.66699 -80 4 -96h-64c-8.66699 16 -10 48 -4 96l74 608h64zM245 312c-18 0 -32.499 6.16699 -43.499 18.5s-15.167 27.5 -12.5 45.5c2 18 10 33.167 24 45.5s30 18.5 48 18.5s32.333 -6.16699 43 -18.5s15 -27.5 13 -45.5
c-2.66699 -18 -10.834 -33.167 -24.501 -45.5s-29.5 -18.5 -47.5 -18.5z" />
    <glyph glyph-name="Lslash" unicode="&#x141;" horiz-adv-x="480" 
d="M119 64h288l-8 -64h-352l38 310l-66 -18l5 40l66 18l39 322h64l-37 -305l66 18l-5 -40l-66 -18z" />
    <glyph glyph-name="lslash" unicode="&#x142;" horiz-adv-x="240" 
d="M218 349l-67 -18l-28 -235c-6 -48 -4.66699 -80 4 -96h-64c-8.66699 16 -10 48 -4 96l26 218l-66 -18l5 40l66 18l43 350h64l-41 -333l67 18z" />
    <glyph glyph-name="Nacute" unicode="&#x143;" horiz-adv-x="672" 
d="M321 736l96 128h80l-128 -128h-48zM557 -16l-398 536l-64 -520h-64l84 688l398 -536l64 520h64z" />
    <glyph glyph-name="nacute" unicode="&#x144;" horiz-adv-x="544" 
d="M234 544l95 128h80l-127 -128h-48zM459 96c-6 -48 -4.66504 -79.999 4.00195 -95.999h-64c-8.66699 16 -10 48 -4 96l23 188c10.667 93.333 -26.333 140 -111 140c-40 0 -78.333 -13.333 -115 -40s-57.667 -61.334 -63 -104.001l-34 -280h-64l59 480h64l-9 -74
c16 21.333 40 40.333 72 57s64 25 96 25c67.333 0 114.166 -18.5 140.499 -55.5s35.166 -91.833 26.499 -164.5z" />
    <glyph glyph-name="Ncommaaccent" unicode="&#x145;" horiz-adv-x="672" 
d="M557 -16l-398 536l-64 -520h-64l84 688l398 -536l64 520h64zM201 -176l46 112h80l-86 -112h-40z" />
    <glyph glyph-name="ncommaaccent" unicode="&#x146;" horiz-adv-x="544" 
d="M459 96c-6 -48 -4.66504 -79.999 4.00195 -95.999h-64c-8.66699 16 -10 48 -4 96l23 188c10.667 93.333 -26.333 140 -111 140c-40 0 -78.333 -13.333 -115 -40s-57.667 -61.334 -63 -104.001l-34 -280h-64l59 480h64l-9 -74c16 21.333 40 40.333 72 57s64 25 96 25
c67.333 0 114.166 -18.5 140.499 -55.5s35.166 -91.833 26.499 -164.5zM137.002 -175.999l46 112h80l-86 -112h-40z" />
    <glyph glyph-name="Ncaron" unicode="&#x147;" horiz-adv-x="672" 
d="M470 864h75l-161 -136l-127 136h75l60 -72zM557 -16l-398 536l-64 -520h-64l84 688l398 -536l64 520h64z" />
    <glyph glyph-name="ncaron" unicode="&#x148;" horiz-adv-x="544" 
d="M374 672h75l-160 -136l-128 136h75l60 -72zM459 96c-6 -48 -4.66504 -79.999 4.00195 -95.999h-64c-8.66699 16 -10 48 -4 96l23 188c10.667 93.333 -26.333 140 -111 140c-40 0 -78.333 -13.333 -115 -40s-57.667 -61.334 -63 -104.001l-34 -280h-64l59 480h64l-9 -74
c16 21.333 40 40.333 72 57s64 25 96 25c67.333 0 114.166 -18.5 140.499 -55.5s35.166 -91.833 26.499 -164.5z" />
    <glyph glyph-name="Eng" unicode="&#x14a;" horiz-adv-x="672" 
d="M577 672l63.999 0.000976562l-86 -706c-4.66699 -38.667 -12.167 -72.167 -22.5 -100.5s-20.833 -50 -31.5 -65s-24 -27.5 -40 -37.5s-29.333 -16.5 -40 -19.5s-23.667 -5.5 -39 -7.5l-9 58c35.333 7.33301 61.833 23.166 79.5 47.499s29.834 62.5 36.501 114.5l13 102
l-343 462l-64 -520h-64l84 688l398 -536z" />
    <glyph glyph-name="eng" unicode="&#x14b;" horiz-adv-x="544" 
d="M313 488c67.333 0 114.167 -18.498 140.5 -55.498s35.166 -91.833 26.499 -164.5l-37 -302c-4.66699 -38.667 -12.167 -72.167 -22.5 -100.5s-20.833 -50 -31.5 -65s-24 -27.5 -40 -37.5s-29.333 -16.5 -40 -19.5s-23.667 -5.5 -39 -7.5l-9 58
c35.333 7.33301 61.833 23.166 79.5 47.499s29.834 62.5 36.501 114.5l41 328c10.667 93.333 -26.333 140 -111 140c-40 0 -78.333 -13.333 -115 -40s-57.667 -61.334 -63 -104.001l-34 -280h-64l59 480h64l-9 -74c16 21.333 40 40.333 72 57s64 25 96 25z" />
    <glyph glyph-name="Omacron" unicode="&#x14c;" horiz-adv-x="768" 
d="M563 752h-256l6 48h256zM426 680c94.667 0 171.5 -33.5 230.5 -100.5s82.833 -148.167 71.5 -243.5c-11.333 -94.667 -54.666 -175.667 -129.999 -243s-160.666 -101 -255.999 -101c-94.667 0 -171.5 33.5 -230.5 100.5s-82.833 148.167 -71.5 243.5
c11.333 94.667 54.666 175.667 129.999 243s160.666 101 255.999 101zM350 56c78 0 147.5 27.167 208.5 81.5s96.167 120.5 105.5 198.5s-9.83398 144.167 -57.501 198.5s-110.5 81.5 -188.5 81.5s-147.5 -27.167 -208.5 -81.5s-96.167 -120.5 -105.5 -198.5
s9.83398 -144.167 57.501 -198.5s110.5 -81.5 188.5 -81.5z" />
    <glyph glyph-name="omacron" unicode="&#x14d;" horiz-adv-x="576" 
d="M444 560h-256l5 48h256zM307 488c68.667 0 124.169 -24.167 166.502 -72.5s59.166 -106.833 50.499 -175.5s-40 -127.167 -94 -175.5s-115.333 -72.5 -184 -72.5s-124.334 24.167 -167.001 72.5s-59.667 106.833 -51 175.5s40.167 127.167 94.5 175.5
s115.833 72.5 184.5 72.5zM254.002 56c50 0 95.333 18.167 136 54.5s64 79.5 70 129.5s-6.83301 93.167 -38.5 129.5s-72.5 54.5 -122.5 54.5s-95.5 -18.167 -136.5 -54.5s-64.5 -79.5 -70.5 -129.5s7 -93.167 39 -129.5s73 -54.5 123 -54.5z" />
    <glyph glyph-name="Ohungarumlaut" unicode="&#x150;" horiz-adv-x="768" 
d="M289 736l46 112h88l-86 -112h-48zM513 736l46 112h88l-86 -112h-48zM426 680c94.667 0 171.5 -33.5 230.5 -100.5s82.833 -148.167 71.5 -243.5c-11.333 -94.667 -54.666 -175.667 -129.999 -243s-160.666 -101 -255.999 -101c-94.667 0 -171.5 33.5 -230.5 100.5
s-82.833 148.167 -71.5 243.5c11.333 94.667 54.666 175.667 129.999 243s160.666 101 255.999 101zM350 56c78 0 147.5 27.167 208.5 81.5s96.167 120.5 105.5 198.5s-9.83398 144.167 -57.501 198.5s-110.5 81.5 -188.5 81.5s-147.5 -27.167 -208.5 -81.5
s-96.167 -120.5 -105.5 -198.5s9.83398 -144.167 57.501 -198.5s110.5 -81.5 188.5 -81.5z" />
    <glyph glyph-name="ohungarumlaut" unicode="&#x151;" horiz-adv-x="576" 
d="M170 544l45 112h88l-85 -112h-48zM394 544l45 112h88l-85 -112h-48zM307 488c68.667 0 124.169 -24.167 166.502 -72.5s59.166 -106.833 50.499 -175.5s-40 -127.167 -94 -175.5s-115.333 -72.5 -184 -72.5s-124.334 24.167 -167.001 72.5s-59.667 106.833 -51 175.5
s40.167 127.167 94.5 175.5s115.833 72.5 184.5 72.5zM254.002 56c50 0 95.333 18.167 136 54.5s64 79.5 70 129.5s-6.83301 93.167 -38.5 129.5s-72.5 54.5 -122.5 54.5s-95.5 -18.167 -136.5 -54.5s-64.5 -79.5 -70.5 -129.5s7 -93.167 39 -129.5s73 -54.5 123 -54.5z" />
    <glyph glyph-name="OE" unicode="&#x152;" horiz-adv-x="1088" 
d="M1065 608h-303.998l-29 -240h256l-8 -64h-256l-29 -240h304l-8 -64h-368l16 136c-36.667 -44 -81.167 -79 -133.5 -105s-106.833 -39 -163.5 -39c-94.667 0 -171.5 33.5 -230.5 100.5s-82.833 148.167 -71.5 243.5c11.333 94.667 54.666 175.667 129.999 243
s160.666 101 255.999 101c56.667 0 108 -13 154 -39s82.333 -61 109 -105l16 136h368zM350.002 56c78 0 147.5 27.167 208.5 81.5s96.167 120.5 105.5 198.5s-9.83398 144.167 -57.501 198.5s-110.5 81.5 -188.5 81.5s-147.5 -27.167 -208.5 -81.5
s-96.167 -120.5 -105.5 -198.5s9.83398 -144.167 57.501 -198.5s110.5 -81.5 188.5 -81.5z" />
    <glyph glyph-name="oe" unicode="&#x153;" horiz-adv-x="976" 
d="M924 242c-1.33301 -13.333 -3.66504 -24.6689 -6.99805 -34.002h-395c-0.666992 -45.333 14.666 -82 45.999 -110s72.666 -42 123.999 -42c57.333 0 110.666 17.333 159.999 52l17 -58c-8 -6.66699 -18.5 -13.667 -31.5 -21s-34.333 -15.333 -64 -24
s-60.167 -13 -91.5 -13c-50.667 0 -93.834 11 -129.501 33s-61.5 52 -77.5 90c-26.667 -37.333 -60.167 -67.166 -100.5 -89.499s-83.166 -33.5 -128.499 -33.5c-68.667 0 -124.334 24.167 -167.001 72.5s-59.667 106.833 -51 175.5s40.167 127.167 94.5 175.5
s115.833 72.5 184.5 72.5c44.667 0 84.5 -11 119.5 -33s61.167 -51.667 78.5 -89c24.667 38 56.334 67.833 95.001 89.5s82 32.5 130 32.5c65.333 0 116.333 -22.167 153 -66.5s50.334 -104.166 41.001 -179.499zM254.001 55.9971c50 0 95.333 18.167 136 54.5
s64 79.5 70 129.5s-6.83301 93.167 -38.5 129.5s-72.5 54.5 -122.5 54.5s-95.5 -18.167 -136.5 -54.5s-64.5 -79.5 -70.5 -129.5s7 -93.167 39 -129.5s73 -54.5 123 -54.5zM530.001 271.997h333.001c2.66699 38.667 -7.83301 73.667 -31.5 105s-61.167 47 -112.5 47
c-52.667 0 -95.834 -15.667 -129.501 -47s-53.5 -66.333 -59.5 -105z" />
    <glyph glyph-name="Racute" unicode="&#x154;" horiz-adv-x="576" 
d="M249 736l96 128h80l-128 -128h-48zM495 0h-75.998l-152 240h-143l-29 -240h-64l82 672h192c85.333 0 147 -18.833 185 -56.5s53 -89.167 45 -154.5c-6.66699 -55.333 -27.334 -102.5 -62.001 -141.5s-79.334 -63.833 -134.001 -74.5zM169.002 608l-37.002 -304h160
c47.333 0 87.333 12.167 120 36.5s52.334 62.5 59.001 114.5c6 52 -5.16699 90.5 -33.5 115.5s-66.166 37.5 -113.499 37.5h-155z" />
    <glyph glyph-name="racute" unicode="&#x155;" horiz-adv-x="384" 
d="M138 544l95 128h80l-127 -128h-48zM141 377c20.667 34 51.334 61 92.001 81s84 30 130 30l-9 -73c-34.667 8 -68.334 6.66699 -101.001 -4c-33.333 -11.333 -61.833 -32.833 -85.5 -64.5s-38.5 -70.5 -44.5 -116.5l-28 -230h-64l59 480h64z" />
    <glyph glyph-name="Rcommaaccent" unicode="&#x156;" horiz-adv-x="576" 
d="M495 0h-75.998l-152 240h-143l-29 -240h-64l82 672h192c85.333 0 147 -18.833 185 -56.5s53 -89.167 45 -154.5c-6.66699 -55.333 -27.334 -102.5 -62.001 -141.5s-79.334 -63.833 -134.001 -74.5zM169.002 608l-37.002 -304h160c47.333 0 87.333 12.167 120 36.5
s52.334 62.5 59.001 114.5c6 52 -5.16699 90.5 -33.5 115.5s-66.166 37.5 -113.499 37.5h-155zM137 -176l46 112h80l-86 -112h-40z" />
    <glyph glyph-name="rcommaaccent" unicode="&#x157;" horiz-adv-x="384" 
d="M141 377c20.667 34 51.334 61 92.001 81s84 30 130 30l-9 -73c-34.667 8 -68.334 6.66699 -101.001 -4c-33.333 -11.333 -61.833 -32.833 -85.5 -64.5s-38.5 -70.5 -44.5 -116.5l-28 -230h-64l59 480h64zM-23 -176l46 112h80l-86 -112h-40z" />
    <glyph glyph-name="Rcaron" unicode="&#x158;" horiz-adv-x="576" 
d="M390 864h75l-161 -136l-127 136h75l60 -72zM495 0h-75.998l-152 240h-143l-29 -240h-64l82 672h192c85.333 0 147 -18.833 185 -56.5s53 -89.167 45 -154.5c-6.66699 -55.333 -27.334 -102.5 -62.001 -141.5s-79.334 -63.833 -134.001 -74.5zM169.002 608l-37.002 -304
h160c47.333 0 87.333 12.167 120 36.5s52.334 62.5 59.001 114.5c6 52 -5.16699 90.5 -33.5 115.5s-66.166 37.5 -113.499 37.5h-155z" />
    <glyph glyph-name="rcaron" unicode="&#x159;" horiz-adv-x="384" 
d="M310 672h75l-160 -136l-128 136h75l60 -72zM141 377c20.667 34 51.334 61 92.001 81s84 30 130 30l-9 -73c-34.667 8 -68.334 6.66699 -101.001 -4c-33.333 -11.333 -61.833 -32.833 -85.5 -64.5s-38.5 -70.5 -44.5 -116.5l-28 -230h-64l59 480h64z" />
    <glyph glyph-name="Sacute" unicode="&#x15a;" horiz-adv-x="560" 
d="M281 736l96 128h80l-128 -128h-48zM299 380c80.667 -16.667 136.167 -39.8301 166.5 -69.4971s42.166 -72.834 35.499 -129.501c-6 -51.333 -34 -95.666 -84 -132.999s-109 -56 -177 -56c-35.333 0 -67.833 4.66699 -97.5 14s-53.5 21 -71.5 35s-31.5 25.667 -40.5 35
s-15.5 17.666 -19.5 24.999l39 57c19.333 -30 46 -54.5 80 -73.5s74 -28.5 120 -28.5c47.333 0 89.333 12.5 126 37.5s57 55.5 61 91.5c4 33.333 -5.16699 60.666 -27.5 81.999s-63.833 37.666 -124.5 48.999c-83.333 15.333 -139.166 37.833 -167.499 67.5
s-39.5 68.834 -33.5 117.501c6 50.667 31.667 93.167 77 127.5s101.666 51.5 168.999 51.5c80.667 0 144 -26.667 190 -80l-36 -55c-38 47.333 -92.333 71 -163 71c-45.333 0 -84.166 -9.83301 -116.499 -29.5s-50.833 -46.834 -55.5 -81.501
c-4.66699 -34 4.83301 -60.333 28.5 -79s64.167 -34 121.5 -46z" />
    <glyph glyph-name="sacute" unicode="&#x15b;" horiz-adv-x="448" 
d="M210 544l95 128h80l-127 -128h-48zM240 280c59.333 -12.667 99.1689 -30.999 119.502 -54.999s28.166 -54.333 23.499 -91c-4.66699 -38.667 -24.5 -72 -59.5 -100s-79.833 -42 -134.5 -42c-42.667 0 -80.667 7.66699 -114 23s-56.333 30.333 -69 45l35 58
c15.333 -18.667 37.333 -33.5 66 -44.5s58 -16.833 88 -17.5c30.667 -0.666992 58.167 5.5 82.5 18.5s38.166 31.833 41.499 56.5c2.66699 23.333 -5.5 41.666 -24.5 54.999s-44.167 23.333 -75.5 30c-67.333 13.333 -112 30.666 -134 51.999s-31 50.333 -27 87
c5.33301 40 25.666 72.167 60.999 96.5s80 36.5 134 36.5c56 0 106.667 -15.333 152 -46l-31 -58c-10 8.66699 -27.667 17.334 -53 26.001s-50.333 13.334 -75 14.001c-76.667 2 -118 -21.333 -124 -70c-1.33301 -10.667 1.33398 -20.334 8.00098 -29.001
s17 -15.834 31 -21.501s26.5 -10.167 37.5 -13.5s24.833 -6.66602 41.5 -9.99902z" />
    <glyph glyph-name="Scedilla" unicode="&#x15e;" horiz-adv-x="560" 
d="M501 181c-6 -48 -31.168 -90.1641 -75.501 -126.497s-97.833 -56.833 -160.5 -61.5l-47 -44c42 10 76.5 3.83301 103.5 -18.5s38.167 -52.5 33.5 -90.5c-5.33301 -41.333 -23.666 -75.666 -54.999 -102.999s-69.333 -41 -114 -41c-52.667 0 -90.334 21 -113.001 63l49 41
c11.333 -32 37.333 -48 78 -48c28 0 52.167 8.83301 72.5 26.5s31.833 38.5 34.5 62.5c2.66699 20 -2.66602 36.833 -15.999 50.5s-31.666 20.5 -54.999 20.5c-24.667 0 -48 -8 -70 -24l-26 48l62 58c-28.667 3.33301 -55.334 10 -80.001 20s-44.5 21.167 -59.5 33.5
s-26.5 22.833 -34.5 31.5s-13.667 16 -17 22l39 57c19.333 -30 46 -54.5 80 -73.5s74 -28.5 120 -28.5c47.333 0 89.333 12.5 126 37.5s57 55.5 61 91.5c4 33.333 -5.16699 60.666 -27.5 81.999s-63.833 37.666 -124.5 48.999c-83.333 15.333 -139.166 37.833 -167.499 67.5
s-39.5 68.834 -33.5 117.501c6 50.667 31.667 93.167 77 127.5s101.666 51.5 168.999 51.5c80.667 0 144 -26.667 190 -80l-36 -55c-38 47.333 -92.333 71 -163 71c-45.333 0 -84.166 -9.83301 -116.499 -29.5s-50.833 -46.834 -55.5 -81.501
c-4.66699 -34 4.83301 -60.333 28.5 -79s64.167 -34 121.5 -46c80.667 -16.667 136.167 -39.834 166.5 -69.501s42.166 -72.834 35.499 -129.501z" />
    <glyph glyph-name="scedilla" unicode="&#x15f;" horiz-adv-x="448" 
d="M383 134c-4 -35.333 -20.8301 -66.333 -50.4971 -93s-67.834 -42.667 -114.501 -48l-48 -44c42 10 76.5 3.83301 103.5 -18.5s38.167 -52.5 33.5 -90.5c-5.33301 -41.333 -23.666 -75.666 -54.999 -102.999s-69.333 -41 -114 -41c-52.667 0 -90.334 21 -113.001 63l49 41
c11.333 -32 37.333 -48 78 -48c28 0 52.167 8.83301 72.5 26.5s31.833 38.5 34.5 62.5c2.66699 20 -2.66602 36.833 -15.999 50.5s-31.666 20.5 -54.999 20.5c-24.667 0 -48 -8 -70 -24l-26 48l61 58c-34.667 4 -65.334 13 -92.001 27s-45 27 -55 39l35 58
c15.333 -18.667 37.333 -33.5 66 -44.5s58 -16.833 88 -17.5c30.667 -0.666992 58.167 5.5 82.5 18.5s38.166 31.833 41.499 56.5c2.66699 23.333 -5.5 41.666 -24.5 54.999s-44.167 23.333 -75.5 30c-67.333 13.333 -112 30.666 -134 51.999s-31 50.333 -27 87
c5.33301 40 25.666 72.167 60.999 96.5s80 36.5 134 36.5c56 0 106.667 -15.333 152 -46l-31 -58c-10 8.66699 -27.667 17.334 -53 26.001s-50.333 13.334 -75 14.001c-76.667 2 -118 -21.333 -124 -70c-1.33301 -10.667 1.33398 -20.334 8.00098 -29.001
s17 -15.834 31 -21.501s26.5 -10.167 37.5 -13.5s24.833 -6.66602 41.5 -9.99902c59.333 -12.667 99.166 -31 119.499 -55s28.166 -54.333 23.499 -91z" />
    <glyph glyph-name="Scaron" unicode="&#x160;" horiz-adv-x="560" 
d="M414 864h75l-161 -136l-127 136h75l60 -72zM299 380c80.667 -16.667 136.167 -39.8301 166.5 -69.4971s42.166 -72.834 35.499 -129.501c-6 -51.333 -34 -95.666 -84 -132.999s-109 -56 -177 -56c-35.333 0 -67.833 4.66699 -97.5 14s-53.5 21 -71.5 35
s-31.5 25.667 -40.5 35s-15.5 17.666 -19.5 24.999l39 57c19.333 -30 46 -54.5 80 -73.5s74 -28.5 120 -28.5c47.333 0 89.333 12.5 126 37.5s57 55.5 61 91.5c4 33.333 -5.16699 60.666 -27.5 81.999s-63.833 37.666 -124.5 48.999
c-83.333 15.333 -139.166 37.833 -167.499 67.5s-39.5 68.834 -33.5 117.501c6 50.667 31.667 93.167 77 127.5s101.666 51.5 168.999 51.5c80.667 0 144 -26.667 190 -80l-36 -55c-38 47.333 -92.333 71 -163 71c-45.333 0 -84.166 -9.83301 -116.499 -29.5
s-50.833 -46.834 -55.5 -81.501c-4.66699 -34 4.83301 -60.333 28.5 -79s64.167 -34 121.5 -46z" />
    <glyph glyph-name="scaron" unicode="&#x161;" horiz-adv-x="448" 
d="M342 672h75l-160 -136l-128 136h75l60 -72zM240 280c59.333 -12.667 99.1689 -30.999 119.502 -54.999s28.166 -54.333 23.499 -91c-4.66699 -38.667 -24.5 -72 -59.5 -100s-79.833 -42 -134.5 -42c-42.667 0 -80.667 7.66699 -114 23s-56.333 30.333 -69 45l35 58
c15.333 -18.667 37.333 -33.5 66 -44.5s58 -16.833 88 -17.5c30.667 -0.666992 58.167 5.5 82.5 18.5s38.166 31.833 41.499 56.5c2.66699 23.333 -5.5 41.666 -24.5 54.999s-44.167 23.333 -75.5 30c-67.333 13.333 -112 30.666 -134 51.999s-31 50.333 -27 87
c5.33301 40 25.666 72.167 60.999 96.5s80 36.5 134 36.5c56 0 106.667 -15.333 152 -46l-31 -58c-10 8.66699 -27.667 17.334 -53 26.001s-50.333 13.334 -75 14.001c-76.667 2 -118 -21.333 -124 -70c-1.33301 -10.667 1.33398 -20.334 8.00098 -29.001
s17 -15.834 31 -21.501s26.5 -10.167 37.5 -13.5s24.833 -6.66602 41.5 -9.99902z" />
    <glyph glyph-name="uni0162" unicode="&#x162;" 
d="M313 608l-74.002 -608.001l-53 -51c42 10 76.5 3.83301 103.5 -18.5s38.167 -52.5 33.5 -90.5c-5.33301 -41.333 -23.666 -75.666 -54.999 -102.999s-69.333 -41 -114 -41c-52.667 0 -90.334 21 -113.001 63l49 41c11.333 -32 37.333 -48 78 -48
c28 0 52.167 8.83301 72.5 26.5s31.833 38.5 34.5 62.5c2.66699 20 -2.66602 36.833 -15.999 50.5s-31.666 20.5 -54.999 20.5c-24.667 0 -48 -8 -70 -24l-26 48l67 64l74 608h-176l8 64h416l-8 -64h-176z" />
    <glyph glyph-name="uni0163" unicode="&#x163;" horiz-adv-x="320" 
d="M106 -51c42 10 76.5 3.83203 103.5 -18.501s38.167 -52.5 33.5 -90.5c-5.33301 -41.333 -23.666 -75.666 -54.999 -102.999s-69.333 -41 -114 -41c-52.667 0 -90.334 21 -113.001 63l49 41c11.333 -32 37.333 -48 78 -48c28 0 52.167 8.83301 72.5 26.5
s31.833 38.5 34.5 62.5c2.66699 20 -2.66602 36.833 -15.999 50.5s-31.666 20.5 -54.999 20.5c-24.667 0 -48 -8 -70 -24l-26 48l78 74c-25.333 21.333 -33.333 70.333 -24 147l32 259h-64l8 64h64l23 192h64l-23 -192h96l-8 -64h-96l-33 -264
c-5.33301 -46 -2.33301 -73.667 9 -83c20 -16 45.667 -16.667 77 -2l-8 -65c-18.667 -6.66699 -37.334 -10 -56.001 -10c-6.66699 0 -11.334 0.333008 -14.001 1z" />
    <glyph glyph-name="Tcaron" unicode="&#x164;" 
d="M382 864h75l-161 -136l-127 136h75l60 -72zM81 672h416l-8 -64h-176l-74 -608h-64l74 608h-176z" />
    <glyph glyph-name="tcaron" unicode="&#x165;" horiz-adv-x="448" 
d="M82 157l32.002 259.001h-64l8 64h64l23 192h64l-23 -192h96l-8 -64h-96l-33 -264c-5.33301 -46 -2.33301 -73.667 9 -83c20 -16 45.667 -16.667 77 -2l-8 -65c-18.667 -6.66699 -37.334 -10 -56.001 -10c-28.667 0 -50.334 7.5 -65.001 22.5s-22.5 34.667 -23.5 59
s0.166992 52.166 3.5 83.499zM324.002 560.001l45 112h80l-85 -112h-40z" />
    <glyph glyph-name="Tbar" unicode="&#x166;" 
d="M489 608h-176l-33 -276h64l-5 -40h-64l-36 -292h-64l36 292h-64l5 40h64l33 276h-176l8 64h416z" />
    <glyph glyph-name="tbar" unicode="&#x167;" horiz-adv-x="320" 
d="M274 416l-95.998 0.000976562l-15 -124h96l-5 -40h-96l-13 -100c-5.33301 -46 -2.33301 -73.667 9 -83c20 -16 45.667 -16.667 77 -2l-8 -65c-18.667 -6.66699 -37.334 -10 -56.001 -10c-28.667 0 -50.334 7.5 -65.001 22.5s-22.5 34.667 -23.5 59
s0.166992 52.166 3.5 83.499l12 95h-64l5 40h64l15 124h-64l8 64h64l23 192h64l-23 -192h96z" />
    <glyph glyph-name="Umacron" unicode="&#x16a;" horiz-adv-x="592" 
d="M475 752h-256l6 48h256zM513 672l64.001 -0.000976562l-48 -392c-11.333 -92 -41 -163 -89 -213s-110 -75 -186 -75c-78 0 -134.5 24.833 -169.5 74.5s-46.833 120.834 -35.5 213.501l48 392h64l-49 -400c-8.66699 -70.667 0.333008 -124.334 27 -161.001
s67.667 -55 123 -55s100.666 18.333 135.999 55s57.333 90.334 66 161.001z" />
    <glyph glyph-name="umacron" unicode="&#x16b;" horiz-adv-x="544" 
d="M424 560h-256l5 48h256zM447 0l-63.999 -0.000976562c-8.66699 15.333 -11 39.666 -7 72.999c-16 -21.333 -40.167 -40.166 -72.5 -56.499s-64.166 -24.5 -95.499 -24.5c-67.333 0 -114.333 18.5 -141 55.5s-35.334 91.833 -26.001 164.5l33 268h64l-35 -284
c-12 -93.333 25 -140 111 -140c40 0 78.167 13.333 114.5 40s57.166 61.334 62.499 104.001l35 280h64l-47 -384c-6 -48 -4.66699 -80 4 -96z" />
    <glyph glyph-name="Uring" unicode="&#x16e;" horiz-adv-x="592" 
d="M369 928c28.667 0 51.834 -10 69.501 -30s24.834 -44.667 21.501 -74c-3.33301 -28.667 -16.333 -53.167 -39 -73.5s-48.667 -30.5 -78 -30.5c-28.667 0 -51.834 10 -69.501 30s-24.834 44.667 -21.501 74c3.33301 28.667 16.333 53.167 39 73.5s48.667 30.5 78 30.5z
M349 768c15.333 0 29.166 5.5 41.499 16.5s19.5 24.167 21.5 39.5s-1.83301 28.5 -11.5 39.5s-22.167 16.5 -37.5 16.5s-29.166 -5.5 -41.499 -16.5s-19.5 -24.167 -21.5 -39.5s1.83301 -28.5 11.5 -39.5s22.167 -16.5 37.5 -16.5zM513 672l64.001 -0.000976562l-48 -392
c-11.333 -92 -41 -163 -89 -213s-110 -75 -186 -75c-78 0 -134.5 24.833 -169.5 74.5s-46.833 120.834 -35.5 213.501l48 392h64l-49 -400c-8.66699 -70.667 0.333008 -124.334 27 -161.001s67.667 -55 123 -55s100.666 18.333 135.999 55s57.333 90.334 66 161.001z" />
    <glyph glyph-name="uring" unicode="&#x16f;" horiz-adv-x="544" 
d="M315 720c29.333 0 52.834 -10.167 70.501 -30.5s24.5 -44.833 20.5 -73.5c-3.33301 -29.333 -16.333 -54 -39 -74s-48.334 -30 -77.001 -30c-29.333 0 -52.833 10.167 -70.5 30.5s-24.834 44.833 -21.501 73.5c4 29.333 17.333 54 40 74s48.334 30 77.001 30z
M296.001 560c15.333 0 29.166 5.5 41.499 16.5s19.166 24.167 20.499 39.5c2 15.333 -1.83301 28.5 -11.5 39.5s-22.167 16.5 -37.5 16.5s-29.166 -5.5 -41.499 -16.5s-19.5 -24.167 -21.5 -39.5c-1.33301 -15.333 2.83398 -28.5 12.501 -39.5s22.167 -16.5 37.5 -16.5z
M447.001 0l-63.999 -0.000976562c-8.66699 15.333 -11 39.666 -7 72.999c-16 -21.333 -40.167 -40.166 -72.5 -56.499s-64.166 -24.5 -95.499 -24.5c-67.333 0 -114.333 18.5 -141 55.5s-35.334 91.833 -26.001 164.5l33 268h64l-35 -284c-12 -93.333 25 -140 111 -140
c40 0 78.167 13.333 114.5 40s57.166 61.334 62.499 104.001l35 280h64l-47 -384c-6 -48 -4.66699 -80 4 -96z" />
    <glyph glyph-name="Uhungarumlaut" unicode="&#x170;" horiz-adv-x="592" 
d="M193 736l46 112h88l-86 -112h-48zM417 736l46 112h88l-86 -112h-48zM513 672l64.001 -0.000976562l-48 -392c-11.333 -92 -41 -163 -89 -213s-110 -75 -186 -75c-78 0 -134.5 24.833 -169.5 74.5s-46.833 120.834 -35.5 213.501l48 392h64l-49 -400
c-8.66699 -70.667 0.333008 -124.334 27 -161.001s67.667 -55 123 -55s100.666 18.333 135.999 55s57.333 90.334 66 161.001z" />
    <glyph glyph-name="uhungarumlaut" unicode="&#x171;" horiz-adv-x="544" 
d="M146 544l45 112h88l-85 -112h-48zM370 544l45 112h88l-85 -112h-48zM447 0l-63.999 -0.000976562c-8.66699 15.333 -11 39.666 -7 72.999c-16 -21.333 -40.167 -40.166 -72.5 -56.499s-64.166 -24.5 -95.499 -24.5c-67.333 0 -114.333 18.5 -141 55.5
s-35.334 91.833 -26.001 164.5l33 268h64l-35 -284c-12 -93.333 25 -140 111 -140c40 0 78.167 13.333 114.5 40s57.166 61.334 62.499 104.001l35 280h64l-47 -384c-6 -48 -4.66699 -80 4 -96z" />
    <glyph glyph-name="Uogonek" unicode="&#x172;" horiz-adv-x="592" 
d="M513 672l64.001 -0.00292969l-48 -392c-10.667 -86.667 -37.667 -154.667 -81 -204s-99.333 -77 -168 -83c-13.333 -1.33301 -26 -10.166 -38 -26.499s-19.333 -34.5 -22 -54.5c-4 -29.333 5 -50.166 27 -62.499s45 -12.166 69 0.500977l11 -42
c-16 -10.667 -34.667 -16 -56 -16c-35.333 0 -61.833 11 -79.5 33s-24.167 51 -19.5 87c3.33301 30 17 57.667 41 83c-64 8 -110 36.5 -138 85.5s-36.667 115.5 -26 199.5l48 392h64l-49 -400c-8.66699 -70.667 0.333008 -124.334 27 -161.001s67.667 -55 123 -55
s100.666 18.333 135.999 55s57.333 90.334 66 161.001z" />
    <glyph glyph-name="uogonek" unicode="&#x173;" horiz-adv-x="544" 
d="M436 -150l11.002 -42.0039c-16 -10.667 -34.667 -16 -56 -16c-35.333 0 -61.833 11 -79.5 33s-24.167 51 -19.5 87c3.33301 26 13.166 48.833 29.499 68.5s34.5 34.5 54.5 44.5c-1.33301 10 -1.33301 26 0 48c-16 -21.333 -40.167 -40.166 -72.5 -56.499
s-64.166 -24.5 -95.499 -24.5c-67.333 0 -114.333 18.5 -141 55.5s-35.334 91.833 -26.001 164.5l33 268h64l-35 -284c-12 -93.333 25 -140 111 -140c40 0 78.167 13.333 114.5 40s57.166 61.334 62.499 104.001l35 280h64l-47 -384c-6 -48 -4.66699 -80 4 -96h-16
c-19.333 0 -38.5 -8.16699 -57.5 -24.5s-30.167 -37.5 -33.5 -63.5c-4 -29.333 5 -50.166 27 -62.499s45 -12.166 69 0.500977z" />
    <glyph glyph-name="Wcircumflex" unicode="&#x174;" horiz-adv-x="960" 
d="M598 736l-60 72l-78 -72h-75l161 136l127 -136h-75zM913 672h72l-364 -688l-120 524l-248 -524l-196 688h72l143 -512l251 528l121 -528z" />
    <glyph glyph-name="wcircumflex" unicode="&#x175;" horiz-adv-x="752" 
d="M471 544l-61 72l-77 -72h-75l160 136l128 -136h-75zM682 480h72l-277 -496l-101 354l-187 -354l-155 496h72l102 -338l188 354l100 -354z" />
    <glyph glyph-name="Ycircumflex" unicode="&#x176;" horiz-adv-x="560" 
d="M398 736l-60 72l-78 -72h-75l161 136l127 -136h-75zM521 672h72l-285 -368l-37 -304h-64l37 304l-195 368h72l162 -308z" />
    <glyph glyph-name="ycircumflex" unicode="&#x177;" horiz-adv-x="480" 
d="M335 544l-61 72l-77 -72h-75l160 136l128 -136h-75zM415 480h75l-416 -736h-73l163 286l-138 450h75l111 -368z" />
    <glyph glyph-name="Ydieresis" unicode="&#x178;" horiz-adv-x="560" 
d="M249 736c-13.333 0 -24 4.66699 -32 14s-11.333 20.666 -10 33.999s7.33301 24.666 18 33.999s22.667 14 36 14s24 -4.66699 32 -14s11.333 -20.666 10 -33.999s-7.33301 -24.666 -18 -33.999s-22.667 -14 -36 -14zM409 736c-13.333 0 -24 4.66699 -32 14
s-11.333 20.666 -10 33.999s7.33301 24.666 18 33.999s22.667 14 36 14s24 -4.66699 32 -14s11.333 -20.666 10 -33.999s-7.33301 -24.666 -18 -33.999s-22.667 -14 -36 -14zM521 672h72l-285 -368l-37 -304h-64l37 304l-195 368h72l162 -308z" />
    <glyph glyph-name="Zacute" unicode="&#x179;" horiz-adv-x="560" 
d="M281 736l96 128h80l-128 -128h-48zM463 0h-464l444 608h-354l8 64h464l-444 -608h354z" />
    <glyph glyph-name="zacute" unicode="&#x17a;" horiz-adv-x="464" 
d="M218 544l95 128h80l-127 -128h-48zM367 0h-368l319 416h-252l8 64h368l-321 -416h254z" />
    <glyph glyph-name="Zdotaccent" unicode="&#x17b;" horiz-adv-x="560" 
d="M327 720c-18 0 -32.333 6.16699 -43 18.5s-15 27.5 -13 45.5s10 33.167 24 45.5s30 18.5 48 18.5s32.333 -6.16699 43 -18.5s15 -27.5 13 -45.5s-10 -33.167 -24 -45.5s-30 -18.5 -48 -18.5zM463 0h-464l444 608h-354l8 64h464l-444 -608h354z" />
    <glyph glyph-name="zdotaccent" unicode="&#x17c;" horiz-adv-x="464" 
d="M256 528c-18 0 -32.501 6.16699 -43.501 18.5s-15.5 27.5 -13.5 45.5c2.66699 18 10.834 33.167 24.501 45.5s29.5 18.5 47.5 18.5s32.5 -6.16699 43.5 -18.5s15.167 -27.5 12.5 -45.5c-2 -18 -9.83301 -33.167 -23.5 -45.5s-29.5 -18.5 -47.5 -18.5zM366.999 0h-368
l319 416h-252l8 64h368l-321 -416h254z" />
    <glyph glyph-name="Zcaron" unicode="&#x17d;" horiz-adv-x="560" 
d="M414 864h75l-161 -136l-127 136h75l60 -72zM463 0h-464l444 608h-354l8 64h464l-444 -608h354z" />
    <glyph glyph-name="zcaron" unicode="&#x17e;" horiz-adv-x="464" 
d="M342 672h75l-160 -136l-128 136h75l60 -72zM367 0h-368l319 416h-252l8 64h368l-321 -416h254z" />
    <glyph glyph-name="Aringacute" unicode="&#x1fa;" horiz-adv-x="656" 
d="M357 960l95 128h80l-127 -128h-48zM401 928c28.667 0 51.834 -10 69.501 -30s24.834 -44.667 21.501 -74c-3.33301 -28.667 -16.333 -53.167 -39 -73.5s-48.667 -30.5 -78 -30.5c-28.667 0 -51.834 10 -69.501 30s-24.834 44.667 -21.501 74
c3.33301 28.667 16.333 53.167 39 73.5s48.667 30.5 78 30.5zM381 768c15.333 0 29.166 5.5 41.499 16.5s19.5 24.167 21.5 39.5s-1.83301 28.5 -11.5 39.5s-22.167 16.5 -37.5 16.5s-29.166 -5.5 -41.499 -16.5s-19.5 -24.167 -21.5 -39.5s1.83301 -28.5 11.5 -39.5
s22.167 -16.5 37.5 -16.5zM535 0l-49 144h-364l-83 -144h-72l404 688l236 -688h-72zM159 208h306l-111 336z" />
    <glyph glyph-name="aringacute" unicode="&#x1fb;" horiz-adv-x="608" 
d="M323 752l96 128h80l-128 -128h-48zM375 720c29.333 0 52.834 -10.167 70.501 -30.5s24.5 -44.833 20.5 -73.5c-3.33301 -29.333 -16.333 -54 -39 -74s-48.334 -30 -77.001 -30c-29.333 0 -52.833 10.167 -70.5 30.5s-24.834 44.833 -21.501 73.5
c4 29.333 17.333 54 40 74s48.334 30 77.001 30zM356.001 560c15.333 0 29.166 5.5 41.499 16.5s19.166 24.167 20.499 39.5c2 15.333 -1.83301 28.5 -11.5 39.5s-22.167 16.5 -37.5 16.5s-29.166 -5.5 -41.499 -16.5s-19.5 -24.167 -21.5 -39.5
c-1.33301 -15.333 2.83398 -28.5 12.501 -39.5s22.167 -16.5 37.5 -16.5zM511.001 0h-63.998c-9.33301 16 -11.333 44 -6 84c-52.667 -61.333 -117.667 -92 -195 -92c-68.667 0 -124.334 24.167 -167.001 72.5s-59.667 106.833 -51 175.5s40.167 127.167 94.5 175.5
s115.833 72.5 184.5 72.5c77.333 0 134.666 -31 171.999 -93l11 85h64l-47 -384c-6 -48 -4.66699 -80 4 -96zM254.003 56c51.333 0 96.9971 18 136.997 54s63 79.333 69 130c6.66699 50.667 -5.66602 94 -36.999 130s-72.666 54 -123.999 54
c-50.667 0 -96.167 -17.833 -136.5 -53.5s-63.833 -79.167 -70.5 -130.5c-6 -51.333 6.83301 -94.833 38.5 -130.5s72.834 -53.5 123.501 -53.5z" />
    <glyph glyph-name="AEacute" unicode="&#x1fc;" horiz-adv-x="784" 
d="M425 736l96 128h80l-128 -128h-48zM761 608h-304l-29 -240h256l-8 -64h-256l-29 -240h304l-8 -64h-368l17 144h-206l-91 -144h-72l434 672h368zM171 208h173l42 336z" />
    <glyph glyph-name="aeacute" unicode="&#x1fd;" horiz-adv-x="912" 
d="M418 544l95 128h80l-127 -128h-48zM860 242c-1.33301 -13.333 -3.66309 -24.6641 -6.99609 -33.9971h-395c-0.666992 -45.333 14.666 -82 45.999 -110s72.666 -42 123.999 -42c57.333 0 110.666 17.333 159.999 52l17 -58c-8 -6.66699 -18.5 -13.667 -31.5 -21
s-34.333 -15.333 -64 -24s-60.167 -13 -91.5 -13c-79.333 0 -139 25.333 -179 76l-8 -68h-64l8 65c-19.333 -20 -47 -37.167 -83 -51.5s-74 -21.5 -114 -21.5c-54.667 0 -96.667 13.5 -126 40.5s-41.333 64.167 -36 111.5c4 29.333 16 56.5 36 81.5s48.667 43.5 86 55.5
c43.333 11.333 88.666 16.166 135.999 14.499s89.666 -6.83398 126.999 -15.501c6 45.333 -4.66699 80.666 -32 105.999s-62 38 -104 38c-30.667 0 -62 -5.33301 -94 -16s-56.667 -23.334 -74 -38.001l-26 54c60.667 42.667 131.334 64 212.001 64
c39.333 0 74.666 -10.167 105.999 -30.5s52.333 -45.5 63 -75.5c54 70.667 125.333 106 214 106c65.333 0 116.333 -22.167 153 -66.5s50.334 -104.166 41.001 -179.499zM466.003 272.002h333.001c2.66699 38.667 -7.83301 73.667 -31.5 105s-61.167 47 -112.5 47
c-52.667 0 -95.834 -15.667 -129.501 -47s-53.5 -66.333 -59.5 -105zM388.004 176.002l5.00195 40.001c-44.667 10.667 -94.667 16 -150 16c-101.333 0 -155.333 -28.667 -162 -86c-4 -32 5.33301 -55 28 -69s49 -21 79 -21c43.333 0 86.666 13.167 129.999 39.5
s66.666 53.166 69.999 80.499z" />
    <glyph glyph-name="Scommaaccent" unicode="&#x218;" horiz-adv-x="560" 
d="M299 380c80.667 -16.667 136.167 -39.8301 166.5 -69.4971s42.166 -72.834 35.499 -129.501c-6 -51.333 -34 -95.666 -84 -132.999s-109 -56 -177 -56c-35.333 0 -67.833 4.66699 -97.5 14s-53.5 21 -71.5 35s-31.5 25.667 -40.5 35s-15.5 17.666 -19.5 24.999l39 57
c19.333 -30 46 -54.5 80 -73.5s74 -28.5 120 -28.5c47.333 0 89.333 12.5 126 37.5s57 55.5 61 91.5c4 33.333 -5.16699 60.666 -27.5 81.999s-63.833 37.666 -124.5 48.999c-83.333 15.333 -139.166 37.833 -167.499 67.5s-39.5 68.834 -33.5 117.501
c6 50.667 31.667 93.167 77 127.5s101.666 51.5 168.999 51.5c80.667 0 144 -26.667 190 -80l-36 -55c-38 47.333 -92.333 71 -163 71c-45.333 0 -84.166 -9.83301 -116.499 -29.5s-50.833 -46.834 -55.5 -81.501c-4.66699 -34 4.83301 -60.333 28.5 -79
s64.167 -34 121.5 -46zM145 -175.996l46 112h80l-86 -112h-40z" />
    <glyph glyph-name="scommaaccent" unicode="&#x219;" horiz-adv-x="448" 
d="M240 280c59.333 -12.667 99.1689 -30.999 119.502 -54.999s28.166 -54.333 23.499 -91c-4.66699 -38.667 -24.5 -72 -59.5 -100s-79.833 -42 -134.5 -42c-42.667 0 -80.667 7.66699 -114 23s-56.333 30.333 -69 45l35 58c15.333 -18.667 37.333 -33.5 66 -44.5
s58 -16.833 88 -17.5c30.667 -0.666992 58.167 5.5 82.5 18.5s38.166 31.833 41.499 56.5c2.66699 23.333 -5.5 41.666 -24.5 54.999s-44.167 23.333 -75.5 30c-67.333 13.333 -112 30.666 -134 51.999s-31 50.333 -27 87c5.33301 40 25.666 72.167 60.999 96.5
s80 36.5 134 36.5c56 0 106.667 -15.333 152 -46l-31 -58c-10 8.66699 -27.667 17.334 -53 26.001s-50.333 13.334 -75 14.001c-76.667 2 -118 -21.333 -124 -70c-1.33301 -10.667 1.33398 -20.334 8.00098 -29.001s17 -15.834 31 -21.501s26.5 -10.167 37.5 -13.5
s24.833 -6.66602 41.5 -9.99902zM97.0029 -175.999l46 112h80l-86 -112h-40z" />
    <glyph glyph-name="uni021A" unicode="&#x21a;" 
d="M81 672h416l-8 -64h-176l-74 -608h-64l74 608h-176zM113 -176l46 112h80l-86 -112h-40z" />
    <glyph glyph-name="uni021B" unicode="&#x21b;" horiz-adv-x="320" 
d="M82 157l32.002 259.001h-64l8 64h64l23 192h64l-23 -192h96l-8 -64h-96l-33 -264c-5.33301 -46 -2.33301 -73.667 9 -83c20 -16 45.667 -16.667 77 -2l-8 -65c-18.667 -6.66699 -37.334 -10 -56.001 -10c-28.667 0 -50.334 7.5 -65.001 22.5s-22.5 34.667 -23.5 59
s0.166992 52.166 3.5 83.499zM41.002 -175.999l46 112h80l-86 -112h-40z" />
    <glyph glyph-name="circumflex" unicode="&#x2c6;" horiz-adv-x="816" 
d="M526 736l-60 72l-78 -72h-75l161 136l127 -136h-75z" />
    <glyph glyph-name="caron" unicode="&#x2c7;" horiz-adv-x="816" 
d="M542 864h75l-161 -136l-127 136h75l60 -72z" />
    <glyph glyph-name="breve" unicode="&#x2d8;" horiz-adv-x="816" 
d="M548 860h47.998c-4 -34.667 -19.5 -64 -46.5 -88s-57.833 -36 -92.5 -36s-62.5 12 -83.5 36s-29.5 53.333 -25.5 88h48c-2.66699 -20.667 2.5 -38.5 15.5 -53.5s30.167 -22.5 51.5 -22.5c20.667 0 39.334 7.33301 56.001 22s26.334 32.667 29.001 54z" />
    <glyph glyph-name="dotaccent" unicode="&#x2d9;" horiz-adv-x="816" 
d="M455 720c-18 0 -32.333 6.16699 -43 18.5s-15 27.5 -13 45.5s10 33.167 24 45.5s30 18.5 48 18.5s32.333 -6.16699 43 -18.5s15 -27.5 13 -45.5s-10 -33.167 -24 -45.5s-30 -18.5 -48 -18.5z" />
    <glyph glyph-name="ring" unicode="&#x2da;" horiz-adv-x="816" 
d="M481 928c28.667 0 51.834 -10 69.501 -30s24.834 -44.667 21.501 -74c-3.33301 -28.667 -16.333 -53.167 -39 -73.5s-48.667 -30.5 -78 -30.5c-28.667 0 -51.834 10 -69.501 30s-24.834 44.667 -21.501 74c3.33301 28.667 16.333 53.167 39 73.5s48.667 30.5 78 30.5z
M461 768c15.333 0 29.166 5.5 41.499 16.5s19.5 24.167 21.5 39.5s-1.83301 28.5 -11.5 39.5s-22.167 16.5 -37.5 16.5s-29.166 -5.5 -41.499 -16.5s-19.5 -24.167 -21.5 -39.5s1.83301 -28.5 11.5 -39.5s22.167 -16.5 37.5 -16.5z" />
    <glyph glyph-name="ogonek" unicode="&#x2db;" horiz-adv-x="816" 
d="M427 0c-19.333 0 -38.5 -8.16895 -57.5 -24.502s-30.167 -37.5 -33.5 -63.5c-4 -29.333 5 -50.166 27 -62.499s45 -12.166 69 0.500977l11 -42c-16 -10.667 -34.667 -16 -56 -16c-35.333 0 -61.833 11 -79.5 33s-24.167 51 -19.5 87c4 34.667 19.667 64 47 88h92z" />
    <glyph glyph-name="tilde" unicode="&#x2dc;" horiz-adv-x="816" 
d="M576 819l48.998 -15.001c-27.333 -45.333 -63.333 -68 -108 -68c-14 0 -36 6 -66 18c-45.333 20.667 -79.666 14.667 -102.999 -18l-49 17c29.333 44 66 66 110 66c12.667 0 33.334 -5.66699 62.001 -17c22 -11.333 42 -16.166 60 -14.499s33 12.167 45 31.5z" />
    <glyph glyph-name="hungarumlaut" unicode="&#x2dd;" horiz-adv-x="816" 
d="M297 736l46 112h88l-86 -112h-48zM521 736l46 112h88l-86 -112h-48z" />
    <glyph glyph-name="Alphatonos" unicode="&#x386;" horiz-adv-x="656" 
d="M535 0l-49 144h-364l-83 -144h-72l404 688l236 -688h-72zM68 560l45 112h80l-85 -112h-40zM159 208h306l-111 336z" />
    <glyph glyph-name="Epsilontonos" unicode="&#x388;" horiz-adv-x="608" 
d="M68 560l45 112h80l-85 -112h-40zM585 608h-304l-29 -240h256l-8 -64h-256l-29 -240h304l-8 -64h-368l82 672h368z" />
    <glyph glyph-name="Etatonos" unicode="&#x389;" horiz-adv-x="736" 
d="M68 560l45 112h80l-85 -112h-40zM641 672h64l-82 -672h-64l37 304h-352l-37 -304h-64l82 672h64l-37 -304h352z" />
    <glyph glyph-name="Iotatonos" unicode="&#x38a;" horiz-adv-x="320" 
d="M68 560l45 112h80l-85 -112h-40zM207 0h-64l82 672h64z" />
    <glyph glyph-name="Omicrontonos" unicode="&#x38c;" horiz-adv-x="832" 
d="M490 680c94.667 0 171.5 -33.5 230.5 -100.5s82.833 -148.167 71.5 -243.5c-11.333 -94.667 -54.666 -175.667 -129.999 -243s-160.666 -101 -255.999 -101c-94.667 0 -171.5 33.5 -230.5 100.5s-82.833 148.167 -71.5 243.5c11.333 94.667 54.666 175.667 129.999 243
s160.666 101 255.999 101zM68 560l45 112h80l-85 -112h-40zM414 56c78 0 147.5 27.167 208.5 81.5s96.167 120.5 105.5 198.5s-9.83398 144.167 -57.501 198.5s-110.5 81.5 -188.5 81.5s-147.5 -27.167 -208.5 -81.5s-96.167 -120.5 -105.5 -198.5
s9.83398 -144.167 57.501 -198.5s110.5 -81.5 188.5 -81.5z" />
    <glyph glyph-name="Upsilontonos" unicode="&#x38e;" horiz-adv-x="736" 
d="M68 560l45 112h80l-85 -112h-40zM697 672h72l-285 -368l-37 -304h-64l37 304l-195 368h72l162 -308z" />
    <glyph glyph-name="Omegatonos" unicode="&#x38f;" horiz-adv-x="784" 
d="M735 392c-14.667 -118 -99.0049 -227.334 -253.005 -328.001h213l-8 -64h-272l12 96c28.667 18 53.5 34.667 74.5 50s45 35.5 72 60.5s48.833 52.667 65.5 83s27 61.833 31 94.5c8.66699 70.667 -7 127 -47 169s-95 63 -165 63s-130 -20.833 -180 -62.5
s-79.333 -98.167 -88 -169.5c-4 -32.667 -1.33301 -64.167 8 -94.5s24.333 -57.833 45 -82.5s39.834 -45 57.501 -61s38.5 -32.667 62.5 -50l-12 -96h-272l8 64h213c-130 100 -187.667 209.333 -173 328c4.66699 35.333 15.5 69.833 32.5 103.5s39.333 64.334 67 92.001
s62.334 50 104.001 67s86.834 25.5 135.501 25.5c64.667 0 118.834 -14.667 162.501 -44s73.834 -65.333 90.501 -108s22 -88 16 -136zM67.9951 559.999l45 112h80l-85 -112h-40z" />
    <glyph glyph-name="iotadieresistonos" unicode="&#x390;" horiz-adv-x="240" 
d="M106 544l45 112h80l-85 -112h-40zM18 544c-13.333 0 -24.167 4.66699 -32.5 14s-11.833 20.666 -10.5 33.999c2 13.333 8.16699 24.666 18.5 33.999s22.166 14 35.499 14s24.166 -4.66699 32.499 -14s11.5 -20.666 9.5 -33.999
c-1.33301 -13.333 -7.16602 -24.666 -17.499 -33.999s-22.166 -14 -35.499 -14zM273.999 544c-13.333 0 -24.167 4.66699 -32.5 14s-11.833 20.666 -10.5 33.999c2 13.333 8.16699 24.666 18.5 33.999s22.166 14 35.499 14s24.166 -4.66699 32.499 -14
s11.5 -20.666 9.5 -33.999c-1.33301 -13.333 -7.16602 -24.666 -17.499 -33.999s-22.166 -14 -35.499 -14zM153.998 480l-43.999 -355c-4 -32 -2.33301 -51.667 5 -59s24.666 -8 51.999 -2l-8 -64c-20 -5.33301 -36 -8 -48 -8c-28.667 0 -48.167 9.83301 -58.5 29.5
s-12.833 51.5 -7.5 95.5l45 363h64z" />
    <glyph glyph-name="Alpha" unicode="&#x391;" horiz-adv-x="656" 
d="M535 0l-49 144h-364l-83 -144h-72l404 688l236 -688h-72zM159 208h306l-111 336z" />
    <glyph glyph-name="Beta" unicode="&#x392;" horiz-adv-x="560" 
d="M411 361c32 -6.66699 56.5 -26 73.5 -58s23.5 -65.667 19.5 -101c-8 -59.333 -33.667 -107.833 -77 -145.5s-98 -56.5 -164 -56.5h-232l82 672h177c74 0 130.5 -15.167 169.5 -45.5s55.167 -73.833 48.5 -130.5c-4 -29.333 -15.333 -57 -34 -83s-39.667 -43.333 -63 -52z
M169 608l-27.001 -224h136c100.667 0 156 37.333 166 112c8.66699 74.667 -37.666 112 -138.999 112h-136zM254.999 64c52.667 0 95.167 10.666 127.5 31.999s50.833 53 55.5 95c5.33301 42.667 -5.5 74.834 -32.5 96.501s-66.833 32.5 -119.5 32.5h-152l-31 -256h152z" />
    <glyph glyph-name="Gamma" unicode="&#x393;" horiz-adv-x="480" 
d="M473 608h-304l-74 -608h-64l82 672h368z" />
    <glyph glyph-name="uni0394" unicode="&#x394;" horiz-adv-x="656" 
d="M371 688l236 -688h-640zM76 64h438l-160 480z" />
    <glyph glyph-name="Epsilon" unicode="&#x395;" 
d="M473 608h-304l-29 -240h256l-8 -64h-256l-29 -240h304l-8 -64h-368l82 672h368z" />
    <glyph glyph-name="Zeta" unicode="&#x396;" horiz-adv-x="560" 
d="M463 0h-464l444 608h-354l8 64h464l-444 -608h354z" />
    <glyph glyph-name="Eta" unicode="&#x397;" horiz-adv-x="624" 
d="M529 672h64l-82 -672h-64l37 304h-352l-37 -304h-64l82 672h64l-37 -304h352z" />
    <glyph glyph-name="Theta" unicode="&#x398;" horiz-adv-x="768" 
d="M426 680c94.667 0 171.5 -33.5 230.5 -100.5s82.833 -148.167 71.5 -243.5c-11.333 -94.667 -54.666 -175.667 -129.999 -243s-160.666 -101 -255.999 -101c-94.667 0 -171.5 33.5 -230.5 100.5s-82.833 148.167 -71.5 243.5c11.333 94.667 54.666 175.667 129.999 243
s160.666 101 255.999 101zM350 56c78 0 147.5 27.167 208.5 81.5s96.167 120.5 105.5 198.5s-9.83398 144.167 -57.501 198.5s-110.5 81.5 -188.5 81.5s-147.5 -27.167 -208.5 -81.5s-96.167 -120.5 -105.5 -198.5s9.83398 -144.167 57.501 -198.5s110.5 -81.5 188.5 -81.5z
M150 316l4 40h464l-4 -40h-464z" />
    <glyph glyph-name="Iota" unicode="&#x399;" horiz-adv-x="208" 
d="M95 0h-64l82 672h64z" />
    <glyph glyph-name="Kappa" unicode="&#x39a;" horiz-adv-x="528" 
d="M192 339l271 -339h-88l-243 304l-37 -304h-64l82 672h64l-37 -304l301 304h88z" />
    <glyph glyph-name="Lambda" unicode="&#x39b;" horiz-adv-x="656" 
d="M535 0l-181 544l-315 -544h-72l404 688l236 -688h-72z" />
    <glyph glyph-name="Mu" unicode="&#x39c;" horiz-adv-x="832" 
d="M373 -16l-174 494l-134 -478h-66l198 688l193 -564l331 564l30 -688h-66l-18 478z" />
    <glyph glyph-name="Nu" unicode="&#x39d;" horiz-adv-x="672" 
d="M557 -16l-398 536l-64 -520h-64l84 688l398 -536l64 520h64z" />
    <glyph glyph-name="Xi" unicode="&#x39e;" horiz-adv-x="560" 
d="M89 608l8 64h448l-8 -64h-448zM100 304l8 64h352l-8 -64h-352zM15 0l8 64h448l-8 -64h-448z" />
    <glyph glyph-name="Omicron" unicode="&#x39f;" horiz-adv-x="768" 
d="M426 680c94.667 0 171.5 -33.5 230.5 -100.5s82.833 -148.167 71.5 -243.5c-11.333 -94.667 -54.666 -175.667 -129.999 -243s-160.666 -101 -255.999 -101c-94.667 0 -171.5 33.5 -230.5 100.5s-82.833 148.167 -71.5 243.5c11.333 94.667 54.666 175.667 129.999 243
s160.666 101 255.999 101zM350 56c78 0 147.5 27.167 208.5 81.5s96.167 120.5 105.5 198.5s-9.83398 144.167 -57.501 198.5s-110.5 81.5 -188.5 81.5s-147.5 -27.167 -208.5 -81.5s-96.167 -120.5 -105.5 -198.5s9.83398 -144.167 57.501 -198.5s110.5 -81.5 188.5 -81.5z
" />
    <glyph glyph-name="Pi" unicode="&#x3a0;" horiz-adv-x="624" 
d="M593 672l-82 -672h-64l74 608h-352l-74 -608h-64l82 672h480z" />
    <glyph glyph-name="Rho" unicode="&#x3a1;" horiz-adv-x="560" 
d="M305 672c85.333 0 147 -18.833 185 -56.5s53 -89.167 45 -154.5c-8 -64.667 -34.5 -117.667 -79.5 -159s-102.167 -62 -171.5 -62h-160l-29 -240h-64l82 672h192zM292 304c47.333 0 87.3311 12.167 119.998 36.5s52.334 62.5 59.001 114.5
c6 52 -5.16699 90.5 -33.5 115.5s-66.166 37.5 -113.499 37.5h-155l-37 -304h160z" />
    <glyph glyph-name="Sigma" unicode="&#x3a3;" horiz-adv-x="560" 
d="M195 608l171 -272l-237 -272h326l-8 -64h-448l291 336l-209 336h448l-8 -64h-326z" />
    <glyph glyph-name="Tau" unicode="&#x3a4;" 
d="M81 672h416l-8 -64h-176l-74 -608h-64l74 608h-176z" />
    <glyph glyph-name="Upsilon" unicode="&#x3a5;" horiz-adv-x="560" 
d="M521 672h72l-285 -368l-37 -304h-64l37 304l-195 368h72l162 -308z" />
    <glyph glyph-name="Phi" unicode="&#x3a6;" horiz-adv-x="688" 
d="M650 352c-6.66699 -57.333 -26.502 -108.001 -59.502 -152.001s-71 -77 -114 -99s-87.5 -34.333 -133.5 -37l-8 -64h-64l8 64c-71.333 4.66699 -131.166 32.667 -179.499 84s-67.5 119.333 -57.5 204c10.667 86 46.667 154.333 108 205s127.666 78.334 198.999 83.001
l8 64h64l-8 -64c32.667 -2 63.834 -9.66699 93.501 -23s56.5 -31.5 80.5 -54.5s41.833 -52.833 53.5 -89.5s14.834 -77 9.50098 -121zM285.998 125.999l56 451.999c-52 -2.66699 -102 -22.5 -150 -59.5s-76.667 -92.5 -86 -166.5c-4.66699 -39.333 -2 -74 8 -104
s24.833 -53.333 44.5 -70s40.167 -29.167 61.5 -37.5s43.333 -13.166 66 -14.499zM349.998 125.998c52.667 2.66699 102.836 22.333 150.503 59s76.167 92.334 85.5 167.001c4.66699 39.333 2.16699 74 -7.5 104s-24.334 53.333 -44.001 70s-40.334 29.167 -62.001 37.5
s-43.834 13.166 -66.501 14.499z" />
    <glyph glyph-name="Chi" unicode="&#x3a7;" horiz-adv-x="624" 
d="M559 0h-83l-169 292l-241 -292h-83l290 347l-192 325h82l157 -272l223 272h82l-272 -325z" />
    <glyph glyph-name="Psi" unicode="&#x3a8;" horiz-adv-x="720" 
d="M625 672h64l-29 -238c-12 -97.333 -43 -167 -93 -209s-116 -66.333 -198 -73l-18 -152h-64l18 152c-80 6.66699 -139.833 31 -179.5 73s-53.5 111.667 -41.5 209l29 238h64l-30 -244c-16.667 -136.667 38.666 -207.334 165.999 -212.001l56 456h64l-56 -456
c128.667 4.66699 201.334 75.334 218.001 212.001z" />
    <glyph glyph-name="uni03A9" unicode="&#x3a9;" horiz-adv-x="720" 
d="M671 392c-14.667 -118 -99.0049 -227.334 -253.005 -328.001h213l-8 -64h-272l12 96c28.667 18 53.5 34.667 74.5 50s45 35.5 72 60.5s48.833 52.667 65.5 83s27 61.833 31 94.5c8.66699 70.667 -7 127 -47 169s-95 63 -165 63s-130 -20.833 -180 -62.5
s-79.333 -98.167 -88 -169.5c-4 -32.667 -1.33301 -64.167 8 -94.5s24.333 -57.833 45 -82.5s39.834 -45 57.501 -61s38.5 -32.667 62.5 -50l-12 -96h-272l8 64h213c-130 100 -187.667 209.333 -173 328c4.66699 35.333 15.5 69.833 32.5 103.5s39.333 64.334 67 92.001
s62.334 50 104.001 67s86.834 25.5 135.501 25.5c64.667 0 118.834 -14.667 162.501 -44s73.834 -65.333 90.501 -108s22 -88 16 -136z" />
    <glyph glyph-name="Iotadieresis" unicode="&#x3aa;" horiz-adv-x="208" 
d="M73 736c-13.333 0 -24 4.66699 -32 14s-11.333 20.666 -10 33.999s7.33301 24.666 18 33.999s22.667 14 36 14s24 -4.66699 32 -14s11.333 -20.666 10 -33.999s-7.33301 -24.666 -18 -33.999s-22.667 -14 -36 -14zM233 736c-13.333 0 -24 4.66699 -32 14
s-11.333 20.666 -10 33.999s7.33301 24.666 18 33.999s22.667 14 36 14s24 -4.66699 32 -14s11.333 -20.666 10 -33.999s-7.33301 -24.666 -18 -33.999s-22.667 -14 -36 -14zM95 0h-64l82 672h64z" />
    <glyph glyph-name="Upsilondieresis" unicode="&#x3ab;" horiz-adv-x="560" 
d="M249 736c-13.333 0 -24 4.66699 -32 14s-11.333 20.666 -10 33.999s7.33301 24.666 18 33.999s22.667 14 36 14s24 -4.66699 32 -14s11.333 -20.666 10 -33.999s-7.33301 -24.666 -18 -33.999s-22.667 -14 -36 -14zM409 736c-13.333 0 -24 4.66699 -32 14
s-11.333 20.666 -10 33.999s7.33301 24.666 18 33.999s22.667 14 36 14s24 -4.66699 32 -14s11.333 -20.666 10 -33.999s-7.33301 -24.666 -18 -33.999s-22.667 -14 -36 -14zM521 672h72l-285 -368l-37 -304h-64l37 304l-195 368h72l162 -308z" />
    <glyph glyph-name="alphatonos" unicode="&#x3ac;" horiz-adv-x="640" 
d="M314 544l45 112h80l-85 -112h-40zM510 125c-4 -30.667 -1.99609 -50.3311 6.00391 -58.998s25 -9.33398 51 -2.00098l-8 -64c-16 -5.33301 -32 -8 -48 -8c-22.667 0 -40.334 8.16699 -53.001 24.5s-18.334 39.166 -17.001 68.499c-54 -62 -119 -93 -195 -93
c-68.667 0 -124.334 24.167 -167.001 72.5s-59.667 106.833 -51 175.5s40.167 127.167 94.5 175.5s115.833 72.5 184.5 72.5c77.333 0 134.666 -31 171.999 -93l11 85h64zM254.004 56.0029c51.333 0 96.9971 18 136.997 54s63 79.333 69 130
c6.66699 50.667 -5.66602 94 -36.999 130s-72.666 54 -123.999 54c-50.667 0 -96.167 -17.833 -136.5 -53.5s-63.833 -79.167 -70.5 -130.5c-6 -51.333 6.83301 -94.833 38.5 -130.5s72.834 -53.5 123.501 -53.5z" />
    <glyph glyph-name="epsilontonos" unicode="&#x3ad;" horiz-adv-x="464" 
d="M226 544l45 112h80l-85 -112h-40zM218 56c58.667 2 107.331 18.3359 145.998 49.0029l25 -52c-51.333 -40.667 -113.333 -61 -186 -61c-56 0 -100 12.333 -132 37s-45 61.667 -39 111c2.66699 23.333 12.334 44.833 29.001 64.5s37.667 34.167 63 43.5
c-22 8.66699 -38 22.167 -48 40.5s-13.667 38.166 -11 59.499c6 45.333 27.167 80 63.5 104s80.5 36 132.5 36c70.667 0 127.334 -20.667 170.001 -62l-38 -52c-18.667 16 -37 28.167 -55 36.5s-43 12.833 -75 13.5c-38 0.666992 -69 -5.83301 -93 -19.5
s-37.333 -30.834 -40 -51.501c-3.33301 -26.667 8.66699 -47.5 36 -62.5s68 -22.5 122 -22.5l-7 -56c-117.333 0 -179.333 -27 -186 -81c-3.33301 -26 7.16699 -45.333 31.5 -58s54.833 -18.334 91.5 -17.001z" />
    <glyph glyph-name="etatonos" unicode="&#x3ae;" horiz-adv-x="544" 
d="M242 544l45 112h80l-85 -112h-40zM427 -160c-6 -48 -4.66504 -79.999 4.00195 -95.999h-64c-8.66699 16 -10 48 -4 96l55 444c10.667 93.333 -26.333 140 -111 140c-40 0 -78.333 -13.333 -115 -40s-57.667 -61.334 -63 -104.001l-34 -280h-64l59 480h64l-9 -74
c16 21.333 40 40.333 72 57s64 25 96 25c67.333 0 114.166 -18.5 140.499 -55.5s35.166 -91.833 26.499 -164.5z" />
    <glyph glyph-name="iotatonos" unicode="&#x3af;" horiz-adv-x="240" 
d="M106 544l45 112h80l-85 -112h-40zM154 480l-43.999 -355c-4 -32 -2.33301 -51.667 5 -59s24.666 -8 51.999 -2l-8 -64c-20 -5.33301 -36 -8 -48 -8c-28.667 0 -48.167 9.83301 -58.5 29.5s-12.833 51.5 -7.5 95.5l45 363h64z" />
    <glyph glyph-name="upsilondieresistonos" unicode="&#x3b0;" horiz-adv-x="512" 
d="M218 544l45 112h80l-85 -112h-40zM130 544c-13.333 0 -24.167 4.66699 -32.5 14s-11.833 20.666 -10.5 33.999c2 13.333 8.16699 24.666 18.5 33.999s22.166 14 35.499 14s24.166 -4.66699 32.499 -14s11.5 -20.666 9.5 -33.999
c-1.33301 -13.333 -7.16602 -24.666 -17.499 -33.999s-22.166 -14 -35.499 -14zM385.999 544c-13.333 0 -24.167 4.66699 -32.5 14s-11.833 20.666 -10.5 33.999c2 13.333 8.16699 24.666 18.5 33.999s22.166 14 35.499 14s24.166 -4.66699 32.499 -14
s11.5 -20.666 9.5 -33.999c-1.33301 -13.333 -7.16602 -24.666 -17.499 -33.999s-22.166 -14 -35.499 -14zM425.998 480c20 -91.333 26.6689 -167.331 20.002 -227.998c-10 -78.667 -36.833 -141.667 -80.5 -189s-96.834 -71 -159.501 -71c-59.333 0 -104 18.333 -134 55
s-40.333 93 -31 169l33 264h64l-34 -274c-6.66699 -50 -0.333984 -87.5 18.999 -112.5s49.333 -37.5 90 -37.5c46.667 0 84.667 18.167 114 54.5s47 80.166 53 131.499c4 58.667 4.5 100.667 1.5 126s-9.5 62.666 -19.5 111.999h64z" />
    <glyph glyph-name="alpha" unicode="&#x3b1;" horiz-adv-x="640" 
d="M510 125c-4 -30.667 -1.99609 -50.3311 6.00391 -58.998s25 -9.33398 51 -2.00098l-8 -64c-16 -5.33301 -32 -8 -48 -8c-22.667 0 -40.334 8.16699 -53.001 24.5s-18.334 39.166 -17.001 68.499c-54 -62 -119 -93 -195 -93c-68.667 0 -124.334 24.167 -167.001 72.5
s-59.667 106.833 -51 175.5s40.167 127.167 94.5 175.5s115.833 72.5 184.5 72.5c77.333 0 134.666 -31 171.999 -93l11 85h64zM254.004 56.0029c51.333 0 96.9971 18 136.997 54s63 79.333 69 130c6.66699 50.667 -5.66602 94 -36.999 130s-72.666 54 -123.999 54
c-50.667 0 -96.167 -17.833 -136.5 -53.5s-63.833 -79.167 -70.5 -130.5c-6 -51.333 6.83301 -94.833 38.5 -130.5s72.834 -53.5 123.501 -53.5z" />
    <glyph glyph-name="beta" unicode="&#x3b2;" horiz-adv-x="528" 
d="M360 384c40 -9.33301 70.0029 -30.832 90.0029 -64.499s27.333 -72.167 22 -115.5c-7.33301 -59.333 -33.5 -109.5 -78.5 -150.5s-107.167 -61.5 -186.5 -61.5c-44.667 0 -86.334 10.667 -125.001 32l-35 -280h-64l92 744c5.33301 41.333 16.166 77.333 32.499 108
s33.333 53 51 67s37.834 25.167 60.501 33.5s39.167 13 49.5 14s20.166 1.5 29.499 1.5c57.333 0 100.833 -17.833 130.5 -53.5s41.5 -77.834 35.5 -126.501c-4.66699 -38 -17.334 -69.333 -38.001 -94s-42.667 -42.667 -66 -54zM90.0029 92.001
c46.667 -23.333 92.499 -35.1689 137.499 -35.502s85 12.834 120 39.501s55.167 62.667 60.5 108c6.66699 55.333 -15 94 -65 116c-6 2.66699 -12.5 5 -19.5 7s-15.167 3.5 -24.5 4.5l-23.5 2.5c-6.33301 0.666992 -15.833 1.16699 -28.5 1.5s-22.167 0.5 -28.5 0.5h-33
h-33.5l8 64c76 0 129.667 7.33301 161 22c46.667 22 73 57.333 79 106c4.66699 36.667 -2.83301 65.834 -22.5 87.501s-49.167 32.5 -88.5 32.5c-42.667 0 -76.667 -13 -102 -39s-40.666 -61 -45.999 -105z" />
    <glyph glyph-name="gamma" unicode="&#x3b3;" 
d="M506 480l-259 -409l-40 -327h-64l40 327l-157 409h72l126 -336l210 336h72z" />
    <glyph glyph-name="delta" unicode="&#x3b4;" horiz-adv-x="576" 
d="M441 445c30.667 -23.333 53.5039 -52.9971 68.5039 -88.9971s19.833 -74.667 14.5 -116c-8.66699 -68.667 -40 -127.167 -94 -175.5s-115.333 -72.5 -184 -72.5s-124.334 24.167 -167.001 72.5s-59.667 106.833 -51 175.5c6.66699 55.333 29.167 104.833 67.5 148.5
s84.166 73.167 137.499 88.5c-27.333 13.333 -46 30.833 -56 52.5s-12.667 43.5 -8 65.5c6 34 25 63.333 57 88s76 37 132 37c43.333 0 85 -10.667 125 -32l-27 -60c-30 15.333 -60.333 24.666 -91 27.999s-56.334 0.666016 -77.001 -8.00098
c-33.333 -12.667 -51.833 -32.334 -55.5 -59.001s10.833 -49 43.5 -67c3.33301 -2 26.666 -11.5 69.999 -28.5s75 -33.167 95 -48.5zM254.004 56.0029c50 0 95.333 18.167 136 54.5s64 79.5 70 129.5s-6.83301 93.167 -38.5 129.5s-72.5 54.5 -122.5 54.5
s-95.5 -18.167 -136.5 -54.5s-64.5 -79.5 -70.5 -129.5s7 -93.167 39 -129.5s73 -54.5 123 -54.5z" />
    <glyph glyph-name="epsilon" unicode="&#x3b5;" horiz-adv-x="464" 
d="M218 56c58.667 2 107.331 18.3359 145.998 49.0029l25 -52c-51.333 -40.667 -113.333 -61 -186 -61c-56 0 -100 12.333 -132 37s-45 61.667 -39 111c2.66699 23.333 12.334 44.833 29.001 64.5s37.667 34.167 63 43.5c-22 8.66699 -38 22.167 -48 40.5
s-13.667 38.166 -11 59.499c6 45.333 27.167 80 63.5 104s80.5 36 132.5 36c70.667 0 127.334 -20.667 170.001 -62l-38 -52c-18.667 16 -37 28.167 -55 36.5s-43 12.833 -75 13.5c-38 0.666992 -69 -5.83301 -93 -19.5s-37.333 -30.834 -40 -51.501
c-3.33301 -26.667 8.66699 -47.5 36 -62.5s68 -22.5 122 -22.5l-7 -56c-117.333 0 -179.333 -27 -186 -81c-3.33301 -26 7.16699 -45.333 31.5 -58s54.833 -18.334 91.5 -17.001z" />
    <glyph glyph-name="zeta" unicode="&#x3b6;" horiz-adv-x="480" 
d="M473 608c-89.333 -51.333 -171.495 -118.166 -246.495 -200.499s-116.167 -152.833 -123.5 -211.5c-4 -32 -3 -57.667 3 -77s19.667 -33.333 41 -42s38.666 -13.834 51.999 -15.501s37.666 -3.16699 72.999 -4.5c7.33301 -0.666992 13 -1 17 -1
c42.667 -2 74.667 -8.83301 96 -20.5s30 -33.5 26 -65.5c-2 -21.333 -10 -43.333 -24 -66h-64c15.333 30.667 19.666 53 12.999 67s-25.334 21 -56.001 21c-45.333 0 -82.833 2.66699 -112.5 8s-55.834 15 -78.501 29s-38 34.333 -46 61s-9.66699 60.667 -5 102
c8 64 43.833 133.833 107.5 209.5s139.167 144.5 226.5 206.5h-235l8 64h336z" />
    <glyph glyph-name="eta" unicode="&#x3b7;" horiz-adv-x="544" 
d="M427 -160c-6 -48 -4.66504 -79.999 4.00195 -95.999h-64c-8.66699 16 -10 48 -4 96l55 444c10.667 93.333 -26.333 140 -111 140c-40 0 -78.333 -13.333 -115 -40s-57.667 -61.334 -63 -104.001l-34 -280h-64l59 480h64l-9 -74c16 21.333 40 40.333 72 57s64 25 96 25
c67.333 0 114.166 -18.5 140.499 -55.5s35.166 -91.833 26.499 -164.5z" />
    <glyph glyph-name="theta" unicode="&#x3b8;" horiz-adv-x="560" 
d="M322 680c70 0 121.002 -31.833 153.002 -95.5s41.667 -146.5 29 -248.5s-42.834 -184.833 -90.501 -248.5s-106.167 -95.5 -175.5 -95.5c-70.667 0 -121.834 31.667 -153.501 95s-41.167 146.333 -28.5 249s42.667 185.667 90 249s106 95 176 95zM314.002 616
c-46 0 -86.5 -23.833 -121.5 -71.5s-58.5 -110.5 -70.5 -188.5h320c7.33301 77.333 -0.666992 140 -24 188s-58 72 -104 72zM246.002 56c46 0 86.5 23.833 121.5 71.5s58.5 110.5 70.5 188.5h-320c-7.33301 -77.333 0.666992 -140 24 -188s58 -72 104 -72z" />
    <glyph glyph-name="iota" unicode="&#x3b9;" horiz-adv-x="240" 
d="M154 480l-43.999 -355c-4 -32 -2.33301 -51.667 5 -59s24.666 -8 51.999 -2l-8 -64c-20 -5.33301 -36 -8 -48 -8c-28.667 0 -48.167 9.83301 -58.5 29.5s-12.833 51.5 -7.5 95.5l45 363h64z" />
    <glyph glyph-name="kappa" unicode="&#x3ba;" horiz-adv-x="480" 
d="M189 248l242 -248h-88l-221 222l-27 -222h-64l59 480h64l-26 -210l258 210h88z" />
    <glyph glyph-name="lambda" unicode="&#x3bb;" horiz-adv-x="560" 
d="M385 134c10 -37.333 22.167 -60.1689 36.5 -68.502s36.166 -8.83301 65.499 -1.5l-8 -64c-18.667 -5.33301 -35 -8 -49 -8c-20.667 0 -37.667 3 -51 9s-24.833 18.333 -34.5 37s-16.667 34.834 -21 48.501s-11.166 38.834 -20.499 75.501l-6 23l-44 176l-181 -361h-73
l232 447l-33 122c-10.667 39.333 -23.834 64.833 -39.501 76.5s-37.167 12.5 -64.5 2.5l8 64c14.667 5.33301 29.334 8 44.001 8c8.66699 0 17 -1.16699 25 -3.5s15.167 -5 21.5 -8s12.5 -7.83301 18.5 -14.5s11 -12.5 15 -17.5s8.33301 -12.667 13 -23
s8.16699 -18.5 10.5 -24.5s5.5 -15.5 9.5 -28.5l9 -29c2 -6.33301 5 -17 9 -32s6.66699 -25.5 8 -31.5z" />
    <glyph glyph-name="uni03BC" unicode="&#x3bc;" horiz-adv-x="560" 
d="M459 96c-6 -48 -4.66699 -80.001 4 -96.001h-64c-8.66699 15.333 -11 39.666 -7 72.999c-16 -21.333 -40.167 -40.166 -72.5 -56.499s-64.166 -24.5 -95.499 -24.5c-55.333 0 -97.333 12.667 -126 38l-35 -286h-64l91 736h64l-35 -284c-12 -93.333 25 -140 111 -140
c40 0 78.167 13.333 114.5 40s57.166 61.334 62.499 104.001l35 280h64z" />
    <glyph glyph-name="nu" unicode="&#x3bd;" horiz-adv-x="480" 
d="M197 -16l-171 496h72l116 -352l204 352h72z" />
    <glyph glyph-name="xi" unicode="&#x3be;" 
d="M100 173c-2.66699 -21.333 -0.995117 -39.6611 5.00488 -54.9941s16.167 -27 30.5 -35s29.333 -14 45 -18s34.5 -7 56.5 -9c5.33301 -0.666992 16.5 -1.33398 33.5 -2.00098s31.5 -1.33398 43.5 -2.00098s26.167 -2.83398 42.5 -6.50098s29.333 -8.66699 39 -15
s17.667 -15.333 24 -27s8.5 -25.834 6.5 -42.501c-2.66699 -22 -10.334 -41 -23.001 -57h-64c17.333 30.667 21 53 11 67s-39.667 21 -89 21c-86 0 -146.833 15.167 -182.5 45.5s-49.834 75.5 -42.501 135.5c8.66699 72.667 59 131 151 175
c-72.667 39.333 -103.334 96.666 -92.001 171.999c8.66699 60 35 108.333 79 145s97.667 55 161 55c31.333 0 59.5 -6.16699 84.5 -18.5s44.833 -27.5 59.5 -45.5l-33 -56c-30.667 37.333 -70.334 56 -119.001 56c-50 0 -89.333 -12.167 -118 -36.5
s-45.334 -56.833 -50.001 -97.5c-5.33301 -44.667 11.167 -80.834 49.5 -108.501s95.5 -41.5 171.5 -41.5l-6 -56c-77.333 0 -141 -13.167 -191 -39.5s-77.667 -60.833 -83 -103.5z" />
    <glyph glyph-name="omicron" unicode="&#x3bf;" horiz-adv-x="576" 
d="M307 488c68.667 0 124.169 -24.167 166.502 -72.5s59.166 -106.833 50.499 -175.5s-40 -127.167 -94 -175.5s-115.333 -72.5 -184 -72.5s-124.334 24.167 -167.001 72.5s-59.667 106.833 -51 175.5s40.167 127.167 94.5 175.5s115.833 72.5 184.5 72.5zM254.002 56
c50 0 95.333 18.167 136 54.5s64 79.5 70 129.5s-6.83301 93.167 -38.5 129.5s-72.5 54.5 -122.5 54.5s-95.5 -18.167 -136.5 -54.5s-64.5 -79.5 -70.5 -129.5s7 -93.167 39 -129.5s73 -54.5 123 -54.5z" />
    <glyph glyph-name="pi" unicode="&#x3c0;" horiz-adv-x="576" 
d="M530 416h-79.999l-36 -291c-4 -32 -2.33301 -51.667 5 -59s24.666 -8 51.999 -2l-8 -64c-20 -5.33301 -36 -8 -48 -8c-28.667 0 -48.167 9.83301 -58.5 29.5s-12.833 51.5 -7.5 95.5l37 299h-208l-51 -416h-64l51 416h-64l8 64h480z" />
    <glyph glyph-name="rho" unicode="&#x3c1;" horiz-adv-x="608" 
d="M339 488c68.667 0 124.168 -24.167 166.501 -72.5s59.166 -106.833 50.499 -175.5s-40 -127.167 -94 -175.5s-115.333 -72.5 -184 -72.5c-36.667 0 -70.167 8.16699 -100.5 24.5s-54.5 39.5 -72.5 69.5l-42 -342h-64l61 496c8.66699 68.667 40.167 127.167 94.5 175.5
s115.833 72.5 184.5 72.5zM286.001 56c50 0 95.333 18.167 136 54.5s64 79.5 70 129.5s-6.83301 93.167 -38.5 129.5s-72.5 54.5 -122.5 54.5s-95.5 -18.167 -136.5 -54.5s-64.5 -79.5 -70.5 -129.5s7 -93.167 39 -129.5s73 -54.5 123 -54.5z" />
    <glyph glyph-name="uni03C2" unicode="&#x3c2;" horiz-adv-x="528" 
d="M264 56c22.667 -0.666992 38.6709 -1.33008 48.0039 -1.99707s24.166 -2.16699 44.499 -4.5s35.166 -5.5 44.499 -9.5s19.666 -9.33301 30.999 -16s19 -15.334 23 -26.001s5 -23 3 -37c-2.66699 -22 -10.334 -41 -23.001 -57h-64c18.667 30.667 20.667 53 6 67
s-54.667 21 -120 21c-79.333 0 -139.5 23.667 -180.5 71s-57.167 106.333 -48.5 177s39.5 129.667 92.5 177s118.833 71 197.5 71c63.333 0 113.666 -16.667 150.999 -50l-36 -58c-29.333 29.333 -70.666 44 -123.999 44c-58 0 -107 -17.667 -147 -53s-63.333 -79 -70 -131
c-6 -52.667 5.83301 -95.834 35.5 -129.501s75.167 -51.834 136.5 -54.501z" />
    <glyph glyph-name="sigma" unicode="&#x3c3;" horiz-adv-x="608" 
d="M586 480l-7.99707 -64h-128c25.333 -16.667 45.166 -41.667 59.499 -75s19.166 -68.333 14.499 -105c-8.66699 -67.333 -40 -124.833 -94 -172.5s-115.333 -71.5 -184 -71.5s-124.334 23.833 -167.001 71.5s-59.667 105.167 -51 172.5
c8 67.333 39.167 124.833 93.5 172.5s115.833 71.5 184.5 71.5h280zM460.003 236c6 48.667 -7 90.834 -39 126.501s-73 53.5 -123 53.5s-95.333 -17.833 -136 -53.5s-64 -77.834 -70 -126.501s7 -90.834 39 -126.501s73 -53.5 123 -53.5s95.333 17.833 136 53.5
s64 77.834 70 126.501z" />
    <glyph glyph-name="tau" unicode="&#x3c4;" horiz-adv-x="432" 
d="M402 416h-143.999l-36 -291c-4 -32 -2.33301 -51.667 5 -59s24.666 -8 51.999 -2l-8 -64c-20 -5.33301 -36 -8 -48 -8c-28.667 0 -48.167 9.83301 -58.5 29.5s-12.833 51.5 -7.5 95.5l37 299h-144l8 64h352z" />
    <glyph glyph-name="upsilon" unicode="&#x3c5;" horiz-adv-x="512" 
d="M426 480c20 -91.333 26.6689 -167.331 20.002 -227.998c-10 -78.667 -36.833 -141.667 -80.5 -189s-96.834 -71 -159.501 -71c-59.333 0 -104 18.333 -134 55s-40.333 93 -31 169l33 264h64l-34 -274c-6.66699 -50 -0.333984 -87.5 18.999 -112.5s49.333 -37.5 90 -37.5
c46.667 0 84.667 18.167 114 54.5s47 80.166 53 131.499c4 58.667 4.5 100.667 1.5 126s-9.5 62.666 -19.5 111.999h64z" />
    <glyph glyph-name="phi" unicode="&#x3c6;" horiz-adv-x="624" 
d="M366 512c69.333 -8 123.501 -35.667 162.501 -83s54.167 -106.333 45.5 -177s-38.334 -129.667 -89.001 -177s-111.667 -75 -183 -83l-31 -248h-64l31 248c-70 8 -124.333 35.667 -163 83s-53.667 106.333 -45 177s38.167 129.667 88.5 177s111.5 75 183.5 83l23 192h64z
M245.001 54l48.998 396c-52.667 -6.66699 -97.5 -27.167 -134.5 -61.5s-58.833 -79.833 -65.5 -136.5c-7.33301 -56.667 3.33398 -102.167 32.001 -136.5s68.334 -54.833 119.001 -61.5zM509.999 252c6.66699 56.667 -4.33203 102.167 -32.999 136.5
s-68.334 54.833 -119.001 61.5l-49 -396c52.667 6.66699 97.5 27.167 134.5 61.5s59.167 79.833 66.5 136.5z" />
    <glyph glyph-name="chi" unicode="&#x3c7;" 
d="M277 255l154 -255h-78l-121 203l-171 -203h-78l216 255l-142 225h78l109 -180l153 180h78z" />
    <glyph glyph-name="psi" unicode="&#x3c8;" horiz-adv-x="656" 
d="M554 480h63.999l-28 -226c-10 -83.333 -38 -145.833 -84 -187.5s-108.667 -66.5 -188 -74.5l-31 -248h-64l31 248c-77.333 8 -133.833 32.833 -169.5 74.5s-48.5 104.167 -38.5 187.5l28 226h64l-31 -246c-12.667 -104.667 39 -164 155 -178l52 424h64l-52 -424
c118.667 14 184.334 73.333 197.001 178z" />
    <glyph glyph-name="omega" unicode="&#x3c9;" horiz-adv-x="688" 
d="M585 480c14.667 -31.333 25.1689 -70.5 31.502 -117.5s7.16602 -91.833 2.49902 -134.5c-10 -81.333 -33 -141 -69 -179s-78.667 -57 -128 -57c-52 0 -89.667 20.333 -113 61c-33.333 -40.667 -75.666 -61 -126.999 -61c-49.333 0 -87.333 19 -114 57s-35 97.667 -25 179
c4.66699 42.667 16.167 87.5 34.5 134.5s38.833 86.167 61.5 117.5h60c-50 -76 -81 -162 -93 -258c-6.66699 -52 -2.66699 -92.667 12 -122s38.667 -44 72 -44c22 0 43.167 9 63.5 27s32.833 45.667 37.5 83l31 250h64l-31 -250c-4.66699 -37.333 1.16602 -65 17.499 -83
s35.5 -27 57.5 -27c33.333 0 60.666 14.667 81.999 44s35.333 70 42 122c12 96 2.33301 182 -29 258h60z" />
    <glyph glyph-name="iotadieresis" unicode="&#x3ca;" horiz-adv-x="240" 
d="M50 544c-13.333 0 -24.167 4.66699 -32.5 14s-11.833 20.666 -10.5 33.999c2 13.333 8.16699 24.666 18.5 33.999s22.166 14 35.499 14s24.166 -4.66699 32.499 -14s11.5 -20.666 9.5 -33.999c-1.33301 -13.333 -7.16602 -24.666 -17.499 -33.999
s-22.166 -14 -35.499 -14zM209.999 544c-13.333 0 -24.167 4.66699 -32.5 14s-11.833 20.666 -10.5 33.999c2 13.333 8.16699 24.666 18.5 33.999s22.166 14 35.499 14s24.166 -4.66699 32.499 -14s11.5 -20.666 9.5 -33.999
c-1.33301 -13.333 -7.16602 -24.666 -17.499 -33.999s-22.166 -14 -35.499 -14zM153.998 480l-43.999 -355c-4 -32 -2.33301 -51.667 5 -59s24.666 -8 51.999 -2l-8 -64c-20 -5.33301 -36 -8 -48 -8c-28.667 0 -48.167 9.83301 -58.5 29.5s-12.833 51.5 -7.5 95.5l45 363h64
z" />
    <glyph glyph-name="upsilondieresis" unicode="&#x3cb;" horiz-adv-x="512" 
d="M178 544c-13.333 0 -24.167 4.66699 -32.5 14s-11.833 20.666 -10.5 33.999c2 13.333 8.16699 24.666 18.5 33.999s22.166 14 35.499 14s24.166 -4.66699 32.499 -14s11.5 -20.666 9.5 -33.999c-1.33301 -13.333 -7.16602 -24.666 -17.499 -33.999
s-22.166 -14 -35.499 -14zM337.999 544c-13.333 0 -24.167 4.66699 -32.5 14s-11.833 20.666 -10.5 33.999c2 13.333 8.16699 24.666 18.5 33.999s22.166 14 35.499 14s24.166 -4.66699 32.499 -14s11.5 -20.666 9.5 -33.999
c-1.33301 -13.333 -7.16602 -24.666 -17.499 -33.999s-22.166 -14 -35.499 -14zM425.998 480c20 -91.333 26.6689 -167.331 20.002 -227.998c-10 -78.667 -36.833 -141.667 -80.5 -189s-96.834 -71 -159.501 -71c-59.333 0 -104 18.333 -134 55s-40.333 93 -31 169l33 264
h64l-34 -274c-6.66699 -50 -0.333984 -87.5 18.999 -112.5s49.333 -37.5 90 -37.5c46.667 0 84.667 18.167 114 54.5s47 80.166 53 131.499c4 58.667 4.5 100.667 1.5 126s-9.5 62.666 -19.5 111.999h64z" />
    <glyph glyph-name="omicrontonos" unicode="&#x3cc;" horiz-adv-x="576" 
d="M282 544l45 112h80l-85 -112h-40zM307 488c68.667 0 124.169 -24.167 166.502 -72.5s59.166 -106.833 50.499 -175.5s-40 -127.167 -94 -175.5s-115.333 -72.5 -184 -72.5s-124.334 24.167 -167.001 72.5s-59.667 106.833 -51 175.5s40.167 127.167 94.5 175.5
s115.833 72.5 184.5 72.5zM254.002 56c50 0 95.333 18.167 136 54.5s64 79.5 70 129.5s-6.83301 93.167 -38.5 129.5s-72.5 54.5 -122.5 54.5s-95.5 -18.167 -136.5 -54.5s-64.5 -79.5 -70.5 -129.5s7 -93.167 39 -129.5s73 -54.5 123 -54.5z" />
    <glyph glyph-name="upsilontonos" unicode="&#x3cd;" horiz-adv-x="512" 
d="M218 544l45 112h80l-85 -112h-40zM426 480c20 -91.333 26.6689 -167.331 20.002 -227.998c-10 -78.667 -36.833 -141.667 -80.5 -189s-96.834 -71 -159.501 -71c-59.333 0 -104 18.333 -134 55s-40.333 93 -31 169l33 264h64l-34 -274
c-6.66699 -50 -0.333984 -87.5 18.999 -112.5s49.333 -37.5 90 -37.5c46.667 0 84.667 18.167 114 54.5s47 80.166 53 131.499c4 58.667 4.5 100.667 1.5 126s-9.5 62.666 -19.5 111.999h64z" />
    <glyph glyph-name="omegatonos" unicode="&#x3ce;" horiz-adv-x="688" 
d="M338 544l45 112h80l-85 -112h-40zM585 480c14.667 -31.333 25.1689 -70.5 31.502 -117.5s7.16602 -91.833 2.49902 -134.5c-10 -81.333 -33 -141 -69 -179s-78.667 -57 -128 -57c-52 0 -89.667 20.333 -113 61c-33.333 -40.667 -75.666 -61 -126.999 -61
c-49.333 0 -87.333 19 -114 57s-35 97.667 -25 179c4.66699 42.667 16.167 87.5 34.5 134.5s38.833 86.167 61.5 117.5h60c-50 -76 -81 -162 -93 -258c-6.66699 -52 -2.66699 -92.667 12 -122s38.667 -44 72 -44c22 0 43.167 9 63.5 27s32.833 45.667 37.5 83l31 250h64
l-31 -250c-4.66699 -37.333 1.16602 -65 17.499 -83s35.5 -27 57.5 -27c33.333 0 60.666 14.667 81.999 44s35.333 70 42 122c12 96 2.33301 182 -29 258h60z" />
    <glyph glyph-name="uni0401" unicode="&#x401;" 
d="M217 736c-13.333 0 -24 4.66699 -32 14s-11.333 20.666 -10 33.999s7.33301 24.666 18 33.999s22.667 14 36 14s24 -4.66699 32 -14s11.333 -20.666 10 -33.999s-7.33301 -24.666 -18 -33.999s-22.667 -14 -36 -14zM377 736c-13.333 0 -24 4.66699 -32 14
s-11.333 20.666 -10 33.999s7.33301 24.666 18 33.999s22.667 14 36 14s24 -4.66699 32 -14s11.333 -20.666 10 -33.999s-7.33301 -24.666 -18 -33.999s-22.667 -14 -36 -14zM473 608h-304l-29 -240h256l-8 -64h-256l-29 -240h304l-8 -64h-368l82 672h368z" />
    <glyph glyph-name="uni0402" unicode="&#x402;" horiz-adv-x="656" 
d="M408 400c70 0 118.832 -15.666 146.499 -46.999s37.167 -82.333 28.5 -153l-8 -66c-4.66699 -38.667 -12 -72.167 -22 -100.5s-20.333 -50 -31 -65s-24 -27.5 -40 -37.5s-29.333 -16.5 -40 -19.5s-23.667 -5.5 -39 -7.5l-9 58c35.333 7.33301 61.833 23.166 79.5 47.499
s29.834 62.5 36.501 114.5l9 76c6.66699 53.333 -0.833008 89.333 -22.5 108s-56.5 28 -104.5 28c-28.667 0 -59.167 -4.33301 -91.5 -13s-56.833 -17.667 -73.5 -27l-36 -296h-64l74 608h-128l8 64h384l-8 -64h-192l-30 -248c20 10 47.5 19.167 82.5 27.5
s65.167 12.5 90.5 12.5z" />
    <glyph glyph-name="uni0403" unicode="&#x403;" horiz-adv-x="480" 
d="M217 736l96 128h80l-128 -128h-48zM473 608h-304l-74 -608h-64l82 672h368z" />
    <glyph glyph-name="uni0404" unicode="&#x404;" horiz-adv-x="640" 
d="M350 56c74.667 0 141.002 24.3311 199.002 72.998l18 -58c-30 -24.667 -65 -44 -105 -58s-78.667 -21 -116 -21c-96 0 -173.833 33.667 -233.5 101s-83.834 148.333 -72.501 243s55.166 175.667 131.499 243s162.5 101 258.5 101c37.333 0 74.5 -7 111.5 -21
s67.5 -33.333 91.5 -58l-34 -58c-46.667 48.667 -107 73 -181 73c-72.667 0 -138.5 -24.167 -197.5 -72.5s-96.5 -108.166 -112.5 -179.499h335l-6 -56h-335c-2 -71.333 20.667 -131.166 68 -179.499s107.333 -72.5 180 -72.5z" />
    <glyph glyph-name="uni0405" unicode="&#x405;" horiz-adv-x="560" 
d="M299 380c80.667 -16.667 136.167 -39.8301 166.5 -69.4971s42.166 -72.834 35.499 -129.501c-6 -51.333 -34 -95.666 -84 -132.999s-109 -56 -177 -56c-35.333 0 -67.833 4.66699 -97.5 14s-53.5 21 -71.5 35s-31.5 25.667 -40.5 35s-15.5 17.666 -19.5 24.999l39 57
c19.333 -30 46 -54.5 80 -73.5s74 -28.5 120 -28.5c47.333 0 89.333 12.5 126 37.5s57 55.5 61 91.5c4 33.333 -5.16699 60.666 -27.5 81.999s-63.833 37.666 -124.5 48.999c-83.333 15.333 -139.166 37.833 -167.499 67.5s-39.5 68.834 -33.5 117.501
c6 50.667 31.667 93.167 77 127.5s101.666 51.5 168.999 51.5c80.667 0 144 -26.667 190 -80l-36 -55c-38 47.333 -92.333 71 -163 71c-45.333 0 -84.166 -9.83301 -116.499 -29.5s-50.833 -46.834 -55.5 -81.501c-4.66699 -34 4.83301 -60.333 28.5 -79
s64.167 -34 121.5 -46z" />
    <glyph glyph-name="uni0406" unicode="&#x406;" horiz-adv-x="208" 
d="M95 0h-64l82 672h64z" />
    <glyph glyph-name="uni0407" unicode="&#x407;" horiz-adv-x="208" 
d="M73 736c-13.333 0 -24 4.66699 -32 14s-11.333 20.666 -10 33.999s7.33301 24.666 18 33.999s22.667 14 36 14s24 -4.66699 32 -14s11.333 -20.666 10 -33.999s-7.33301 -24.666 -18 -33.999s-22.667 -14 -36 -14zM233 736c-13.333 0 -24 4.66699 -32 14
s-11.333 20.666 -10 33.999s7.33301 24.666 18 33.999s22.667 14 36 14s24 -4.66699 32 -14s11.333 -20.666 10 -33.999s-7.33301 -24.666 -18 -33.999s-22.667 -14 -36 -14zM95 0h-64l82 672h64z" />
    <glyph glyph-name="uni0408" unicode="&#x408;" horiz-adv-x="448" 
d="M369 672l63.999 -0.000976562l-51 -416c-21.333 -176 -101.333 -264 -240 -264c-28 0 -55 6.33301 -81 19s-44.667 27 -56 43l47 52c7.33301 -14.667 19.833 -26.667 37.5 -36s37.834 -14 60.501 -14c50.667 0 89.167 16.333 115.5 49s43.5 80.334 51.5 143.001z" />
    <glyph glyph-name="uni0409" unicode="&#x409;" horiz-adv-x="1008" 
d="M736 368c75.333 0 131.501 -15.8311 168.501 -47.498s51.833 -76.834 44.5 -135.501c-6.66699 -58.667 -33.167 -104.167 -79.5 -136.5s-105.833 -48.5 -178.5 -48.5h-196l74 608h-288l-42 -344c-3.33301 -26.667 -5.83301 -46 -7.5 -58s-4.33398 -28.333 -8.00098 -49
s-7.16699 -36 -10.5 -46s-8.16602 -22 -14.499 -36s-13.5 -24.833 -21.5 -32.5s-17.5 -15.5 -28.5 -23.5s-23.833 -14.333 -38.5 -19c-36.667 -12 -68.334 -12 -95.001 0l8 64c37.333 -12.667 68.333 -10.667 93 6c25.333 17.333 41.333 51.666 48 102.999l61 499h416
l-37 -304h132zM699.001 64.002c50 0 92.168 9.33301 126.501 28s54.166 49.667 59.499 93s-7 74 -37 92s-70 27 -120 27h-132l-29 -240h132z" />
    <glyph glyph-name="uni040A" unicode="&#x40a;" horiz-adv-x="960" 
d="M688 368c75.333 0 131.5 -15.832 168.5 -47.499s51.833 -76.834 44.5 -135.501c-6.66699 -58.667 -33.167 -104.167 -79.5 -136.5s-105.833 -48.5 -178.5 -48.5h-196l37 304h-352l-37 -304h-64l82 672h64l-37 -304h352l37 304h64l-37 -304h132zM651 64.001
c50 0 92.168 9.33301 126.501 28s54.166 49.667 59.499 93s-7 74 -37 92s-70 27 -120 27h-132l-29 -240h132z" />
    <glyph glyph-name="uni040B" unicode="&#x40b;" horiz-adv-x="656" 
d="M408 400c70 0 118.833 -15.667 146.5 -47s37.167 -82.333 28.5 -153l-24 -200h-64l24 200c6.66699 53.333 -0.833008 89.333 -22.5 108s-56.5 28 -104.5 28c-28.667 0 -59.167 -4.33301 -91.5 -13s-56.833 -17.667 -73.5 -27l-36 -296h-64l74 608h-128l8 64h384l-8 -64
h-192l-30 -248c20 10 47.5 19.167 82.5 27.5s65.167 12.5 90.5 12.5z" />
    <glyph glyph-name="uni040C" unicode="&#x40c;" horiz-adv-x="528" 
d="M225 736l96 128h80l-128 -128h-48zM192 339l271 -339h-88l-243 304l-37 -304h-64l82 672h64l-37 -304l301 304h88z" />
    <glyph glyph-name="uni040E" unicode="&#x40e;" horiz-adv-x="576" 
d="M436 860h47.998c-4 -34.667 -19.5 -64 -46.5 -88s-57.833 -36 -92.5 -36s-62.5 12 -83.5 36s-29.5 53.333 -25.5 88h48c-2.66699 -20.667 2.5 -38.5 15.5 -53.5s30.167 -22.5 51.5 -22.5c20.667 0 39.334 7.33301 56.001 22s26.334 32.667 29.001 54zM536.998 672h72
l-466 -672h-72l177 252l-183 420h72l155 -361z" />
    <glyph glyph-name="uni040F" unicode="&#x40f;" horiz-adv-x="624" 
d="M529 672h64l-82 -672h-208l-16 -128h-64l16 128h-208l82 672h64l-74 -608h352z" />
    <glyph glyph-name="uni0410" unicode="&#x410;" horiz-adv-x="656" 
d="M535 0l-49 144h-364l-83 -144h-72l404 688l236 -688h-72zM159 208h306l-111 336z" />
    <glyph glyph-name="uni0411" unicode="&#x411;" horiz-adv-x="576" 
d="M310 416c73.333 0 128.667 -19.332 166 -57.999s52 -88.334 44 -149.001c-7.33301 -60.667 -35 -110.667 -83 -150s-107.333 -59 -178 -59h-228l82 672h400l-8 -64h-336l-23 -192h164zM267.001 64.001c50.667 0 93.333 12 128 36s55 60.333 61 109
s-5.33301 84.667 -34 108s-68.667 35 -120 35h-164l-35 -288h164z" />
    <glyph glyph-name="uni0412" unicode="&#x412;" horiz-adv-x="560" 
d="M411 361c32 -6.66699 56.5 -26 73.5 -58s23.5 -65.667 19.5 -101c-8 -59.333 -33.667 -107.833 -77 -145.5s-98 -56.5 -164 -56.5h-232l82 672h177c74 0 130.5 -15.167 169.5 -45.5s55.167 -73.833 48.5 -130.5c-4 -29.333 -15.333 -57 -34 -83s-39.667 -43.333 -63 -52z
M169 608l-27.001 -224h136c100.667 0 156 37.333 166 112c8.66699 74.667 -37.666 112 -138.999 112h-136zM254.999 64c52.667 0 95.167 10.666 127.5 31.999s50.833 53 55.5 95c5.33301 42.667 -5.5 74.834 -32.5 96.501s-66.833 32.5 -119.5 32.5h-152l-31 -256h152z" />
    <glyph glyph-name="uni0413" unicode="&#x413;" horiz-adv-x="480" 
d="M473 608h-304l-74 -608h-64l82 672h368z" />
    <glyph glyph-name="uni0414" unicode="&#x414;" horiz-adv-x="720" 
d="M535 64l95.9971 -0.000976562l-24 -192h-64l16 128h-496l-16 -128h-64l24 192c16.667 12 31.834 24 45.501 36s26.334 25.833 38.001 41.5l31 42.5c9 12.667 17.5 29.667 25.5 51l20.5 53c5.66699 14 11.334 35 17.001 63l13.5 66c3.33301 16 7.5 41.833 12.5 77.5
s8.66699 63.334 11 83.001l11.5 94.5h376zM101.997 63.999h369l66 544h-248c-18 -148 -40.167 -261.667 -66.5 -341s-66.5 -147 -120.5 -203z" />
    <glyph glyph-name="uni0415" unicode="&#x415;" 
d="M473 608h-304l-29 -240h256l-8 -64h-256l-29 -240h304l-8 -64h-368l82 672h368z" />
    <glyph glyph-name="uni0416" unicode="&#x416;" horiz-adv-x="848" 
d="M522 346l261 -346h-80l-226 301l-29 -28l-33 -273h-64l33 273l-20 28l-301 -301h-80l345 346l-247 326h80l234 -312l38 312h64l-38 -312l310 312h80z" />
    <glyph glyph-name="uni0417" unicode="&#x417;" horiz-adv-x="544" 
d="M212 304l7.99902 64.002c59.333 0 110.166 11.333 152.499 34s65.833 52.667 70.5 90c4.66699 36.667 -5.66602 66.5 -30.999 89.5s-62.666 34.5 -111.999 34.5c-63.333 0 -125.333 -25 -186 -75l-29 51c68.667 58.667 144.667 88 228 88
c63.333 0 113.166 -17.167 149.499 -51.5s51.166 -79.833 44.499 -136.5c-3.33301 -28.667 -17.166 -57.667 -41.499 -87s-52.833 -49 -85.5 -59c34.667 -12 62.167 -31.833 82.5 -59.5s28.166 -59.167 23.499 -94.5c-7.33301 -62 -35.666 -110.833 -84.999 -146.5
s-109.666 -53.5 -180.999 -53.5c-90.667 0 -161 30.667 -211 92l43 54c40 -54.667 98 -82 174 -82c51.333 0 95.5 11.667 132.5 35s57.833 54.333 62.5 93c3.33301 24 0.333008 44.167 -9 60.5s-24.333 28.666 -45 36.999s-43.167 14.166 -67.5 17.499s-53.5 5 -87.5 5z" />
    <glyph glyph-name="uni0418" unicode="&#x418;" horiz-adv-x="672" 
d="M29 -16l84 688h64l-64 -520l530 536l-84 -688h-64l64 520z" />
    <glyph glyph-name="uni0419" unicode="&#x419;" horiz-adv-x="672" 
d="M476 860h47.998c-4 -34.667 -19.5 -64 -46.5 -88s-57.833 -36 -92.5 -36s-62.5 12 -83.5 36s-29.5 53.333 -25.5 88h48c-2.66699 -20.667 2.5 -38.5 15.5 -53.5s30.167 -22.5 51.5 -22.5c20.667 0 39.334 7.33301 56.001 22s26.334 32.667 29.001 54zM28.998 -16l84 688
h64l-64 -520l530 536l-84 -688h-64l64 520z" />
    <glyph glyph-name="uni041A" unicode="&#x41a;" horiz-adv-x="528" 
d="M192 339l271 -339h-88l-243 304l-37 -304h-64l82 672h64l-37 -304l301 304h88z" />
    <glyph glyph-name="uni041B" unicode="&#x41b;" horiz-adv-x="672" 
d="M641 672l-81.999 -671.999h-64l74 608h-288l-42 -344c-3.33301 -26.667 -5.83301 -46 -7.5 -58s-4.33398 -28.333 -8.00098 -49s-7.16699 -36 -10.5 -46s-8.16602 -22 -14.499 -36s-13.5 -24.833 -21.5 -32.5s-17.5 -15.5 -28.5 -23.5s-23.833 -14.333 -38.5 -19
c-36.667 -12 -68.334 -12 -95.001 0l8 64c37.333 -12.667 68.333 -10.667 93 6c25.333 17.333 41.333 51.666 48 102.999l61 499h416z" />
    <glyph glyph-name="uni041C" unicode="&#x41c;" horiz-adv-x="832" 
d="M373 -16l-174 494l-134 -478h-66l198 688l193 -564l331 564l30 -688h-66l-18 478z" />
    <glyph glyph-name="uni041D" unicode="&#x41d;" horiz-adv-x="624" 
d="M529 672h64l-82 -672h-64l37 304h-352l-37 -304h-64l82 672h64l-37 -304h352z" />
    <glyph glyph-name="uni041E" unicode="&#x41e;" horiz-adv-x="768" 
d="M426 680c94.667 0 171.5 -33.5 230.5 -100.5s82.833 -148.167 71.5 -243.5c-11.333 -94.667 -54.666 -175.667 -129.999 -243s-160.666 -101 -255.999 -101c-94.667 0 -171.5 33.5 -230.5 100.5s-82.833 148.167 -71.5 243.5c11.333 94.667 54.666 175.667 129.999 243
s160.666 101 255.999 101zM350 56c78 0 147.5 27.167 208.5 81.5s96.167 120.5 105.5 198.5s-9.83398 144.167 -57.501 198.5s-110.5 81.5 -188.5 81.5s-147.5 -27.167 -208.5 -81.5s-96.167 -120.5 -105.5 -198.5s9.83398 -144.167 57.501 -198.5s110.5 -81.5 188.5 -81.5z
" />
    <glyph glyph-name="uni041F" unicode="&#x41f;" horiz-adv-x="624" 
d="M593 672l-82 -672h-64l74 608h-352l-74 -608h-64l82 672h480z" />
    <glyph glyph-name="uni0420" unicode="&#x420;" horiz-adv-x="560" 
d="M305 672c85.333 0 147 -18.833 185 -56.5s53 -89.167 45 -154.5c-8 -64.667 -34.5 -117.667 -79.5 -159s-102.167 -62 -171.5 -62h-160l-29 -240h-64l82 672h192zM292 304c47.333 0 87.3311 12.167 119.998 36.5s52.334 62.5 59.001 114.5
c6 52 -5.16699 90.5 -33.5 115.5s-66.166 37.5 -113.499 37.5h-155l-37 -304h160z" />
    <glyph glyph-name="uni0421" unicode="&#x421;" horiz-adv-x="640" 
d="M350 56c74.667 0 141 24.333 199 73l18 -58c-30 -24.667 -65 -44 -105 -58s-78.667 -21 -116 -21c-96 0 -173.833 33.667 -233.5 101s-83.834 148.333 -72.501 243s55.166 175.667 131.499 243s162.5 101 258.5 101c37.333 0 74.5 -7 111.5 -21s67.5 -33.333 91.5 -58
l-34 -58c-46.667 48.667 -107 73 -181 73c-77.333 0 -146.666 -27.333 -207.999 -82s-96.666 -120.667 -105.999 -198s10 -143.333 58 -198s110.667 -82 188 -82z" />
    <glyph glyph-name="uni0422" unicode="&#x422;" 
d="M81 672h416l-8 -64h-176l-74 -608h-64l74 608h-176z" />
    <glyph glyph-name="uni0423" unicode="&#x423;" horiz-adv-x="576" 
d="M537 672h72l-466 -672h-72l177 252l-183 420h72l155 -361z" />
    <glyph glyph-name="uni0424" unicode="&#x424;" horiz-adv-x="752" 
d="M714 352c-10 -84 -45.998 -152.998 -107.998 -206.998s-139 -81 -231 -81l-8 -64h-64l8 64c-92 0 -162.333 27 -211 81s-68 123 -58 207c10.667 85.333 47.167 154.666 109.5 207.999s138.833 80 229.5 80l8 64h64l-8 -64c91.333 0 161.666 -26.833 210.999 -80.5
s68.666 -122.834 57.999 -207.501zM318.002 124.002l56 456c-68 0 -127.333 -18.833 -178 -56.5s-80.667 -94.834 -90 -171.501c-9.33301 -77.333 6.66699 -134.666 48 -171.999s96 -56 164 -56zM382.002 124.002c69.333 0 129 18.6689 179 56.002s79.667 94.666 89 171.999
s-6.5 134.666 -47.5 171.999s-95.833 56 -164.5 56z" />
    <glyph glyph-name="uni0425" unicode="&#x425;" horiz-adv-x="624" 
d="M559 0h-83l-169 292l-241 -292h-83l290 347l-192 325h82l157 -272l223 272h82l-272 -325z" />
    <glyph glyph-name="uni0426" unicode="&#x426;" horiz-adv-x="704" 
d="M519 64h96l-24 -192h-64l16 128h-512l82 672h64l-74 -608h352l74 608h64z" />
    <glyph glyph-name="uni0427" unicode="&#x427;" horiz-adv-x="592" 
d="M261 248c-64 0 -113.666 18.499 -148.999 55.499s-48.333 93.167 -39 168.5l24 200h64l-23 -192c-7.33301 -57.333 -0.333008 -99.666 21 -126.999s60.666 -41 117.999 -41c25.333 0 53 3 83 9s53.667 12 71 18l26 9l40 324h64l-82 -672h-64l35 284
c-75.333 -24 -138.333 -36 -189 -36z" />
    <glyph glyph-name="uni0428" unicode="&#x428;" horiz-adv-x="880" 
d="M785 672h64l-82 -672h-736l82 672h64l-74 -608h272l74 608h64l-74 -608h272z" />
    <glyph glyph-name="uni0429" unicode="&#x429;" horiz-adv-x="960" 
d="M775 64h96l-24 -192h-64l16 128h-768l82 672h64l-74 -608h272l74 608h64l-74 -608h272l74 608h64z" />
    <glyph glyph-name="uni042A" unicode="&#x42a;" horiz-adv-x="656" 
d="M390 416c73.333 0 128.667 -19.332 166 -57.999s52 -88.334 44 -149.001c-7.33301 -60.667 -35 -110.667 -83 -150s-107.333 -59 -178 -59h-212l74 608h-128l8 64h192l-31 -256h148zM347.001 64.001c50.667 0 93.333 12 128 36s55 60.333 61 109s-5.33301 84.667 -34 108
s-68.667 35 -120 35h-148l-35 -288h148z" />
    <glyph glyph-name="uni042B" unicode="&#x42b;" horiz-adv-x="752" 
d="M294 416c73.333 0 128.667 -19.332 166 -57.999s52 -88.334 44 -149.001c-7.33301 -60.667 -35 -110.667 -83 -150s-107.333 -59 -178 -59h-212l82 672h64l-31 -256h148zM639.001 0.000976562h-64l82 672h64zM251.001 64.001c50.667 0 93.333 12 128 36s55 60.333 61 109
s-5.33301 84.667 -34 108s-68.667 35 -120 35h-148l-35 -288h148z" />
    <glyph glyph-name="uni042C" unicode="&#x42c;" horiz-adv-x="560" 
d="M294 416c73.333 0 128.667 -19.332 166 -57.999s52 -88.334 44 -149.001c-7.33301 -60.667 -35 -110.667 -83 -150s-107.333 -59 -178 -59h-212l82 672h64l-31 -256h148zM251.001 64.001c50.667 0 93.333 12 128 36s55 60.333 61 109s-5.33301 84.667 -34 108
s-68.667 35 -120 35h-148l-35 -288h148z" />
    <glyph glyph-name="uni042D" unicode="&#x42d;" horiz-adv-x="640" 
d="M222 56c72.667 0 138.498 24.1689 197.498 72.502s96.5 108.166 112.5 179.499h-335l6 56h335c2 71.333 -20.667 131.166 -68 179.499s-107.333 72.5 -180 72.5c-73.333 0 -139.666 -24.333 -198.999 -73l-18 58c30 24.667 65 44 105 58s78.667 21 116 21
c96 0 173.833 -33.667 233.5 -101s83.834 -148.333 72.501 -243s-55.166 -175.667 -131.499 -243s-162.5 -101 -258.5 -101c-37.333 0 -74.5 7 -111.5 21s-67.5 33.333 -91.5 58l34 58c45.333 -48.667 105.666 -73 180.999 -73z" />
    <glyph glyph-name="uni042E" unicode="&#x42e;" horiz-adv-x="976" 
d="M634 680c94.667 0 171.498 -33.5 230.498 -100.5s82.833 -148.167 71.5 -243.5c-11.333 -94.667 -54.666 -175.667 -129.999 -243s-160.666 -101 -255.999 -101c-89.333 0 -163 30 -221 90s-86 134 -84 222h-113l-37 -304h-64l82 672h64l-37 -304h113
c19.333 88 65.333 162 138 222s153.667 90 243 90zM557.998 56c78 0 147.5 27.167 208.5 81.5s96.167 120.5 105.5 198.5s-9.83398 144.167 -57.501 198.5s-110.5 81.5 -188.5 81.5s-147.5 -27.167 -208.5 -81.5s-96.167 -120.5 -105.5 -198.5
s9.83398 -144.167 57.501 -198.5s110.5 -81.5 188.5 -81.5z" />
    <glyph glyph-name="uni042F" unicode="&#x42f;" horiz-adv-x="576" 
d="M-1 0l215.999 245.001c-52.667 10 -91.5 34.667 -116.5 74s-34.167 86.666 -27.5 141.999c8 66 35.833 117.667 83.5 155s113.834 56 198.501 56h192l-82 -672h-64l29 240h-143l-210 -240h-76zM472.999 608.001h-155.001c-47.333 0 -88.166 -12.5 -122.499 -37.5
s-54.5 -63.5 -60.5 -115.5c-6.66699 -52 3.33301 -90.167 30 -114.5s63.667 -36.5 111 -36.5h160z" />
    <glyph glyph-name="uni0430" unicode="&#x430;" horiz-adv-x="608" 
d="M511 0h-63.998c-9.33301 16 -11.333 44 -6 84c-52.667 -61.333 -117.667 -92 -195 -92c-68.667 0 -124.334 24.167 -167.001 72.5s-59.667 106.833 -51 175.5s40.167 127.167 94.5 175.5s115.833 72.5 184.5 72.5c77.333 0 134.666 -31 171.999 -93l11 85h64l-47 -384
c-6 -48 -4.66699 -80 4 -96zM254.002 56c51.333 0 96.9971 18 136.997 54s63 79.333 69 130c6.66699 50.667 -5.66602 94 -36.999 130s-72.666 54 -123.999 54c-50.667 0 -96.167 -17.833 -136.5 -53.5s-63.833 -79.167 -70.5 -130.5
c-6 -51.333 6.83301 -94.833 38.5 -130.5s72.834 -53.5 123.501 -53.5z" />
    <glyph glyph-name="uni0431" unicode="&#x431;" horiz-adv-x="576" 
d="M307 488c68.667 0 124.165 -24.167 166.498 -72.5s59.166 -106.833 50.499 -175.5s-40 -127.167 -94 -175.5s-115.333 -72.5 -184 -72.5c-71.333 0 -127.666 24 -168.999 72s-57.666 107 -48.999 177c16 126.667 93 234.667 231 324c34.667 22 59 38 73 48s29 23 45 39
s28 33.333 36 52h72c-14 -53.333 -55.333 -100.333 -124 -141c-77.333 -46.667 -124.666 -77.667 -141.999 -93c26.667 12 56 18 88 18zM253.998 56c50 0 95.333 18.167 136 54.5s64 79.5 70 129.5s-6.83301 93.167 -38.5 129.5s-72.5 54.5 -122.5 54.5
s-95.5 -18.167 -136.5 -54.5s-64.5 -79.5 -70.5 -129.5s7 -93.167 39 -129.5s73 -54.5 123 -54.5z" />
    <glyph glyph-name="uni0432" unicode="&#x432;" horiz-adv-x="512" 
d="M366 251c20 -6 36.833 -18.834 50.5 -38.501s19.167 -41.834 16.5 -66.501c-12.667 -97.333 -80 -146 -202 -146h-200l59 480h184c66.667 0 112.5 -11.667 137.5 -35s34.833 -56.333 29.5 -99c-2 -19.333 -10 -38.166 -24 -56.499s-31 -31.166 -51 -38.499zM146 415.999
l-16.998 -140h147c23.333 0 45.166 5.33301 65.499 16s32.166 28 35.499 52c3.33301 26 -3.16699 44.5 -19.5 55.5s-37.833 16.5 -64.5 16.5h-147zM264.002 63.999c63.333 0 98 25.334 104 76.001c2.66699 23.333 -5 41.166 -23 53.499s-39 18.5 -63 18.5h-161l-18 -148h161
z" />
    <glyph glyph-name="uni0433" unicode="&#x433;" horiz-adv-x="368" 
d="M146 416l-51 -416h-64l59 480h256l-8 -64h-192z" />
    <glyph glyph-name="uni0434" unicode="&#x434;" horiz-adv-x="640" 
d="M471 64l80.0029 -0.00195312l-24 -192h-64l16 128h-416l-16 -128h-64l24 192c25.333 12 47.166 25.333 65.499 40s34.166 32.834 47.499 54.501s24 41.5 32 59.5s15.333 43.833 22 77.5s11.667 61.334 15 83.001s7.66602 55.5 12.999 101.5h320zM110.003 63.998
l296.999 -0.000976562l43 352h-192c-11.333 -90.667 -27.666 -163.667 -48.999 -219s-54.333 -99.666 -99 -132.999z" />
    <glyph glyph-name="uni0435" unicode="&#x435;" horiz-adv-x="544" 
d="M492 242c-1.33301 -13.333 -3.66504 -24.668 -6.99805 -34.001h-395c-0.666992 -45.333 14.666 -82 45.999 -110s72.666 -42 123.999 -42c57.333 0 110.666 17.333 159.999 52l17 -58c-8 -6.66699 -18.5 -13.667 -31.5 -21s-34.333 -15.333 -64 -24
s-60.167 -13 -91.5 -13c-76.667 0 -134.834 23.833 -174.501 71.5s-55.5 106.5 -47.5 176.5c8.66699 71.333 37.834 130.5 87.501 177.5s110.5 70.5 182.5 70.5c65.333 0 116.333 -22.167 153 -66.5s50.334 -104.166 41.001 -179.499zM98.001 271.998h333.001
c2.66699 38.667 -7.83301 73.667 -31.5 105s-61.167 47 -112.5 47c-52.667 0 -95.834 -15.667 -129.501 -47s-53.5 -66.333 -59.5 -105z" />
    <glyph glyph-name="uni0436" unicode="&#x436;" horiz-adv-x="688" 
d="M434 256l189 -256h-82l-154 211l-30 -28l-22 -183h-64l22 183l-22 28l-206 -211h-82l251 256l-176 224h84l162 -208l26 208h64l-26 -208l214 208h84z" />
    <glyph glyph-name="uni0437" unicode="&#x437;" horiz-adv-x="464" 
d="M178 56c36 -1.33301 67.667 4.33105 95 16.998s42.666 32 45.999 58c6.66699 54 -48.666 81 -165.999 81l7 56c54 0 96.333 7.5 127 22.5s47.667 35.833 51 62.5c2.66699 20.667 -6.33301 37.834 -27 51.501s-50 20.167 -88 19.5
c-32 -0.666992 -58.167 -5.16699 -78.5 -13.5s-41.5 -20.5 -63.5 -36.5l-26 52c52.667 41.333 114.667 62 186 62c52 0 93.167 -12 123.5 -36s42.5 -58.667 36.5 -104c-2.66699 -21.333 -11.334 -41.166 -26.001 -59.499s-33.667 -31.833 -57 -40.5
c23.333 -9.33301 40.833 -23.833 52.5 -43.5s16.167 -41.167 13.5 -64.5c-6 -49.333 -28.167 -86.333 -66.5 -111s-85.166 -37 -140.499 -37c-74 0 -131.333 20.333 -172 61l39 52c29.333 -30.667 74 -47 134 -49z" />
    <glyph glyph-name="uni0438" unicode="&#x438;" horiz-adv-x="560" 
d="M459 96c-6 -48 -4.66699 -80 4 -96h-64c-8.66699 16 -10 48 -4 96l30 250l-396 -362l61 496h64l-43 -346l397 362z" />
    <glyph glyph-name="uni0439" unicode="&#x439;" horiz-adv-x="560" 
d="M397 668h48c-4.66699 -34.667 -20.334 -64 -47.001 -88s-57.334 -36 -92.001 -36s-62.667 12 -84 36s-29.666 53.333 -24.999 88h48c-2.66699 -21.333 2.5 -39.333 15.5 -54s29.833 -22 50.5 -22c21.333 0 40.333 7.5 57 22.5s26.334 32.833 29.001 53.5zM459 96
c-6 -48 -4.66699 -80 4 -96h-64c-8.66699 16 -10 48 -4 96l30 250l-396 -362l61 496h64l-43 -346l397 362z" />
    <glyph glyph-name="uni043A" unicode="&#x43a;" horiz-adv-x="480" 
d="M189 248l242 -248h-88l-221 222l-27 -222h-64l59 480h64l-26 -210l258 210h88z" />
    <glyph glyph-name="uni043B" unicode="&#x43b;" horiz-adv-x="560" 
d="M459 96c-6 -48 -4.66797 -80 3.99902 -96h-64c-8.66699 16 -10 48 -4 96l39 320h-208l-33 -267c-6.66699 -55.333 -20.5 -95.333 -41.5 -120s-49.833 -37 -86.5 -37c-21.333 0 -38 2.66699 -50 8l8 64c30 -10 53.833 -9.66699 71.5 1s28.834 35.667 33.501 75l42 340h336
z" />
    <glyph glyph-name="uni043C" unicode="&#x43c;" horiz-adv-x="640" 
d="M507 0l-29 306l-199 -306l-125 306l-103 -306h-68l168 496l144 -367l234 367l46 -496h-68z" />
    <glyph glyph-name="uni043D" unicode="&#x43d;" horiz-adv-x="544" 
d="M443 96c-6 -48 -4.66699 -80 4 -96h-64c-8.66699 16 -10 48 -4 96l13 112h-272l-25 -208h-64l59 480h64l-26 -208h272l26 208h64z" />
    <glyph glyph-name="uni043E" unicode="&#x43e;" horiz-adv-x="576" 
d="M307 488c68.667 0 124.169 -24.167 166.502 -72.5s59.166 -106.833 50.499 -175.5s-40 -127.167 -94 -175.5s-115.333 -72.5 -184 -72.5s-124.334 24.167 -167.001 72.5s-59.667 106.833 -51 175.5s40.167 127.167 94.5 175.5s115.833 72.5 184.5 72.5zM254.002 56
c50 0 95.333 18.167 136 54.5s64 79.5 70 129.5s-6.83301 93.167 -38.5 129.5s-72.5 54.5 -122.5 54.5s-95.5 -18.167 -136.5 -54.5s-64.5 -79.5 -70.5 -129.5s7 -93.167 39 -129.5s73 -54.5 123 -54.5z" />
    <glyph glyph-name="uni043F" unicode="&#x43f;" horiz-adv-x="544" 
d="M443 96c-6 -48 -4.66699 -80 4 -96h-64c-8.66699 16 -10 48 -4 96l39 320h-272l-51 -416h-64l59 480h400z" />
    <glyph glyph-name="uni0440" unicode="&#x440;" horiz-adv-x="608" 
d="M154 480l-10.998 -85.001c53.333 62 118.666 93 195.999 93c68.667 0 124.167 -24.167 166.5 -72.5s59.166 -106.833 50.499 -175.5s-40 -127.167 -94 -175.5s-115.333 -72.5 -184 -72.5c-38 0 -72 8.33301 -102 25s-53.667 39.334 -71 68.001l-42 -341h-64l91 736h64z
M286.002 55.999c51.333 0 96.9971 18 136.997 54s63 79.333 69 130c6.66699 50.667 -5.66602 94 -36.999 130s-72.666 54 -123.999 54c-50.667 0 -96.167 -17.833 -136.5 -53.5s-63.833 -79.167 -70.5 -130.5c-6 -51.333 6.83301 -94.833 38.5 -130.5
s72.834 -53.5 123.501 -53.5z" />
    <glyph glyph-name="uni0441" unicode="&#x441;" 
d="M401 104l18.998 -58c-43.333 -36 -97.666 -54 -162.999 -54c-79.333 0 -139.5 23.667 -180.5 71s-57.167 106.333 -48.5 177s39.5 129.667 92.5 177s118.833 71 197.5 71c63.333 0 113.666 -16.667 150.999 -50l-36 -58c-29.333 29.333 -70.666 44 -123.999 44
c-58 0 -107 -17.667 -147 -53s-63.333 -79 -70 -131c-6 -52.667 6.5 -96.5 37.5 -131.5s75.833 -52.5 134.5 -52.5c50.667 0 96.334 16 137.001 48z" />
    <glyph glyph-name="uni0442" unicode="&#x442;" horiz-adv-x="432" 
d="M58 480h352l-8 -64h-144l-51 -416h-64l51 416h-144z" />
    <glyph glyph-name="uni0443" unicode="&#x443;" horiz-adv-x="480" 
d="M415 480h75l-416 -736h-73l163 286l-138 450h75l111 -368z" />
    <glyph glyph-name="uni0444" unicode="&#x444;" horiz-adv-x="768" 
d="M537 488c58.667 0 105.503 -22.833 140.503 -68.5s48.167 -102.834 39.5 -171.501c-8.66699 -72.667 -36.334 -133.5 -83.001 -182.5s-99.334 -73.5 -158.001 -73.5c-42.667 0 -75.334 10.667 -98.001 32l-31 -248h-64l31 248c-29.333 -21.333 -64.666 -32 -105.999 -32
c-58.667 0 -105.334 24.5 -140.001 73.5s-47.667 109.833 -39 182.5c8.66699 68.667 36.167 125.834 82.5 171.501s98.833 68.5 157.5 68.5c36 0 68.667 -10.667 98 -32l30 248h64l-30 -248c32.667 21.333 68 32 106 32zM216.003 56c68 0 105.668 31.666 113.001 94.999
l24 193c3.33301 26.667 -4.33398 46.667 -23.001 60s-41.667 20 -69 20c-42.667 0 -79.667 -16.167 -111 -48.5s-50.333 -74.166 -57 -125.499c-6.66699 -56.667 1.5 -103.167 24.5 -139.5s55.833 -54.5 98.5 -54.5zM484.004 55.999c42.667 0 79.8311 18.168 111.498 54.501
s50.834 82.833 57.501 139.5c6.66699 51.333 -1.66602 93.166 -24.999 125.499s-56.333 48.5 -99 48.5c-27.333 0 -52 -6.66699 -74 -20s-34.667 -33.333 -38 -60l-24 -193c-4 -34.667 3 -59.167 21 -73.5s41.333 -21.5 70 -21.5z" />
    <glyph glyph-name="uni0445" unicode="&#x445;" 
d="M277 255l154 -255h-78l-121 203l-171 -203h-78l216 255l-142 225h78l109 -180l153 180h78z" />
    <glyph glyph-name="uni0446" unicode="&#x446;" horiz-adv-x="624" 
d="M439 64h96l-24 -192h-64l16 128h-432l59 480h64l-51 -416h272l51 416h64z" />
    <glyph glyph-name="uni0447" unicode="&#x447;" horiz-adv-x="512" 
d="M411 96c-6 -48 -4.66895 -80.002 3.99805 -96.002h-64c-8.66699 16 -10 48 -4 96l12 104c-43.333 -16 -91 -24 -143 -24c-50.667 0 -91.5 14.5 -122.5 43.5s-43.167 71.5 -36.5 127.5l17 133h64l-15 -118c-5.33301 -45.333 1.33398 -76.666 20.001 -93.999
s48.334 -26.666 89.001 -27.999c51.333 -1.33301 96.333 5 135 19l27 221h64z" />
    <glyph glyph-name="uni0448" unicode="&#x448;" horiz-adv-x="752" 
d="M634 480h64l-59 -480h-608l59 480h64l-51 -416h208l51 416h64l-51 -416h208z" />
    <glyph glyph-name="uni0449" unicode="&#x449;" horiz-adv-x="832" 
d="M647 64h96l-24 -192h-64l16 128h-640l59 480h64l-51 -416h208l51 416h64l-51 -416h208l51 416h64z" />
    <glyph glyph-name="uni044A" unicode="&#x44a;" horiz-adv-x="592" 
d="M348 304c66 0 114.166 -12.666 144.499 -37.999s42.833 -62 37.5 -110c-6 -48.667 -27.667 -86.834 -65 -114.501s-88.666 -41.5 -153.999 -41.5h-184l51 416h-128l8 64h192l-22 -176h120zM336.999 64.001c75.333 0 116.667 29.333 124 88
c4 31.333 -3.33301 53.833 -22 67.5s-45.667 20.5 -81 20.5h-138l-21 -176h138z" />
    <glyph glyph-name="uni044B" unicode="&#x44b;" horiz-adv-x="688" 
d="M31 0l58.999 480.001h64l-22 -176h120c66 0 114.167 -12.667 144.5 -38s42.833 -62 37.5 -110c-6 -48.667 -27.667 -86.834 -65 -114.501s-88.666 -41.5 -153.999 -41.5h-184zM633.999 480.001l-47 -384c-6 -48 -4.66699 -80 4 -96h-64c-8.66699 16 -10 48 -4 96l47 384
h64zM240.999 64.001c75.333 0 116.667 29.333 124 88c4 31.333 -3.33301 53.833 -22 67.5s-45.667 20.5 -81 20.5h-138l-21 -176h138z" />
    <glyph glyph-name="uni044C" unicode="&#x44c;" 
d="M31 0l58.999 480.001h64l-22 -176h120c66 0 114.167 -12.667 144.5 -38s42.833 -62 37.5 -110c-6 -48.667 -27.667 -86.834 -65 -114.501s-88.666 -41.5 -153.999 -41.5h-184zM240.999 64.001c75.333 0 116.667 29.333 124 88c4 31.333 -3.33301 53.833 -22 67.5
s-45.667 20.5 -81 20.5h-138l-21 -176h138z" />
    <glyph glyph-name="uni044D" unicode="&#x44d;" 
d="M164 56c54 0 100 15 138 45s62.667 68.333 74 115h-239l6 48h239c0 46 -15.5 84.167 -46.5 114.5s-73.167 45.5 -126.5 45.5c-52.667 0 -98 -14.667 -136 -44l-20 58c45.333 33.333 99.666 50 162.999 50c78.667 0 138.5 -23.667 179.5 -71s57.167 -106.333 48.5 -177
c-8.66699 -71.333 -39.167 -130.5 -91.5 -177.5s-118.166 -70.5 -197.499 -70.5c-66 0 -116.333 18 -151 54l35 58c32 -32 73.667 -48 125 -48z" />
    <glyph glyph-name="uni044E" unicode="&#x44e;" horiz-adv-x="784" 
d="M515 488c68.667 0 124.168 -24.167 166.501 -72.5s59.166 -106.833 50.499 -175.5s-40 -127.167 -94 -175.5s-115.333 -72.5 -184 -72.5c-64 0 -117 21.5 -159 64.5s-62.333 96.167 -61 159.5h-113l-26 -216h-64l59 480h64l-27 -216h113
c14 63.333 47.333 116.5 100 159.5s111 64.5 175 64.5zM462.001 56c50 0 95.333 18.167 136 54.5s64 79.5 70 129.5s-6.83301 93.167 -38.5 129.5s-72.5 54.5 -122.5 54.5s-95.5 -18.167 -136.5 -54.5s-64.5 -79.5 -70.5 -129.5s7 -93.167 39 -129.5s73 -54.5 123 -54.5z
" />
    <glyph glyph-name="uni044F" unicode="&#x44f;" horiz-adv-x="512" 
d="M411 96c-6 -48 -4.66699 -80 4 -96h-64c-8.66699 16 -10 48 -4 96l7 57h-99l-166 -153h-90l178 157c-36 3.33301 -67 18.833 -93 46.5s-36.333 62.5 -31 104.5c14 114.667 93 172 237 172h168zM240 217h120.999l25 199h-129c-40 0 -72.333 -9 -97 -27s-39 -43 -43 -75
c-3.33301 -31.333 5.33398 -55.333 26.001 -72s53 -25 97 -25z" />
    </font>
</defs>
</svg>
